<svg width="181" height="159" viewBox="0 0 181 159" fill="none" xmlns="http://www.w3.org/2000/svg">
<path d="M40.9082 139.902C40.8682 139.542 40.5215 139.376 39.8682 139.402C39.5749 139.416 39.0415 139.502 38.2682 139.662C38.1082 139.689 37.9215 139.702 37.7082 139.702L37.1282 139.682C36.7815 139.789 36.6149 140.089 36.6282 140.582C36.6282 140.742 36.6482 140.989 36.6882 141.322C36.7415 141.709 36.7749 141.989 36.7882 142.162C37.1482 148.576 37.3615 152.009 37.4282 152.462C37.5349 153.276 37.6882 153.782 37.8882 153.982C38.0749 154.169 38.3682 154.142 38.7682 153.902C38.9549 153.796 39.0415 153.449 39.0282 152.862L38.9682 152.082C38.9282 151.722 38.9082 151.469 38.9082 151.322C38.8815 150.736 38.7815 149.582 38.6082 147.862C38.4615 146.422 38.3349 144.962 38.2282 143.482C38.1349 141.989 38.1015 141.149 38.1282 140.962L38.8882 140.882C39.3015 140.842 39.6215 140.802 39.8482 140.762C40.6082 140.616 40.9615 140.329 40.9082 139.902ZM42.0887 153.822C42.2887 153.916 42.5153 153.976 42.7687 154.002C42.8353 154.016 42.922 154.022 43.0287 154.022C43.5887 153.956 43.9753 153.549 44.1887 152.802C44.362 152.269 44.4353 151.429 44.4087 150.282C44.382 149.549 44.3353 148.169 44.2687 146.142C44.2153 144.289 44.182 142.896 44.1687 141.962V140.762C44.8487 140.829 45.1887 140.909 45.1887 141.002C45.3353 142.176 45.4353 143.989 45.4887 146.442C45.4087 148.882 45.422 150.836 45.5287 152.302C45.6487 153.756 46.022 154.309 46.6487 153.962C46.862 153.922 46.9353 153.522 46.8687 152.762C46.6687 148.309 46.5753 145.622 46.5887 144.702L46.5687 143.402C46.5553 142.709 46.5353 142.142 46.5087 141.702C46.5487 140.276 46.3753 139.562 45.9887 139.562L44.4487 139.442C43.622 139.362 42.982 139.336 42.5287 139.362C42.0887 139.362 41.9487 139.689 42.1087 140.342C42.1487 140.462 42.422 140.562 42.9287 140.642C42.9153 141.042 42.9087 141.542 42.9087 142.142L42.9887 144.562C43.0153 145.576 43.022 146.336 43.0087 146.842L43.0687 148.182C43.1087 148.929 43.122 149.562 43.1087 150.082C43.1087 151.602 43.002 152.442 42.7887 152.602L42.5687 152.582C42.0887 152.462 41.802 152.609 41.7087 153.022C41.6153 153.436 41.742 153.702 42.0887 153.822ZM52.8104 139.602C52.5704 139.416 52.337 139.369 52.1104 139.462C51.9104 139.556 51.7437 139.716 51.6104 139.942C51.517 140.156 51.4437 140.529 51.3904 141.062C51.337 141.622 51.2837 141.976 51.2304 142.122C51.0437 141.989 50.7104 141.609 50.2304 140.982C49.777 140.396 49.4304 140.036 49.1904 139.902C48.9637 139.769 48.737 139.749 48.5104 139.842C48.2704 139.949 48.1504 140.122 48.1504 140.362C48.1637 140.482 48.3637 140.809 48.7504 141.342L50.9504 143.962C50.8304 144.722 50.6237 145.949 50.3304 147.642C50.037 149.242 49.8237 150.462 49.6904 151.302C49.437 152.956 49.3904 153.816 49.5504 153.882C49.737 154.029 50.0704 154.082 50.5504 154.042C50.6304 154.002 50.7637 153.489 50.9504 152.502C51.0304 151.969 51.1704 151.129 51.3704 149.982C51.5704 148.902 51.7104 148.062 51.7904 147.462C51.8704 146.982 51.9904 146.222 52.1504 145.182C52.377 143.862 52.517 143.022 52.5704 142.662C52.877 140.702 52.957 139.682 52.8104 139.602ZM57.6471 147.342C57.9004 148.822 57.9004 150.276 57.6471 151.702C57.5938 151.969 57.4471 152.249 57.2071 152.542C56.9271 152.862 56.6671 152.989 56.4271 152.922C56.2671 152.856 56.1671 152.256 56.1271 151.122L56.0471 148.122C56.0338 147.229 56.0138 146.596 55.9871 146.222C55.9871 146.169 56.0204 146.129 56.0871 146.102C56.9404 145.689 57.4604 146.102 57.6471 147.342ZM55.7671 140.842C55.7404 140.562 55.7338 140.382 55.7471 140.302L56.5071 140.222C56.9204 140.182 57.2404 140.142 57.4671 140.102C58.2271 139.956 58.5804 139.669 58.5271 139.242C58.4871 138.882 58.1404 138.716 57.4871 138.742C57.1938 138.756 56.6604 138.842 55.8871 139.002C55.7271 139.029 55.5404 139.042 55.3271 139.042L54.7471 139.022C54.4004 139.129 54.2338 139.429 54.2471 139.922C54.2471 140.082 54.2871 140.702 54.3671 141.782C54.4471 142.702 54.4871 143.289 54.4871 143.542L54.5271 145.222C54.5538 145.942 54.5671 146.442 54.5671 146.722C54.6871 149.936 54.7538 151.629 54.7671 151.802C54.7938 152.909 54.9538 153.569 55.2471 153.782C55.4871 153.956 55.8471 154.076 56.3271 154.142C56.8338 154.209 57.2338 154.169 57.5271 154.022C58.3138 153.702 58.8338 152.636 59.0871 150.822C59.2204 149.569 59.1471 148.162 58.8671 146.602C58.3471 144.962 57.3804 144.442 55.9671 145.042C55.9671 144.749 55.9338 143.662 55.8671 141.782C55.8404 141.422 55.8071 141.109 55.7671 140.842ZM62.2474 153.962C62.7807 152.696 63.3807 150.136 64.0474 146.282L63.7074 152.862C63.6941 153.289 63.7407 153.649 63.8474 153.942C63.9807 154.276 64.1741 154.402 64.4274 154.322C64.8407 154.429 65.0541 154.102 65.0674 153.342C65.0541 152.956 65.0807 152.176 65.1474 151.002C65.2007 149.949 65.2141 149.122 65.1874 148.522C65.1741 147.989 65.1741 146.509 65.1874 144.082C65.2007 142.336 65.1341 140.969 64.9874 139.982C64.9341 139.676 64.7607 139.576 64.4674 139.682C64.1607 139.789 63.9674 140.129 63.8874 140.702C63.9007 140.662 63.8407 141.022 63.7074 141.782C63.6007 142.382 63.5474 142.776 63.5474 142.962C63.5207 144.336 63.1274 146.069 62.3674 148.162C62.1407 148.962 62.0474 149.316 62.0874 149.222L62.1474 142.502C62.1741 141.476 62.1674 140.822 62.1274 140.542C62.0207 139.849 61.7474 139.496 61.3074 139.482C61.0274 139.482 60.8674 139.696 60.8274 140.122L60.8474 141.382L60.8074 142.982C60.7674 143.849 60.7607 145.189 60.7874 147.002C60.8141 149.056 60.8207 150.389 60.8074 151.002C60.7807 152.549 60.8274 153.589 60.9474 154.122C61.0674 154.336 61.2474 154.442 61.4874 154.442C61.7674 154.456 62.0207 154.296 62.2474 153.962ZM70.6315 139.302C70.4315 139.302 70.2581 139.476 70.1115 139.822C70.0048 140.102 69.9848 141.089 70.0515 142.782C70.1048 144.422 70.0981 145.289 70.0315 145.382C70.0048 145.409 69.7315 145.436 69.2115 145.462C68.6648 145.502 68.3915 145.489 68.3915 145.422C68.3248 145.356 68.2981 144.376 68.3115 142.482C68.3248 140.629 68.2315 139.656 68.0315 139.562C67.7781 139.469 67.5648 139.496 67.3915 139.642C67.2581 139.762 67.1715 139.929 67.1315 140.142C67.1181 140.222 67.1115 140.889 67.1115 142.142L67.0915 150.082C67.0915 150.309 67.0781 150.742 67.0515 151.382C67.0381 151.969 67.0315 152.409 67.0315 152.702C67.0581 153.662 67.2048 154.136 67.4715 154.122C67.8981 154.149 68.1448 154.109 68.2115 154.002C68.3715 153.709 68.4181 152.989 68.3515 151.842C68.1781 148.576 68.2048 146.942 68.4315 146.942C69.3915 146.729 69.9248 146.716 70.0315 146.902C70.1515 148.729 70.2048 150.616 70.1915 152.562C70.1915 153.256 70.2515 153.722 70.3715 153.962C70.5715 154.109 70.8048 154.142 71.0715 154.062C71.3248 153.929 71.4515 153.676 71.4515 153.302C71.4381 149.102 71.3248 144.502 71.1115 139.502C71.1115 139.369 70.9515 139.302 70.6315 139.302ZM75.6402 139.602C75.2936 139.362 74.9936 139.582 74.7402 140.262C74.6202 140.596 74.4802 141.209 74.3202 142.102L73.6802 144.922C73.2936 146.616 73.0802 147.616 73.0402 147.922C73.0002 148.229 72.9002 148.842 72.7402 149.762C72.6069 150.536 72.5269 151.129 72.5002 151.542C72.4069 152.836 72.4669 153.649 72.6802 153.982C72.8669 154.209 73.1802 154.229 73.6202 154.042C73.6736 154.042 73.8136 153.056 74.0402 151.082C74.1736 149.922 74.3536 148.962 74.5802 148.202C74.6469 148.189 74.8602 148.182 75.2202 148.182C75.4869 148.182 75.6802 148.162 75.8002 148.122C75.7736 148.042 76.0202 149.182 76.5402 151.542C76.8202 152.796 76.9736 153.449 77.0002 153.502C77.2269 154.022 77.6336 154.102 78.2202 153.742C78.3402 153.382 78.1736 152.309 77.7202 150.522C77.4269 149.309 77.1336 147.749 76.8402 145.842L76.1402 141.282C75.9669 140.269 75.8002 139.709 75.6402 139.602ZM75.0602 145.062C75.1402 144.689 75.1936 144.509 75.2202 144.522C75.4069 144.602 75.5002 145.282 75.5002 146.562C75.4336 146.602 75.1869 146.622 74.7602 146.622C74.9069 145.809 75.0069 145.289 75.0602 145.062ZM87.9099 141.002C87.9232 141.482 87.8966 142.596 87.8299 144.342C87.7899 145.276 87.8232 146.809 87.9299 148.942C88.0232 150.996 88.0432 152.529 87.9899 153.542C87.9899 153.782 88.0699 153.942 88.2299 154.022C88.5499 154.182 88.7966 154.156 88.9699 153.942C89.2499 153.662 89.3766 152.989 89.3499 151.922L89.2499 146.882C89.1966 144.669 89.1699 143.022 89.1699 141.942L89.1899 141.182C89.3099 140.076 89.1566 139.522 88.7299 139.522C88.2632 139.509 87.6232 139.536 86.8099 139.602L85.4899 139.722C85.1032 139.722 84.9032 140.436 84.8899 141.862C84.8766 142.302 84.8899 142.869 84.9299 143.562L84.9899 144.862C85.0566 145.782 85.0899 147.802 85.0899 150.922C85.0899 151.136 85.0766 151.469 85.0499 151.922C85.0099 152.416 84.9899 152.756 84.9899 152.942C84.9632 153.689 85.0632 154.082 85.2899 154.122C85.9299 154.469 86.2899 153.802 86.3699 152.122C86.4632 150.896 86.4632 149.056 86.3699 146.602C86.2766 144.149 86.2766 142.336 86.3699 141.162C86.3432 141.042 86.7766 140.996 87.6699 141.022C87.7499 141.009 87.8299 141.002 87.9099 141.002ZM93.0107 144.142C93.0107 144.076 93.3574 144.009 94.0507 143.942C94.8107 143.862 95.2907 143.716 95.4907 143.502C96.0907 142.876 96.3507 142.069 96.2707 141.082C96.1907 140.189 96.0107 139.642 95.7307 139.442C95.304 139.136 94.5307 138.936 93.4107 138.842C92.3707 138.749 91.7307 138.769 91.4907 138.902C91.344 138.929 91.2707 139.802 91.2707 141.522V153.262C91.324 153.849 91.4774 154.169 91.7307 154.222C92.2374 154.396 92.5374 154.149 92.6307 153.482C92.6574 153.282 92.6707 152.969 92.6707 152.542C92.6707 152.089 92.6774 151.789 92.6907 151.642C93.144 146.642 93.2507 144.142 93.0107 144.142ZM92.6307 142.562C92.484 141.029 92.4574 140.222 92.5507 140.142C92.4974 139.982 92.8574 139.916 93.6307 139.942C94.404 139.969 94.884 140.109 95.0707 140.362C95.2174 140.536 95.2774 140.882 95.2507 141.402C95.224 141.909 95.144 142.236 95.0107 142.382C94.8107 142.609 94.3574 142.736 93.6507 142.762C92.9707 142.789 92.6307 142.722 92.6307 142.562ZM101.812 142.342C101.812 141.436 101.692 140.789 101.452 140.402C100.906 139.602 100.092 139.296 99.0124 139.482C98.5857 139.562 98.2191 139.869 97.9124 140.402C97.6591 140.856 97.5324 141.896 97.5324 143.522V146.022C97.5057 146.542 97.4791 147.402 97.4524 148.602C97.4391 149.642 97.4191 150.416 97.3924 150.922C97.3657 151.202 97.3857 151.569 97.4524 152.022C97.4791 152.329 97.6257 152.696 97.8924 153.122C98.3191 153.869 98.9791 154.196 99.8724 154.102C100.339 154.062 100.746 153.769 101.092 153.222C101.372 152.782 101.539 151.989 101.592 150.842C101.592 150.469 101.619 150.002 101.672 149.442L101.772 148.182C101.839 147.329 101.866 146.416 101.852 145.442L101.812 142.342ZM100.332 141.062C100.479 141.396 100.579 141.809 100.632 142.302C100.886 145.222 100.799 147.822 100.372 150.102C100.346 150.236 100.326 150.469 100.312 150.802C100.299 151.229 100.286 151.516 100.272 151.662C100.219 152.342 100.032 152.682 99.7124 152.682C99.0324 152.669 98.6524 152.302 98.5724 151.582C98.5457 151.342 98.5457 150.989 98.5724 150.522C98.6124 149.909 98.6324 149.516 98.6324 149.342L98.6724 146.662C98.6857 145.502 98.6791 144.569 98.6524 143.862C98.6124 142.796 98.6124 142.149 98.6524 141.922C98.7324 141.309 98.9791 140.922 99.3924 140.762C99.5524 140.682 99.7391 140.682 99.9524 140.762C100.126 140.842 100.252 140.942 100.332 141.062ZM105.797 139.482C104.917 139.629 104.317 140.229 103.997 141.282C103.797 141.962 103.724 143.742 103.777 146.622C103.777 146.476 103.831 147.656 103.937 150.162C104.071 151.762 104.284 152.809 104.577 153.302C104.964 153.942 105.557 154.269 106.357 154.282C107.171 154.296 107.784 153.996 108.197 153.382C108.477 152.956 108.604 152.689 108.577 152.582C108.577 152.489 108.517 152.376 108.397 152.242C108.251 152.069 108.091 152.009 107.917 152.062C107.624 152.156 107.444 152.349 107.377 152.642C107.324 152.909 107.064 153.082 106.597 153.162C106.064 153.269 105.697 152.429 105.497 150.642C105.311 148.976 105.251 146.622 105.317 143.582C105.344 142.742 105.391 142.169 105.457 141.862C105.604 141.169 105.897 140.889 106.337 141.022C106.657 141.116 106.951 141.462 107.217 142.062C107.337 142.302 107.557 142.316 107.877 142.102C108.211 141.889 108.304 141.576 108.157 141.162C107.957 140.496 107.691 140.069 107.357 139.882C106.851 139.536 106.331 139.402 105.797 139.482ZM111.102 139.222C110.582 139.129 110.282 139.262 110.202 139.622L110.142 144.722C110.116 146.416 110.069 147.816 110.002 148.922C109.989 149.176 109.989 149.509 110.002 149.922C110.029 150.442 110.042 150.776 110.042 150.922C110.069 152.669 110.116 153.642 110.182 153.842C110.302 154.082 110.509 154.136 110.802 154.002C110.989 153.922 111.116 153.376 111.182 152.362C111.209 152.002 111.216 151.402 111.202 150.562C111.202 149.709 111.209 149.056 111.222 148.602C111.289 147.202 111.322 146.002 111.322 145.002L111.342 144.082C111.356 143.669 111.362 143.302 111.362 142.982C111.429 143.036 111.502 143.162 111.582 143.362C111.889 144.376 112.236 144.916 112.622 144.982C112.729 145.022 112.809 145.022 112.862 144.982C112.942 144.916 113.089 144.716 113.302 144.382C113.796 143.489 114.089 143.016 114.182 142.962C114.036 145.336 113.962 148.409 113.962 152.182C113.962 153.276 113.969 153.836 113.982 153.862C114.129 154.116 114.342 154.196 114.622 154.102C114.982 154.036 115.162 153.829 115.162 153.482C115.189 148.762 115.256 144.676 115.362 141.222C115.402 140.182 115.402 139.649 115.362 139.622C115.162 139.329 114.889 139.282 114.542 139.482C114.516 139.496 114.422 139.629 114.262 139.882C113.129 141.949 112.602 142.982 112.682 142.982C112.656 142.982 112.496 142.649 112.202 141.982C112.149 141.769 112.076 141.562 111.982 141.362C111.969 141.309 111.922 141.142 111.842 140.862L111.622 140.142C111.422 139.529 111.249 139.222 111.102 139.222ZM121.444 142.342C121.444 141.436 121.324 140.789 121.084 140.402C120.538 139.602 119.724 139.296 118.644 139.482C118.218 139.562 117.851 139.869 117.544 140.402C117.291 140.856 117.164 141.896 117.164 143.522V146.022C117.138 146.542 117.111 147.402 117.084 148.602C117.071 149.642 117.051 150.416 117.024 150.922C116.998 151.202 117.018 151.569 117.084 152.022C117.111 152.329 117.258 152.696 117.524 153.122C117.951 153.869 118.611 154.196 119.504 154.102C119.971 154.062 120.378 153.769 120.724 153.222C121.004 152.782 121.171 151.989 121.224 150.842C121.224 150.469 121.251 150.002 121.304 149.442L121.404 148.182C121.471 147.329 121.498 146.416 121.484 145.442L121.444 142.342ZM119.964 141.062C120.111 141.396 120.211 141.809 120.264 142.302C120.518 145.222 120.431 147.822 120.004 150.102C119.978 150.236 119.958 150.469 119.944 150.802C119.931 151.229 119.918 151.516 119.904 151.662C119.851 152.342 119.664 152.682 119.344 152.682C118.664 152.669 118.284 152.302 118.204 151.582C118.178 151.342 118.178 150.989 118.204 150.522C118.244 149.909 118.264 149.516 118.264 149.342L118.304 146.662C118.318 145.502 118.311 144.569 118.284 143.862C118.244 142.796 118.244 142.149 118.284 141.922C118.364 141.309 118.611 140.922 119.024 140.762C119.184 140.682 119.371 140.682 119.584 140.762C119.758 140.842 119.884 140.942 119.964 141.062ZM128.229 140.882C128.443 140.882 128.496 140.662 128.389 140.222C128.296 139.769 128.056 139.509 127.669 139.442C126.203 139.376 125.329 139.349 125.049 139.362C123.729 139.416 123.056 139.682 123.029 140.162C123.003 140.562 123.256 140.842 123.789 141.002C124.669 141.216 125.109 141.242 125.109 141.082C124.936 143.789 124.849 146.569 124.849 149.422L124.869 150.282C124.896 150.656 124.903 150.962 124.889 151.202C124.823 152.909 125.003 153.856 125.429 154.042C125.936 154.282 126.236 154.089 126.329 153.462C126.356 153.249 126.363 152.956 126.349 152.582V151.742C126.403 150.796 126.416 148.922 126.389 146.122C126.376 143.802 126.456 142.082 126.629 140.962C126.629 140.856 126.836 140.829 127.249 140.882C127.743 140.949 128.069 140.949 128.229 140.882ZM131.611 144.142C131.611 144.076 131.957 144.009 132.651 143.942C133.411 143.862 133.891 143.716 134.091 143.502C134.691 142.876 134.951 142.069 134.871 141.082C134.791 140.189 134.611 139.642 134.331 139.442C133.904 139.136 133.131 138.936 132.011 138.842C130.971 138.749 130.331 138.769 130.091 138.902C129.944 138.929 129.871 139.802 129.871 141.522V153.262C129.924 153.849 130.077 154.169 130.331 154.222C130.837 154.396 131.137 154.149 131.231 153.482C131.257 153.282 131.271 152.969 131.271 152.542C131.271 152.089 131.277 151.789 131.291 151.642C131.744 146.642 131.851 144.142 131.611 144.142ZM131.231 142.562C131.084 141.029 131.057 140.222 131.151 140.142C131.097 139.982 131.457 139.916 132.231 139.942C133.004 139.969 133.484 140.109 133.671 140.362C133.817 140.536 133.877 140.882 133.851 141.402C133.824 141.909 133.744 142.236 133.611 142.382C133.411 142.609 132.957 142.736 132.251 142.762C131.571 142.789 131.231 142.722 131.231 142.562ZM138.632 139.602C138.286 139.362 137.986 139.582 137.732 140.262C137.612 140.596 137.472 141.209 137.312 142.102L136.672 144.922C136.286 146.616 136.072 147.616 136.032 147.922C135.992 148.229 135.892 148.842 135.732 149.762C135.599 150.536 135.519 151.129 135.492 151.542C135.399 152.836 135.459 153.649 135.672 153.982C135.859 154.209 136.172 154.229 136.612 154.042C136.666 154.042 136.806 153.056 137.032 151.082C137.166 149.922 137.346 148.962 137.572 148.202C137.639 148.189 137.852 148.182 138.212 148.182C138.479 148.182 138.672 148.162 138.792 148.122C138.766 148.042 139.012 149.182 139.532 151.542C139.812 152.796 139.966 153.449 139.992 153.502C140.219 154.022 140.626 154.102 141.212 153.742C141.332 153.382 141.166 152.309 140.712 150.522C140.419 149.309 140.126 147.749 139.832 145.842L139.132 141.282C138.959 140.269 138.792 139.709 138.632 139.602ZM138.052 145.062C138.132 144.689 138.186 144.509 138.212 144.522C138.399 144.602 138.492 145.282 138.492 146.562C138.426 146.602 138.179 146.622 137.752 146.622C137.899 145.809 137.999 145.289 138.052 145.062Z" fill="black"/>
<rect x="11.6484" width="68.0722" height="124.132" fill="#94070A"/>
<rect x="99.7418" y="27.0287" width="68.0722" height="97.103" fill="white"/>
<path d="M34.0133 103.305V104.201H36.3233V113.105H37.3313V103.305H34.0133ZM40.4439 111.649C40.0239 111.649 39.7019 111.971 39.7019 112.405C39.7019 112.769 39.9119 113.035 40.2059 113.119L39.7299 115.149H40.4019L40.9899 113.217C41.1299 112.825 41.1859 112.643 41.1859 112.405C41.1859 111.985 40.8779 111.649 40.4439 111.649ZM46.1094 107.505L48.8814 104.019V103.305H42.5814V104.201H47.5934L44.8774 107.603V108.345H45.5774C47.3974 108.345 48.2234 109.115 48.2234 110.291C48.2234 111.509 47.3274 112.265 45.7034 112.265C44.4294 112.265 43.2954 111.789 42.6654 111.131L42.1754 111.929C42.9314 112.699 44.2894 113.189 45.7034 113.189C48.0694 113.189 49.2594 111.929 49.2594 110.291C49.2594 108.723 48.2094 107.617 46.1094 107.505ZM53.7317 103.221C51.8277 103.221 50.3857 104.397 50.3857 106.231C50.3857 108.023 51.7437 109.171 53.6897 109.171C55.0477 109.171 56.1957 108.569 56.6857 107.491C56.7137 107.785 56.7277 108.065 56.7277 108.289C56.7277 110.949 55.3697 112.307 53.2557 112.307C52.5277 112.307 51.8557 112.181 51.3517 111.845L50.9457 112.657C51.5617 113.035 52.3877 113.189 53.2697 113.189C55.9297 113.189 57.7497 111.453 57.7497 108.121C57.7497 105.027 56.3357 103.221 53.7317 103.221ZM53.8437 108.317C52.3317 108.317 51.3797 107.491 51.3797 106.203C51.3797 104.901 52.3597 104.075 53.7737 104.075C55.4677 104.075 56.3637 105.097 56.3637 106.175C56.3637 107.393 55.3417 108.317 53.8437 108.317Z" fill="white"/>
<path d="M120.908 103.305V104.201H123.218V113.105H124.226V103.305H120.908ZM127.338 111.649C126.918 111.649 126.596 111.971 126.596 112.405C126.596 112.769 126.806 113.035 127.1 113.119L126.624 115.149H127.296L127.884 113.217C128.024 112.825 128.08 112.643 128.08 112.405C128.08 111.985 127.772 111.649 127.338 111.649ZM133.004 107.505L135.776 104.019V103.305H129.476V104.201H134.488L131.772 107.603V108.345H132.472C134.292 108.345 135.118 109.115 135.118 110.291C135.118 111.509 134.222 112.265 132.598 112.265C131.324 112.265 130.19 111.789 129.56 111.131L129.07 111.929C129.826 112.699 131.184 113.189 132.598 113.189C134.964 113.189 136.154 111.929 136.154 110.291C136.154 108.723 135.104 107.617 133.004 107.505ZM143.188 107.967C144.196 107.575 144.756 106.833 144.756 105.811C144.756 104.215 143.37 103.221 141.298 103.221C139.226 103.221 137.868 104.215 137.868 105.811C137.868 106.833 138.414 107.575 139.408 107.967C138.19 108.373 137.518 109.199 137.518 110.375C137.518 112.111 138.946 113.189 141.298 113.189C143.636 113.189 145.106 112.111 145.106 110.375C145.106 109.213 144.42 108.373 143.188 107.967ZM138.876 105.839C138.876 104.747 139.814 104.075 141.298 104.075C142.768 104.075 143.734 104.747 143.734 105.853C143.734 106.917 142.824 107.603 141.298 107.603C139.772 107.603 138.876 106.917 138.876 105.839ZM141.298 112.335C139.562 112.335 138.54 111.579 138.54 110.361C138.54 109.157 139.562 108.401 141.298 108.401C143.034 108.401 144.07 109.157 144.07 110.361C144.07 111.579 143.034 112.335 141.298 112.335Z" fill="#94070A"/>
<rect x="0.636963" y="122.13" width="180.191" height="2.00212" fill="black"/>
</svg>
