<svg width="282" height="159" viewBox="0 0 282 159" fill="none" xmlns="http://www.w3.org/2000/svg">
<path d="M120.384 145.282C120.758 144.629 121.451 143.229 122.464 141.082C122.851 140.376 122.998 139.896 122.904 139.642C122.851 139.469 122.698 139.396 122.444 139.422C122.231 139.462 122.058 139.536 121.924 139.642C121.658 139.869 121.324 140.436 120.924 141.342C120.524 142.222 120.198 142.762 119.944 142.962L119.884 141.282C119.858 140.562 119.831 140.016 119.804 139.642C119.578 139.442 119.344 139.409 119.104 139.542C118.904 139.662 118.771 139.849 118.704 140.102C118.651 140.276 118.638 140.582 118.664 141.022C118.691 142.236 118.618 144.382 118.444 147.462C118.271 150.462 118.211 152.642 118.264 154.002C118.264 154.202 118.484 154.296 118.924 154.282C119.364 154.269 119.584 154.149 119.584 153.922C119.584 150.229 119.658 147.949 119.804 147.082C120.631 149.096 121.298 151.016 121.804 152.842C121.938 153.322 122.138 153.642 122.404 153.802C122.538 153.909 122.724 153.929 122.964 153.862C123.204 153.796 123.351 153.662 123.404 153.462C123.511 153.036 123.324 152.222 122.844 151.022C121.858 148.356 121.038 146.442 120.384 145.282ZM124.524 153.822C124.724 153.916 124.95 153.976 125.204 154.002C125.27 154.016 125.357 154.022 125.464 154.022C126.024 153.956 126.41 153.549 126.624 152.802C126.797 152.269 126.87 151.429 126.844 150.282C126.817 149.549 126.77 148.169 126.704 146.142C126.65 144.289 126.617 142.896 126.604 141.962V140.762C127.284 140.829 127.624 140.909 127.624 141.002C127.77 142.176 127.87 143.989 127.924 146.442C127.844 148.882 127.857 150.836 127.964 152.302C128.084 153.756 128.457 154.309 129.084 153.962C129.297 153.922 129.37 153.522 129.304 152.762C129.104 148.309 129.01 145.622 129.024 144.702L129.004 143.402C128.99 142.709 128.97 142.142 128.944 141.702C128.984 140.276 128.81 139.562 128.424 139.562L126.884 139.442C126.057 139.362 125.417 139.336 124.964 139.362C124.524 139.362 124.384 139.689 124.544 140.342C124.584 140.462 124.857 140.562 125.364 140.642C125.35 141.042 125.344 141.542 125.344 142.142L125.424 144.562C125.45 145.576 125.457 146.336 125.444 146.842L125.504 148.182C125.544 148.929 125.557 149.562 125.544 150.082C125.544 151.602 125.437 152.442 125.224 152.602L125.004 152.582C124.524 152.462 124.237 152.609 124.144 153.022C124.05 153.436 124.177 153.702 124.524 153.822ZM132.525 153.962C133.059 152.696 133.659 150.136 134.325 146.282L133.985 152.862C133.972 153.289 134.019 153.649 134.125 153.942C134.259 154.276 134.452 154.402 134.705 154.322C135.119 154.429 135.332 154.102 135.345 153.342C135.332 152.956 135.359 152.176 135.425 151.002C135.479 149.949 135.492 149.122 135.465 148.522C135.452 147.989 135.452 146.509 135.465 144.082C135.479 142.336 135.412 140.969 135.265 139.982C135.212 139.676 135.039 139.576 134.745 139.682C134.439 139.789 134.245 140.129 134.165 140.702C134.179 140.662 134.119 141.022 133.985 141.782C133.879 142.382 133.825 142.776 133.825 142.962C133.799 144.336 133.405 146.069 132.645 148.162C132.419 148.962 132.325 149.316 132.365 149.222L132.425 142.502C132.452 141.476 132.445 140.822 132.405 140.542C132.299 139.849 132.025 139.496 131.585 139.482C131.305 139.482 131.145 139.696 131.105 140.122L131.125 141.382L131.085 142.982C131.045 143.849 131.039 145.189 131.065 147.002C131.092 149.056 131.099 150.389 131.085 151.002C131.059 152.549 131.105 153.589 131.225 154.122C131.345 154.336 131.525 154.442 131.765 154.442C132.045 154.456 132.299 154.296 132.525 153.962ZM139.47 145.282C139.843 144.629 140.536 143.229 141.55 141.082C141.936 140.376 142.083 139.896 141.99 139.642C141.936 139.469 141.783 139.396 141.53 139.422C141.316 139.462 141.143 139.536 141.01 139.642C140.743 139.869 140.41 140.436 140.01 141.342C139.61 142.222 139.283 142.762 139.03 142.962L138.97 141.282C138.943 140.562 138.916 140.016 138.89 139.642C138.663 139.442 138.43 139.409 138.19 139.542C137.99 139.662 137.856 139.849 137.79 140.102C137.736 140.276 137.723 140.582 137.75 141.022C137.776 142.236 137.703 144.382 137.53 147.462C137.356 150.462 137.296 152.642 137.35 154.002C137.35 154.202 137.57 154.296 138.01 154.282C138.45 154.269 138.67 154.149 138.67 153.922C138.67 150.229 138.743 147.949 138.89 147.082C139.716 149.096 140.383 151.016 140.89 152.842C141.023 153.322 141.223 153.642 141.49 153.802C141.623 153.909 141.81 153.929 142.05 153.862C142.29 153.796 142.436 153.662 142.49 153.462C142.596 153.036 142.41 152.222 141.93 151.022C140.943 148.356 140.123 146.442 139.47 145.282ZM145.249 153.962C145.782 152.696 146.382 150.136 147.049 146.282L146.709 152.862C146.696 153.289 146.742 153.649 146.849 153.942C146.982 154.276 147.176 154.402 147.429 154.322C147.842 154.429 148.056 154.102 148.069 153.342C148.056 152.956 148.082 152.176 148.149 151.002C148.202 149.949 148.216 149.122 148.189 148.522C148.176 147.989 148.176 146.509 148.189 144.082C148.202 142.336 148.136 140.969 147.989 139.982C147.936 139.676 147.762 139.576 147.469 139.682C147.162 139.789 146.969 140.129 146.889 140.702C146.902 140.662 146.842 141.022 146.709 141.782C146.602 142.382 146.549 142.776 146.549 142.962C146.522 144.336 146.129 146.069 145.369 148.162C145.142 148.962 145.049 149.316 145.089 149.222L145.149 142.502C145.176 141.476 145.169 140.822 145.129 140.542C145.022 139.849 144.749 139.496 144.309 139.482C144.029 139.482 143.869 139.696 143.829 140.122L143.849 141.382L143.809 142.982C143.769 143.849 143.762 145.189 143.789 147.002C143.816 149.056 143.822 150.389 143.809 151.002C143.782 152.549 143.829 153.589 143.949 154.122C144.069 154.336 144.249 154.442 144.489 154.442C144.769 154.456 145.022 154.296 145.249 153.962Z" fill="black"/>
<rect x="10.7538" width="119.126" height="124.132" fill="#94070A"/>
<rect x="149.901" y="49.0521" width="119.126" height="75.0796" fill="white"/>
<path d="M48.1788 103.305V106.035H49.1728V104.201H54.2128L50.1808 113.105H51.2728L55.3748 104.019V103.305H48.1788ZM58.0049 112.209L61.3369 108.933C62.6529 107.645 62.9469 106.805 62.9469 105.867C62.9469 104.229 61.6869 103.221 59.6989 103.221C58.2009 103.221 56.9829 103.725 56.2269 104.621L56.9409 105.237C57.5849 104.495 58.4669 104.145 59.6149 104.145C61.1129 104.145 61.9109 104.845 61.9109 105.979C61.9109 106.651 61.7009 107.309 60.5949 108.401L56.5209 112.391V113.105H63.3949V112.209H58.0049ZM72.23 113.189C74.498 113.189 76.15 111.327 76.15 108.205C76.15 105.083 74.498 103.221 72.23 103.221C69.962 103.221 68.324 105.083 68.324 108.205C68.324 111.327 69.962 113.189 72.23 113.189ZM72.23 112.265C70.522 112.265 69.346 110.823 69.346 108.205C69.346 105.587 70.522 104.145 72.23 104.145C73.938 104.145 75.114 105.587 75.114 108.205C75.114 110.823 73.938 112.265 72.23 112.265ZM80.7888 107.505L83.5608 104.019V103.305H77.2608V104.201H82.2728L79.5568 107.603V108.345H80.2568C82.0768 108.345 82.9028 109.115 82.9028 110.291C82.9028 111.509 82.0068 112.265 80.3828 112.265C79.1088 112.265 77.9748 111.789 77.3448 111.131L76.8548 111.929C77.6108 112.699 78.9688 113.189 80.3828 113.189C82.7488 113.189 83.9388 111.929 83.9388 110.291C83.9388 108.723 82.8888 107.617 80.7888 107.505ZM89.4192 107.239C88.0612 107.239 86.9132 107.841 86.4232 108.919C86.3952 108.625 86.3812 108.345 86.3812 108.121C86.3812 105.461 87.7392 104.103 89.8532 104.103C90.5812 104.103 91.2532 104.229 91.7572 104.565L92.1632 103.753C91.5472 103.375 90.7212 103.221 89.8392 103.221C87.1792 103.221 85.3592 104.957 85.3592 108.289C85.3592 111.383 86.7732 113.189 89.3772 113.189C91.2812 113.189 92.7232 112.013 92.7232 110.179C92.7232 108.387 91.3652 107.239 89.4192 107.239ZM89.3352 112.335C87.6412 112.335 86.7452 111.313 86.7452 110.235C86.7452 109.017 87.7672 108.093 89.2652 108.093C90.7772 108.093 91.7292 108.919 91.7292 110.207C91.7292 111.509 90.7492 112.335 89.3352 112.335Z" fill="white"/>
<path d="M192.452 107.323H191.192L191.528 104.201H196.008V103.305H190.646L190.142 108.219H192.228C194.72 108.219 195.504 109.003 195.504 110.263C195.504 111.453 194.622 112.265 192.956 112.265C191.696 112.265 190.576 111.789 189.946 111.131L189.456 111.929C190.212 112.699 191.556 113.189 192.97 113.189C195.364 113.189 196.526 111.887 196.526 110.221C196.526 108.485 195.406 107.323 192.452 107.323ZM199.039 112.209L202.371 108.933C203.687 107.645 203.981 106.805 203.981 105.867C203.981 104.229 202.721 103.221 200.733 103.221C199.235 103.221 198.017 103.725 197.261 104.621L197.975 105.237C198.619 104.495 199.501 104.145 200.649 104.145C202.147 104.145 202.945 104.845 202.945 105.979C202.945 106.651 202.735 107.309 201.629 108.401L197.555 112.391V113.105H204.429V112.209H199.039ZM208.756 103.305V104.201H211.066V113.105H212.074V103.305H208.756ZM217.749 107.505L220.521 104.019V103.305H214.221V104.201H219.233L216.517 107.603V108.345H217.217C219.037 108.345 219.863 109.115 219.863 110.291C219.863 111.509 218.967 112.265 217.343 112.265C216.069 112.265 214.935 111.789 214.305 111.131L213.815 111.929C214.571 112.699 215.929 113.189 217.343 113.189C219.709 113.189 220.899 111.929 220.899 110.291C220.899 108.723 219.849 107.617 217.749 107.505ZM225.583 107.505L228.355 104.019V103.305H222.055V104.201H227.067L224.351 107.603V108.345H225.051C226.871 108.345 227.697 109.115 227.697 110.291C227.697 111.509 226.801 112.265 225.177 112.265C223.903 112.265 222.769 111.789 222.139 111.131L221.649 111.929C222.405 112.699 223.763 113.189 225.177 113.189C227.543 113.189 228.733 111.929 228.733 110.291C228.733 108.723 227.683 107.617 225.583 107.505Z" fill="#94070A"/>
<rect x="0.743164" y="122.13" width="280.297" height="2.00212" fill="black"/>
</svg>
