<svg width="181" height="159" viewBox="0 0 181 159" fill="none" xmlns="http://www.w3.org/2000/svg">
<path d="M35.4026 141.002C35.4159 141.482 35.3892 142.596 35.3226 144.342C35.2826 145.276 35.3159 146.809 35.4226 148.942C35.5159 150.996 35.5359 152.529 35.4826 153.542C35.4826 153.782 35.5626 153.942 35.7226 154.022C36.0426 154.182 36.2892 154.156 36.4626 153.942C36.7426 153.662 36.8692 152.989 36.8426 151.922L36.7426 146.882C36.6892 144.669 36.6626 143.022 36.6626 141.942L36.6826 141.182C36.8026 140.076 36.6492 139.522 36.2226 139.522C35.7559 139.509 35.1159 139.536 34.3026 139.602L32.9826 139.722C32.5959 139.722 32.3959 140.436 32.3826 141.862C32.3692 142.302 32.3826 142.869 32.4226 143.562L32.4826 144.862C32.5492 145.782 32.5826 147.802 32.5826 150.922C32.5826 151.136 32.5692 151.469 32.5426 151.922C32.5026 152.416 32.4826 152.756 32.4826 152.942C32.4559 153.689 32.5559 154.082 32.7826 154.122C33.4226 154.469 33.7826 153.802 33.8626 152.122C33.9559 150.896 33.9559 149.056 33.8626 146.602C33.7692 144.149 33.7692 142.336 33.8626 141.162C33.8359 141.042 34.2692 140.996 35.1626 141.022C35.2426 141.009 35.3226 141.002 35.4026 141.002ZM42.9434 142.342C42.9434 141.436 42.8234 140.789 42.5834 140.402C42.0367 139.602 41.2234 139.296 40.1434 139.482C39.7167 139.562 39.35 139.869 39.0434 140.402C38.79 140.856 38.6634 141.896 38.6634 143.522V146.022C38.6367 146.542 38.61 147.402 38.5834 148.602C38.57 149.642 38.55 150.416 38.5234 150.922C38.4967 151.202 38.5167 151.569 38.5834 152.022C38.61 152.329 38.7567 152.696 39.0234 153.122C39.45 153.869 40.11 154.196 41.0034 154.102C41.47 154.062 41.8767 153.769 42.2234 153.222C42.5034 152.782 42.67 151.989 42.7234 150.842C42.7234 150.469 42.75 150.002 42.8034 149.442L42.9034 148.182C42.97 147.329 42.9967 146.416 42.9834 145.442L42.9434 142.342ZM41.4634 141.062C41.61 141.396 41.71 141.809 41.7634 142.302C42.0167 145.222 41.93 147.822 41.5034 150.102C41.4767 150.236 41.4567 150.469 41.4434 150.802C41.43 151.229 41.4167 151.516 41.4034 151.662C41.35 152.342 41.1634 152.682 40.8434 152.682C40.1634 152.669 39.7834 152.302 39.7034 151.582C39.6767 151.342 39.6767 150.989 39.7034 150.522C39.7434 149.909 39.7634 149.516 39.7634 149.342L39.8034 146.662C39.8167 145.502 39.81 144.569 39.7834 143.862C39.7434 142.796 39.7434 142.149 39.7834 141.922C39.8634 141.309 40.11 140.922 40.5234 140.762C40.6834 140.682 40.87 140.682 41.0834 140.762C41.2567 140.842 41.3834 140.942 41.4634 141.062ZM47.0084 145.282C47.3817 144.629 48.075 143.229 49.0884 141.082C49.475 140.376 49.6217 139.896 49.5284 139.642C49.475 139.469 49.3217 139.396 49.0684 139.422C48.855 139.462 48.6817 139.536 48.5484 139.642C48.2817 139.869 47.9484 140.436 47.5484 141.342C47.1484 142.222 46.8217 142.762 46.5684 142.962L46.5084 141.282C46.4817 140.562 46.455 140.016 46.4284 139.642C46.2017 139.442 45.9684 139.409 45.7284 139.542C45.5284 139.662 45.395 139.849 45.3284 140.102C45.275 140.276 45.2617 140.582 45.2884 141.022C45.315 142.236 45.2417 144.382 45.0684 147.462C44.895 150.462 44.835 152.642 44.8884 154.002C44.8884 154.202 45.1084 154.296 45.5484 154.282C45.9884 154.269 46.2084 154.149 46.2084 153.922C46.2084 150.229 46.2817 147.949 46.4284 147.082C47.255 149.096 47.9217 151.016 48.4284 152.842C48.5617 153.322 48.7617 153.642 49.0284 153.802C49.1617 153.909 49.3484 153.929 49.5884 153.862C49.8284 153.796 49.975 153.662 50.0284 153.462C50.135 153.036 49.9484 152.222 49.4684 151.022C48.4817 148.356 47.6617 146.442 47.0084 145.282ZM53.8477 139.602C53.5011 139.362 53.2011 139.582 52.9477 140.262C52.8277 140.596 52.6877 141.209 52.5277 142.102L51.8877 144.922C51.5011 146.616 51.2877 147.616 51.2477 147.922C51.2077 148.229 51.1077 148.842 50.9477 149.762C50.8144 150.536 50.7344 151.129 50.7077 151.542C50.6144 152.836 50.6744 153.649 50.8877 153.982C51.0744 154.209 51.3877 154.229 51.8277 154.042C51.8811 154.042 52.0211 153.056 52.2477 151.082C52.3811 149.922 52.5611 148.962 52.7877 148.202C52.8544 148.189 53.0677 148.182 53.4277 148.182C53.6944 148.182 53.8877 148.162 54.0077 148.122C53.9811 148.042 54.2277 149.182 54.7477 151.542C55.0277 152.796 55.1811 153.449 55.2077 153.502C55.4344 154.022 55.8411 154.102 56.4277 153.742C56.5477 153.382 56.3811 152.309 55.9277 150.522C55.6344 149.309 55.3411 147.749 55.0477 145.842L54.3477 141.282C54.1744 140.269 54.0077 139.709 53.8477 139.602ZM53.2677 145.062C53.3477 144.689 53.4011 144.509 53.4277 144.522C53.6144 144.602 53.7077 145.282 53.7077 146.562C53.6411 146.602 53.3944 146.622 52.9677 146.622C53.1144 145.809 53.2144 145.289 53.2677 145.062ZM60.308 139.242C59.028 139.442 58.188 140.336 57.788 141.922L57.608 142.482C57.5814 142.949 57.728 143.276 58.048 143.462C58.4214 143.689 58.7014 143.589 58.888 143.162C58.9547 143.029 59.0214 142.829 59.088 142.562C59.1547 142.282 59.208 142.102 59.248 142.022C59.6214 141.236 60.0414 140.842 60.508 140.842C61.0147 140.842 61.348 141.089 61.508 141.582C61.668 142.236 61.548 143.122 61.148 144.242C60.948 144.856 60.568 145.356 60.008 145.742C59.3147 146.196 58.9547 146.442 58.928 146.482C58.7947 146.789 58.808 147.096 58.968 147.402C59.1147 147.642 59.3014 147.809 59.528 147.902C59.728 147.982 60.068 147.976 60.548 147.882C60.988 147.776 61.268 147.776 61.388 147.882C61.588 148.029 61.7147 148.449 61.768 149.142C61.848 149.676 61.868 150.196 61.828 150.702C61.7347 151.676 61.5347 152.236 61.228 152.382C60.8014 152.569 60.4747 152.596 60.248 152.462C60.168 152.409 60.0614 152.316 59.928 152.182L59.508 151.762C59.2947 151.576 59.068 151.542 58.828 151.662C58.5747 151.796 58.428 152.069 58.388 152.482C58.3614 152.802 58.4414 153.042 58.628 153.202C59.2547 153.816 60.028 154.089 60.948 154.022C61.6014 153.956 62.128 153.722 62.528 153.322C62.9014 152.882 63.1414 152.296 63.248 151.562C63.528 149.909 63.3347 148.449 62.668 147.182C62.6414 147.129 62.5014 146.976 62.248 146.722C62.0214 146.496 61.908 146.309 61.908 146.162C61.908 146.016 62.0147 145.782 62.228 145.462C62.4814 145.102 62.6214 144.842 62.648 144.682C62.888 143.536 63.008 142.982 63.008 143.022C63.1014 141.702 62.8814 140.756 62.348 140.182C61.6814 139.462 61.0014 139.149 60.308 139.242ZM67.7235 139.602C67.3768 139.362 67.0768 139.582 66.8235 140.262C66.7035 140.596 66.5635 141.209 66.4035 142.102L65.7635 144.922C65.3768 146.616 65.1635 147.616 65.1235 147.922C65.0835 148.229 64.9835 148.842 64.8235 149.762C64.6902 150.536 64.6102 151.129 64.5835 151.542C64.4902 152.836 64.5502 153.649 64.7635 153.982C64.9502 154.209 65.2635 154.229 65.7035 154.042C65.7568 154.042 65.8968 153.056 66.1235 151.082C66.2568 149.922 66.4368 148.962 66.6635 148.202C66.7302 148.189 66.9435 148.182 67.3035 148.182C67.5702 148.182 67.7635 148.162 67.8835 148.122C67.8568 148.042 68.1035 149.182 68.6235 151.542C68.9035 152.796 69.0568 153.449 69.0835 153.502C69.3102 154.022 69.7168 154.102 70.3035 153.742C70.4235 153.382 70.2568 152.309 69.8035 150.522C69.5102 149.309 69.2168 147.749 68.9235 145.842L68.2235 141.282C68.0502 140.269 67.8835 139.709 67.7235 139.602ZM67.1435 145.062C67.2235 144.689 67.2768 144.509 67.3035 144.522C67.4902 144.602 67.5835 145.282 67.5835 146.562C67.5168 146.602 67.2702 146.622 66.8435 146.622C66.9902 145.809 67.0902 145.289 67.1435 145.062ZM76.4838 140.882C76.6972 140.882 76.7505 140.662 76.6438 140.222C76.5505 139.769 76.3105 139.509 75.9238 139.442C74.4572 139.376 73.5838 139.349 73.3038 139.362C71.9838 139.416 71.3105 139.682 71.2838 140.162C71.2572 140.562 71.5105 140.842 72.0438 141.002C72.9238 141.216 73.3638 141.242 73.3638 141.082C73.1905 143.789 73.1038 146.569 73.1038 149.422L73.1238 150.282C73.1505 150.656 73.1572 150.962 73.1438 151.202C73.0772 152.909 73.2572 153.856 73.6838 154.042C74.1905 154.282 74.4905 154.089 74.5838 153.462C74.6105 153.249 74.6172 152.956 74.6038 152.582V151.742C74.6572 150.796 74.6705 148.922 74.6438 146.122C74.6305 143.802 74.7105 142.082 74.8838 140.962C74.8838 140.856 75.0905 140.829 75.5038 140.882C75.9972 140.949 76.3238 140.949 76.4838 140.882ZM79.1051 141.122C79.3317 140.962 79.7717 140.869 80.4251 140.842C80.9717 140.816 81.3317 140.656 81.5051 140.362C81.6517 140.096 81.6384 139.876 81.4651 139.702C81.2784 139.542 81.0051 139.489 80.6451 139.542C79.1384 139.796 78.3451 139.942 78.2651 139.982C77.8251 140.209 77.6451 140.802 77.7251 141.762C77.8584 143.016 77.9317 143.889 77.9451 144.382C78.0784 147.489 78.2584 150.409 78.4851 153.142C78.4851 153.822 78.6917 154.162 79.1051 154.162C79.9984 154.096 80.8851 154.016 81.7651 153.922C81.8984 153.922 82.0117 153.782 82.1051 153.502C82.1984 153.236 82.1784 153.062 82.0451 152.982C81.5117 152.716 80.8251 152.696 79.9851 152.922C79.8917 152.269 79.8117 151.356 79.7451 150.182C79.6651 148.836 79.5984 147.909 79.5451 147.402C80.0517 147.229 80.3184 147.022 80.3451 146.782C80.4117 146.422 80.0984 146.176 79.4051 146.042C79.4184 145.496 79.3717 144.669 79.2651 143.562C79.1584 142.469 79.1051 141.656 79.1051 141.122ZM83.4446 153.822C83.6446 153.916 83.8713 153.976 84.1246 154.002C84.1913 154.016 84.2779 154.022 84.3846 154.022C84.9446 153.956 85.3313 153.549 85.5446 152.802C85.7179 152.269 85.7913 151.429 85.7646 150.282C85.7379 149.549 85.6913 148.169 85.6246 146.142C85.5713 144.289 85.5379 142.896 85.5246 141.962V140.762C86.2046 140.829 86.5446 140.909 86.5446 141.002C86.6913 142.176 86.7913 143.989 86.8446 146.442C86.7646 148.882 86.7779 150.836 86.8846 152.302C87.0046 153.756 87.3779 154.309 88.0046 153.962C88.2179 153.922 88.2913 153.522 88.2246 152.762C88.0246 148.309 87.9313 145.622 87.9446 144.702L87.9246 143.402C87.9113 142.709 87.8913 142.142 87.8646 141.702C87.9046 140.276 87.7313 139.562 87.3446 139.562L85.8046 139.442C84.9779 139.362 84.3379 139.336 83.8846 139.362C83.4446 139.362 83.3046 139.689 83.4646 140.342C83.5046 140.462 83.7779 140.562 84.2846 140.642C84.2713 141.042 84.2646 141.542 84.2646 142.142L84.3446 144.562C84.3713 145.576 84.3779 146.336 84.3646 146.842L84.4246 148.182C84.4646 148.929 84.4779 149.562 84.4646 150.082C84.4646 151.602 84.3579 152.442 84.1446 152.602L83.9246 152.582C83.4446 152.462 83.1579 152.609 83.0646 153.022C82.9713 153.436 83.0979 153.702 83.4446 153.822ZM93.4463 147.342C93.6997 148.822 93.6997 150.276 93.4463 151.702C93.393 151.969 93.2463 152.249 93.0063 152.542C92.7263 152.862 92.4663 152.989 92.2263 152.922C92.0663 152.856 91.9663 152.256 91.9263 151.122L91.8463 148.122C91.833 147.229 91.813 146.596 91.7863 146.222C91.7863 146.169 91.8197 146.129 91.8863 146.102C92.7397 145.689 93.2597 146.102 93.4463 147.342ZM90.5463 139.022C90.1997 139.129 90.033 139.429 90.0463 139.922C90.0463 140.082 90.0863 140.702 90.1663 141.782C90.2463 142.702 90.2863 143.289 90.2863 143.542L90.3263 145.222C90.353 145.942 90.3663 146.442 90.3663 146.722C90.4863 149.936 90.553 151.629 90.5663 151.802C90.593 152.909 90.753 153.569 91.0463 153.782C91.2863 153.956 91.6463 154.076 92.1263 154.142C92.633 154.209 93.033 154.169 93.3263 154.022C94.113 153.702 94.633 152.636 94.8863 150.822C95.0197 149.569 94.9463 148.162 94.6663 146.602C94.1463 144.962 93.1797 144.442 91.7663 145.042C91.7663 144.749 91.733 143.662 91.6663 141.782C91.6397 141.422 91.6197 140.876 91.6063 140.142C91.593 139.409 91.4397 139.042 91.1463 139.042H90.8863L90.5463 139.022ZM106.131 142.342C106.131 141.436 106.011 140.789 105.771 140.402C105.224 139.602 104.411 139.296 103.331 139.482C102.904 139.562 102.538 139.869 102.231 140.402C101.978 140.856 101.851 141.896 101.851 143.522V146.022C101.824 146.542 101.798 147.402 101.771 148.602C101.758 149.642 101.738 150.416 101.711 150.922C101.684 151.202 101.704 151.569 101.771 152.022C101.798 152.329 101.944 152.696 102.211 153.122C102.638 153.869 103.298 154.196 104.191 154.102C104.658 154.062 105.064 153.769 105.411 153.222C105.691 152.782 105.858 151.989 105.911 150.842C105.911 150.469 105.938 150.002 105.991 149.442L106.091 148.182C106.158 147.329 106.184 146.416 106.171 145.442L106.131 142.342ZM104.651 141.062C104.798 141.396 104.898 141.809 104.951 142.302C105.204 145.222 105.118 147.822 104.691 150.102C104.664 150.236 104.644 150.469 104.631 150.802C104.618 151.229 104.604 151.516 104.591 151.662C104.538 152.342 104.351 152.682 104.031 152.682C103.351 152.669 102.971 152.302 102.891 151.582C102.864 151.342 102.864 150.989 102.891 150.522C102.931 149.909 102.951 149.516 102.951 149.342L102.991 146.662C103.004 145.502 102.998 144.569 102.971 143.862C102.931 142.796 102.931 142.149 102.971 141.922C103.051 141.309 103.298 140.922 103.711 140.762C103.871 140.682 104.058 140.682 104.271 140.762C104.444 140.842 104.571 140.942 104.651 141.062ZM112.916 140.882C113.129 140.882 113.183 140.662 113.076 140.222C112.983 139.769 112.743 139.509 112.356 139.442C110.889 139.376 110.016 139.349 109.736 139.362C108.416 139.416 107.743 139.682 107.716 140.162C107.689 140.562 107.943 140.842 108.476 141.002C109.356 141.216 109.796 141.242 109.796 141.082C109.623 143.789 109.536 146.569 109.536 149.422L109.556 150.282C109.583 150.656 109.589 150.962 109.576 151.202C109.509 152.909 109.689 153.856 110.116 154.042C110.623 154.282 110.923 154.089 111.016 153.462C111.043 153.249 111.049 152.956 111.036 152.582V151.742C111.089 150.796 111.103 148.922 111.076 146.122C111.063 143.802 111.143 142.082 111.316 140.962C111.316 140.856 111.523 140.829 111.936 140.882C112.429 140.949 112.756 140.949 112.916 140.882ZM116.577 145.282C116.95 144.629 117.644 143.229 118.657 141.082C119.044 140.376 119.19 139.896 119.097 139.642C119.044 139.469 118.89 139.396 118.637 139.422C118.424 139.462 118.25 139.536 118.117 139.642C117.85 139.869 117.517 140.436 117.117 141.342C116.717 142.222 116.39 142.762 116.137 142.962L116.077 141.282C116.05 140.562 116.024 140.016 115.997 139.642C115.77 139.442 115.537 139.409 115.297 139.542C115.097 139.662 114.964 139.849 114.897 140.102C114.844 140.276 114.83 140.582 114.857 141.022C114.884 142.236 114.81 144.382 114.637 147.462C114.464 150.462 114.404 152.642 114.457 154.002C114.457 154.202 114.677 154.296 115.117 154.282C115.557 154.269 115.777 154.149 115.777 153.922C115.777 150.229 115.85 147.949 115.997 147.082C116.824 149.096 117.49 151.016 117.997 152.842C118.13 153.322 118.33 153.642 118.597 153.802C118.73 153.909 118.917 153.929 119.157 153.862C119.397 153.796 119.544 153.662 119.597 153.462C119.704 153.036 119.517 152.222 119.037 151.022C118.05 148.356 117.23 146.442 116.577 145.282ZM123.416 139.602C123.07 139.362 122.77 139.582 122.516 140.262C122.396 140.596 122.256 141.209 122.096 142.102L121.456 144.922C121.07 146.616 120.856 147.616 120.816 147.922C120.776 148.229 120.676 148.842 120.516 149.762C120.383 150.536 120.303 151.129 120.276 151.542C120.183 152.836 120.243 153.649 120.456 153.982C120.643 154.209 120.956 154.229 121.396 154.042C121.45 154.042 121.59 153.056 121.816 151.082C121.95 149.922 122.13 148.962 122.356 148.202C122.423 148.189 122.636 148.182 122.996 148.182C123.263 148.182 123.456 148.162 123.576 148.122C123.55 148.042 123.796 149.182 124.316 151.542C124.596 152.796 124.75 153.449 124.776 153.502C125.003 154.022 125.41 154.102 125.996 153.742C126.116 153.382 125.95 152.309 125.496 150.522C125.203 149.309 124.91 147.749 124.616 145.842L123.916 141.282C123.743 140.269 123.576 139.709 123.416 139.602ZM122.836 145.062C122.916 144.689 122.97 144.509 122.996 144.522C123.183 144.602 123.276 145.282 123.276 146.562C123.21 146.602 122.963 146.622 122.536 146.622C122.683 145.809 122.783 145.289 122.836 145.062ZM129.877 139.242C128.597 139.442 127.757 140.336 127.357 141.922L127.177 142.482C127.15 142.949 127.297 143.276 127.617 143.462C127.99 143.689 128.27 143.589 128.457 143.162C128.523 143.029 128.59 142.829 128.657 142.562C128.723 142.282 128.777 142.102 128.817 142.022C129.19 141.236 129.61 140.842 130.077 140.842C130.583 140.842 130.917 141.089 131.077 141.582C131.237 142.236 131.117 143.122 130.717 144.242C130.517 144.856 130.137 145.356 129.577 145.742C128.883 146.196 128.523 146.442 128.497 146.482C128.363 146.789 128.377 147.096 128.537 147.402C128.683 147.642 128.87 147.809 129.097 147.902C129.297 147.982 129.637 147.976 130.117 147.882C130.557 147.776 130.837 147.776 130.957 147.882C131.157 148.029 131.283 148.449 131.337 149.142C131.417 149.676 131.437 150.196 131.397 150.702C131.303 151.676 131.103 152.236 130.797 152.382C130.37 152.569 130.043 152.596 129.817 152.462C129.737 152.409 129.63 152.316 129.497 152.182L129.077 151.762C128.863 151.576 128.637 151.542 128.397 151.662C128.143 151.796 127.997 152.069 127.957 152.482C127.93 152.802 128.01 153.042 128.197 153.202C128.823 153.816 129.597 154.089 130.517 154.022C131.17 153.956 131.697 153.722 132.097 153.322C132.47 152.882 132.71 152.296 132.817 151.562C133.097 149.909 132.903 148.449 132.237 147.182C132.21 147.129 132.07 146.976 131.817 146.722C131.59 146.496 131.477 146.309 131.477 146.162C131.477 146.016 131.583 145.782 131.797 145.462C132.05 145.102 132.19 144.842 132.217 144.682C132.457 143.536 132.577 142.982 132.577 143.022C132.67 141.702 132.45 140.756 131.917 140.182C131.25 139.462 130.57 139.149 129.877 139.242ZM139.072 142.342C139.072 141.436 138.952 140.789 138.712 140.402C138.166 139.602 137.352 139.296 136.272 139.482C135.846 139.562 135.479 139.869 135.172 140.402C134.919 140.856 134.792 141.896 134.792 143.522V146.022C134.766 146.542 134.739 147.402 134.712 148.602C134.699 149.642 134.679 150.416 134.652 150.922C134.626 151.202 134.646 151.569 134.712 152.022C134.739 152.329 134.886 152.696 135.152 153.122C135.579 153.869 136.239 154.196 137.132 154.102C137.599 154.062 138.006 153.769 138.352 153.222C138.632 152.782 138.799 151.989 138.852 150.842C138.852 150.469 138.879 150.002 138.932 149.442L139.032 148.182C139.099 147.329 139.126 146.416 139.112 145.442L139.072 142.342ZM137.592 141.062C137.739 141.396 137.839 141.809 137.892 142.302C138.146 145.222 138.059 147.822 137.632 150.102C137.606 150.236 137.586 150.469 137.572 150.802C137.559 151.229 137.546 151.516 137.532 151.662C137.479 152.342 137.292 152.682 136.972 152.682C136.292 152.669 135.912 152.302 135.832 151.582C135.806 151.342 135.806 150.989 135.832 150.522C135.872 149.909 135.892 149.516 135.892 149.342L135.932 146.662C135.946 145.502 135.939 144.569 135.912 143.862C135.872 142.796 135.872 142.149 135.912 141.922C135.992 141.309 136.239 140.922 136.652 140.762C136.812 140.682 136.999 140.682 137.212 140.762C137.386 140.842 137.512 140.942 137.592 141.062ZM144.337 144.422C144.937 144.009 145.351 143.462 145.577 142.782C145.817 142.062 145.784 141.356 145.477 140.662C145.344 140.369 145.064 140.022 144.637 139.622C144.051 139.129 143.324 138.936 142.457 139.042C141.551 139.162 141.064 139.529 140.997 140.142C140.957 140.529 140.964 141.076 141.017 141.782C141.097 142.702 141.137 143.289 141.137 143.542L141.177 145.222C141.191 145.942 141.204 146.442 141.217 146.722C141.337 149.936 141.404 151.629 141.417 151.802C141.444 152.909 141.604 153.569 141.897 153.782C142.137 153.956 142.491 154.076 142.957 154.142C143.477 154.209 143.884 154.169 144.177 154.022C144.964 153.702 145.484 152.636 145.737 150.822C145.871 149.569 145.724 148.182 145.297 146.662C145.137 145.996 144.817 145.249 144.337 144.422ZM142.717 145.022C143.491 145.116 144.017 145.889 144.297 147.342C144.551 148.822 144.551 150.276 144.297 151.702C144.244 151.969 144.097 152.249 143.857 152.542C143.577 152.862 143.317 152.989 143.077 152.922C142.917 152.856 142.817 152.256 142.777 151.122L142.697 148.122C142.671 146.909 142.644 145.916 142.617 145.142C142.617 145.089 142.651 145.049 142.717 145.022ZM142.617 143.502C142.604 143.209 142.571 142.636 142.517 141.782C142.464 141.076 142.444 140.529 142.457 140.142C142.937 140.049 143.364 140.129 143.737 140.382C144.111 140.622 144.331 140.949 144.397 141.362C144.517 141.976 144.397 142.496 144.037 142.922C143.691 143.349 143.217 143.542 142.617 143.502Z" fill="black"/>
<rect x="11.4362" y="27.0287" width="68.0722" height="97.103" fill="#94070A"/>
<rect x="99.5297" width="68.0722" height="124.132" fill="white"/>
<path d="M23.9593 112.209L27.2913 108.933C28.6073 107.645 28.9013 106.805 28.9013 105.867C28.9013 104.229 27.6413 103.221 25.6533 103.221C24.1553 103.221 22.9373 103.725 22.1813 104.621L22.8953 105.237C23.5393 104.495 24.4213 104.145 25.5693 104.145C27.0673 104.145 27.8653 104.845 27.8653 105.979C27.8653 106.651 27.6553 107.309 26.5493 108.401L22.4753 112.391V113.105H29.3493V112.209H23.9593ZM33.9463 107.505L36.7183 104.019V103.305H30.4183V104.201H35.4303L32.7143 107.603V108.345H33.4143C35.2343 108.345 36.0603 109.115 36.0603 110.291C36.0603 111.509 35.1643 112.265 33.5403 112.265C32.2663 112.265 31.1323 111.789 30.5023 111.131L30.0123 111.929C30.7683 112.699 32.1263 113.189 33.5403 113.189C35.9063 113.189 37.0963 111.929 37.0963 110.291C37.0963 108.723 36.0463 107.617 33.9463 107.505ZM39.2867 111.649C38.8667 111.649 38.5447 111.971 38.5447 112.405C38.5447 112.769 38.7547 113.035 39.0487 113.119L38.5727 115.149H39.2447L39.8327 113.217C39.9727 112.825 40.0287 112.643 40.0287 112.405C40.0287 111.985 39.7207 111.649 39.2867 111.649ZM49.6357 109.633H47.6757V107.365H46.6957V109.633H42.4397L47.4517 103.305H46.3317L41.1377 109.801V110.529H46.6677V113.105H47.6757V110.529H49.6357V109.633ZM49.5843 103.305V106.035H50.5783V104.201H55.6183L51.5863 113.105H52.6783L56.7803 104.019V103.305H49.5843ZM60.2078 108.555C61.5098 108.555 62.4198 107.505 62.4198 105.895C62.4198 104.285 61.5098 103.235 60.2078 103.235C58.8918 103.235 57.9958 104.299 57.9958 105.895C57.9958 107.491 58.8918 108.555 60.2078 108.555ZM59.4518 113.105H60.2778L66.9698 103.305H66.1438L59.4518 113.105ZM60.2078 107.925C59.2838 107.925 58.6958 107.155 58.6958 105.895C58.6958 104.635 59.2838 103.865 60.2078 103.865C61.1178 103.865 61.7198 104.621 61.7198 105.895C61.7198 107.169 61.1178 107.925 60.2078 107.925ZM66.2138 113.175C67.5298 113.175 68.4258 112.111 68.4258 110.515C68.4258 108.919 67.5298 107.855 66.2138 107.855C64.9118 107.855 64.0018 108.919 64.0018 110.515C64.0018 112.111 64.9118 113.175 66.2138 113.175ZM66.2138 112.545C65.3038 112.545 64.7018 111.789 64.7018 110.515C64.7018 109.241 65.3038 108.485 66.2138 108.485C67.1378 108.485 67.7258 109.255 67.7258 110.515C67.7258 111.775 67.1378 112.545 66.2138 112.545Z" fill="white"/>
<path d="M115.982 112.209L119.314 108.933C120.63 107.645 120.924 106.805 120.924 105.867C120.924 104.229 119.664 103.221 117.676 103.221C116.178 103.221 114.96 103.725 114.204 104.621L114.918 105.237C115.562 104.495 116.444 104.145 117.592 104.145C119.09 104.145 119.888 104.845 119.888 105.979C119.888 106.651 119.678 107.309 118.572 108.401L114.498 112.391V113.105H121.372V112.209H115.982ZM125.969 107.505L128.741 104.019V103.305H122.441V104.201H127.453L124.737 107.603V108.345H125.437C127.257 108.345 128.083 109.115 128.083 110.291C128.083 111.509 127.187 112.265 125.563 112.265C124.289 112.265 123.155 111.789 122.525 111.131L122.035 111.929C122.791 112.699 124.149 113.189 125.563 113.189C127.929 113.189 129.119 111.929 129.119 110.291C129.119 108.723 128.069 107.617 125.969 107.505ZM131.309 111.649C130.889 111.649 130.567 111.971 130.567 112.405C130.567 112.769 130.777 113.035 131.071 113.119L130.595 115.149H131.267L131.855 113.217C131.995 112.825 132.051 112.643 132.051 112.405C132.051 111.985 131.743 111.649 131.309 111.649ZM136.082 107.323H134.822L135.158 104.201H139.638V103.305H134.276L133.772 108.219H135.858C138.35 108.219 139.134 109.003 139.134 110.263C139.134 111.453 138.252 112.265 136.586 112.265C135.326 112.265 134.206 111.789 133.576 111.131L133.086 111.929C133.842 112.699 135.186 113.189 136.6 113.189C138.994 113.189 140.156 111.887 140.156 110.221C140.156 108.485 139.036 107.323 136.082 107.323ZM143.371 108.555C144.673 108.555 145.583 107.505 145.583 105.895C145.583 104.285 144.673 103.235 143.371 103.235C142.055 103.235 141.159 104.299 141.159 105.895C141.159 107.491 142.055 108.555 143.371 108.555ZM142.615 113.105H143.441L150.133 103.305H149.307L142.615 113.105ZM143.371 107.925C142.447 107.925 141.859 107.155 141.859 105.895C141.859 104.635 142.447 103.865 143.371 103.865C144.281 103.865 144.883 104.621 144.883 105.895C144.883 107.169 144.281 107.925 143.371 107.925ZM149.377 113.175C150.693 113.175 151.589 112.111 151.589 110.515C151.589 108.919 150.693 107.855 149.377 107.855C148.075 107.855 147.165 108.919 147.165 110.515C147.165 112.111 148.075 113.175 149.377 113.175ZM149.377 112.545C148.467 112.545 147.865 111.789 147.865 110.515C147.865 109.241 148.467 108.485 149.377 108.485C150.301 108.485 150.889 109.255 150.889 110.515C150.889 111.775 150.301 112.545 149.377 112.545Z" fill="#94070A"/>
<rect x="0.424683" y="122.13" width="180.191" height="2.00212" fill="black"/>
</svg>
