<svg width="281" height="159" viewBox="0 0 281 159" fill="none" xmlns="http://www.w3.org/2000/svg">
<path d="M126.01 141.002C126.023 141.482 125.997 142.596 125.93 144.342C125.89 145.276 125.923 146.809 126.03 148.942C126.123 150.996 126.143 152.529 126.09 153.542C126.09 153.782 126.17 153.942 126.33 154.022C126.65 154.182 126.897 154.156 127.07 153.942C127.35 153.662 127.477 152.989 127.45 151.922L127.35 146.882C127.297 144.669 127.27 143.022 127.27 141.942L127.29 141.182C127.41 140.076 127.257 139.522 126.83 139.522C126.363 139.509 125.723 139.536 124.91 139.602L123.59 139.722C123.203 139.722 123.003 140.436 122.99 141.862C122.977 142.302 122.99 142.869 123.03 143.562L123.09 144.862C123.157 145.782 123.19 147.802 123.19 150.922C123.19 151.136 123.177 151.469 123.15 151.922C123.11 152.416 123.09 152.756 123.09 152.942C123.063 153.689 123.163 154.082 123.39 154.122C124.03 154.469 124.39 153.802 124.47 152.122C124.563 150.896 124.563 149.056 124.47 146.602C124.377 144.149 124.377 142.336 124.47 141.162C124.443 141.042 124.877 140.996 125.77 141.022C125.85 141.009 125.93 141.002 126.01 141.002ZM133.551 142.342C133.551 141.436 133.431 140.789 133.191 140.402C132.644 139.602 131.831 139.296 130.751 139.482C130.324 139.562 129.957 139.869 129.651 140.402C129.397 140.856 129.271 141.896 129.271 143.522V146.022C129.244 146.542 129.217 147.402 129.191 148.602C129.177 149.642 129.157 150.416 129.131 150.922C129.104 151.202 129.124 151.569 129.191 152.022C129.217 152.329 129.364 152.696 129.631 153.122C130.057 153.869 130.717 154.196 131.611 154.102C132.077 154.062 132.484 153.769 132.831 153.222C133.111 152.782 133.277 151.989 133.331 150.842C133.331 150.469 133.357 150.002 133.411 149.442L133.511 148.182C133.577 147.329 133.604 146.416 133.591 145.442L133.551 142.342ZM132.071 141.062C132.217 141.396 132.317 141.809 132.371 142.302C132.624 145.222 132.537 147.822 132.111 150.102C132.084 150.236 132.064 150.469 132.051 150.802C132.037 151.229 132.024 151.516 132.011 151.662C131.957 152.342 131.771 152.682 131.451 152.682C130.771 152.669 130.391 152.302 130.311 151.582C130.284 151.342 130.284 150.989 130.311 150.522C130.351 149.909 130.371 149.516 130.371 149.342L130.411 146.662C130.424 145.502 130.417 144.569 130.391 143.862C130.351 142.796 130.351 142.149 130.391 141.922C130.471 141.309 130.717 140.922 131.131 140.762C131.291 140.682 131.477 140.682 131.691 140.762C131.864 140.842 131.991 140.942 132.071 141.062ZM137.616 145.282C137.989 144.629 138.682 143.229 139.696 141.082C140.082 140.376 140.229 139.896 140.136 139.642C140.082 139.469 139.929 139.396 139.676 139.422C139.462 139.462 139.289 139.536 139.156 139.642C138.889 139.869 138.556 140.436 138.156 141.342C137.756 142.222 137.429 142.762 137.176 142.962L137.116 141.282C137.089 140.562 137.062 140.016 137.036 139.642C136.809 139.442 136.576 139.409 136.336 139.542C136.136 139.662 136.002 139.849 135.936 140.102C135.882 140.276 135.869 140.582 135.896 141.022C135.922 142.236 135.849 144.382 135.676 147.462C135.502 150.462 135.442 152.642 135.496 154.002C135.496 154.202 135.716 154.296 136.156 154.282C136.596 154.269 136.816 154.149 136.816 153.922C136.816 150.229 136.889 147.949 137.036 147.082C137.862 149.096 138.529 151.016 139.036 152.842C139.169 153.322 139.369 153.642 139.636 153.802C139.769 153.909 139.956 153.929 140.196 153.862C140.436 153.796 140.582 153.662 140.636 153.462C140.742 153.036 140.556 152.222 140.076 151.022C139.089 148.356 138.269 146.442 137.616 145.282ZM144.455 139.602C144.108 139.362 143.808 139.582 143.555 140.262C143.435 140.596 143.295 141.209 143.135 142.102L142.495 144.922C142.108 146.616 141.895 147.616 141.855 147.922C141.815 148.229 141.715 148.842 141.555 149.762C141.422 150.536 141.342 151.129 141.315 151.542C141.222 152.836 141.282 153.649 141.495 153.982C141.682 154.209 141.995 154.229 142.435 154.042C142.488 154.042 142.628 153.056 142.855 151.082C142.988 149.922 143.168 148.962 143.395 148.202C143.462 148.189 143.675 148.182 144.035 148.182C144.302 148.182 144.495 148.162 144.615 148.122C144.588 148.042 144.835 149.182 145.355 151.542C145.635 152.796 145.788 153.449 145.815 153.502C146.042 154.022 146.448 154.102 147.035 153.742C147.155 153.382 146.988 152.309 146.535 150.522C146.242 149.309 145.948 147.749 145.655 145.842L144.955 141.282C144.782 140.269 144.615 139.709 144.455 139.602ZM143.875 145.062C143.955 144.689 144.008 144.509 144.035 144.522C144.222 144.602 144.315 145.282 144.315 146.562C144.248 146.602 144.002 146.622 143.575 146.622C143.722 145.809 143.822 145.289 143.875 145.062ZM150.915 139.242C149.635 139.442 148.795 140.336 148.395 141.922L148.215 142.482C148.189 142.949 148.335 143.276 148.655 143.462C149.029 143.689 149.309 143.589 149.495 143.162C149.562 143.029 149.629 142.829 149.695 142.562C149.762 142.282 149.815 142.102 149.855 142.022C150.229 141.236 150.649 140.842 151.115 140.842C151.622 140.842 151.955 141.089 152.115 141.582C152.275 142.236 152.155 143.122 151.755 144.242C151.555 144.856 151.175 145.356 150.615 145.742C149.922 146.196 149.562 146.442 149.535 146.482C149.402 146.789 149.415 147.096 149.575 147.402C149.722 147.642 149.909 147.809 150.135 147.902C150.335 147.982 150.675 147.976 151.155 147.882C151.595 147.776 151.875 147.776 151.995 147.882C152.195 148.029 152.322 148.449 152.375 149.142C152.455 149.676 152.475 150.196 152.435 150.702C152.342 151.676 152.142 152.236 151.835 152.382C151.409 152.569 151.082 152.596 150.855 152.462C150.775 152.409 150.669 152.316 150.535 152.182L150.115 151.762C149.902 151.576 149.675 151.542 149.435 151.662C149.182 151.796 149.035 152.069 148.995 152.482C148.969 152.802 149.049 153.042 149.235 153.202C149.862 153.816 150.635 154.089 151.555 154.022C152.209 153.956 152.735 153.722 153.135 153.322C153.509 152.882 153.749 152.296 153.855 151.562C154.135 149.909 153.942 148.449 153.275 147.182C153.249 147.129 153.109 146.976 152.855 146.722C152.629 146.496 152.515 146.309 152.515 146.162C152.515 146.016 152.622 145.782 152.835 145.462C153.089 145.102 153.229 144.842 153.255 144.682C153.495 143.536 153.615 142.982 153.615 143.022C153.709 141.702 153.489 140.756 152.955 140.182C152.289 139.462 151.609 139.149 150.915 139.242ZM159.231 147.342C159.484 148.822 159.484 150.276 159.231 151.702C159.178 151.969 159.031 152.249 158.791 152.542C158.511 152.862 158.251 152.989 158.011 152.922C157.851 152.856 157.751 152.256 157.711 151.122L157.631 148.122C157.618 147.229 157.598 146.596 157.571 146.222C157.571 146.169 157.604 146.129 157.671 146.102C158.524 145.689 159.044 146.102 159.231 147.342ZM156.331 139.022C155.984 139.129 155.818 139.429 155.831 139.922C155.831 140.082 155.871 140.702 155.951 141.782C156.031 142.702 156.071 143.289 156.071 143.542L156.111 145.222C156.138 145.942 156.151 146.442 156.151 146.722C156.271 149.936 156.338 151.629 156.351 151.802C156.378 152.909 156.538 153.569 156.831 153.782C157.071 153.956 157.431 154.076 157.911 154.142C158.418 154.209 158.818 154.169 159.111 154.022C159.898 153.702 160.418 152.636 160.671 150.822C160.804 149.569 160.731 148.162 160.451 146.602C159.931 144.962 158.964 144.442 157.551 145.042C157.551 144.749 157.518 143.662 157.451 141.782C157.424 141.422 157.404 140.876 157.391 140.142C157.378 139.409 157.224 139.042 156.931 139.042H156.671L156.331 139.022ZM162.831 153.522C162.724 152.456 162.678 150.836 162.691 148.662C162.704 146.436 162.671 144.829 162.591 143.842C162.391 141.042 162.298 139.676 162.311 139.742C162.191 139.009 161.958 138.729 161.611 138.902C161.291 139.036 161.118 139.342 161.091 139.822C161.078 139.969 161.084 140.202 161.111 140.522L161.151 141.322C161.204 142.456 161.251 144.182 161.291 146.502L161.391 151.802C161.418 152.922 161.578 153.636 161.871 153.942C162.058 154.156 162.304 154.182 162.611 154.022C162.771 153.929 162.844 153.762 162.831 153.522Z" fill="black"/>
<rect x="9.00977" width="119.126" height="124.132" fill="#94070A"/>
<rect x="149.158" y="27.0287" width="119.126" height="97.103" fill="white"/>
<path d="M37.2542 103.305V104.201H39.5642V113.105H40.5722V103.305H37.2542ZM49.9109 107.505L52.6829 104.019V103.305H46.3829V104.201H51.3949L48.6789 107.603V108.345H49.3789C51.1989 108.345 52.0249 109.115 52.0249 110.291C52.0249 111.509 51.1289 112.265 49.5049 112.265C48.2309 112.265 47.0969 111.789 46.4669 111.131L45.9769 111.929C46.7329 112.699 48.0909 113.189 49.5049 113.189C51.8709 113.189 53.0609 111.929 53.0609 110.291C53.0609 108.723 52.0109 107.617 49.9109 107.505ZM62.8112 109.633H60.8512V107.365H59.8712V109.633H55.6152L60.6272 103.305H59.5072L54.3132 109.801V110.529H59.8432V113.105H60.8512V110.529H62.8112V109.633ZM66.2584 107.323H64.9984L65.3344 104.201H69.8144V103.305H64.4524L63.9484 108.219H66.0344C68.5264 108.219 69.3104 109.003 69.3104 110.263C69.3104 111.453 68.4284 112.265 66.7624 112.265C65.5024 112.265 64.3824 111.789 63.7524 111.131L63.2624 111.929C64.0184 112.699 65.3624 113.189 66.7764 113.189C69.1704 113.189 70.3324 111.887 70.3324 110.221C70.3324 108.485 69.2124 107.323 66.2584 107.323ZM83.6061 109.633H81.6461V107.365H80.6661V109.633H76.4101L81.4221 103.305H80.3021L75.1081 109.801V110.529H80.6381V113.105H81.6461V110.529H83.6061V109.633ZM87.0533 107.323H85.7933L86.1293 104.201H90.6093V103.305H85.2473L84.7433 108.219H86.8293C89.3213 108.219 90.1053 109.003 90.1053 110.263C90.1053 111.453 89.2233 112.265 87.5573 112.265C86.2973 112.265 85.1773 111.789 84.5473 111.131L84.0573 111.929C84.8133 112.699 86.1573 113.189 87.5713 113.189C89.9653 113.189 91.1273 111.887 91.1273 110.221C91.1273 108.485 90.0073 107.323 87.0533 107.323ZM93.6406 112.209L96.9726 108.933C98.2886 107.645 98.5826 106.805 98.5826 105.867C98.5826 104.229 97.3226 103.221 95.3346 103.221C93.8366 103.221 92.6186 103.725 91.8626 104.621L92.5766 105.237C93.2206 104.495 94.1026 104.145 95.2506 104.145C96.7486 104.145 97.5466 104.845 97.5466 105.979C97.5466 106.651 97.3366 107.309 96.2306 108.401L92.1566 112.391V113.105H99.0306V112.209H93.6406Z" fill="white"/>
<path d="M179.83 103.305V104.201H182.14V113.105H183.148V103.305H179.83ZM188.553 103.305V104.201H190.863V113.105H191.871V103.305H188.553ZM199.828 107.967C200.836 107.575 201.396 106.833 201.396 105.811C201.396 104.215 200.01 103.221 197.938 103.221C195.866 103.221 194.508 104.215 194.508 105.811C194.508 106.833 195.054 107.575 196.048 107.967C194.83 108.373 194.158 109.199 194.158 110.375C194.158 112.111 195.586 113.189 197.938 113.189C200.276 113.189 201.746 112.111 201.746 110.375C201.746 109.213 201.06 108.373 199.828 107.967ZM195.516 105.839C195.516 104.747 196.454 104.075 197.938 104.075C199.408 104.075 200.374 104.747 200.374 105.853C200.374 106.917 199.464 107.603 197.938 107.603C196.412 107.603 195.516 106.917 195.516 105.839ZM197.938 112.335C196.202 112.335 195.18 111.579 195.18 110.361C195.18 109.157 196.202 108.401 197.938 108.401C199.674 108.401 200.71 109.157 200.71 110.361C200.71 111.579 199.674 112.335 197.938 112.335ZM205.717 107.323H204.457L204.793 104.201H209.273V103.305H203.911L203.407 108.219H205.493C207.985 108.219 208.769 109.003 208.769 110.263C208.769 111.453 207.887 112.265 206.221 112.265C204.961 112.265 203.841 111.789 203.211 111.131L202.721 111.929C203.477 112.699 204.821 113.189 206.235 113.189C208.629 113.189 209.791 111.887 209.791 110.221C209.791 108.485 208.671 107.323 205.717 107.323ZM218.795 107.239C217.437 107.239 216.289 107.841 215.799 108.919C215.771 108.625 215.757 108.345 215.757 108.121C215.757 105.461 217.115 104.103 219.229 104.103C219.957 104.103 220.629 104.229 221.133 104.565L221.539 103.753C220.923 103.375 220.097 103.221 219.215 103.221C216.555 103.221 214.735 104.957 214.735 108.289C214.735 111.383 216.149 113.189 218.753 113.189C220.657 113.189 222.099 112.013 222.099 110.179C222.099 108.387 220.741 107.239 218.795 107.239ZM218.711 112.335C217.017 112.335 216.121 111.313 216.121 110.235C216.121 109.017 217.143 108.093 218.641 108.093C220.153 108.093 221.105 108.919 221.105 110.207C221.105 111.509 220.125 112.335 218.711 112.335ZM224.568 112.209L227.9 108.933C229.216 107.645 229.51 106.805 229.51 105.867C229.51 104.229 228.25 103.221 226.262 103.221C224.764 103.221 223.546 103.725 222.79 104.621L223.504 105.237C224.148 104.495 225.03 104.145 226.178 104.145C227.676 104.145 228.474 104.845 228.474 105.979C228.474 106.651 228.264 107.309 227.158 108.401L223.084 112.391V113.105H229.958V112.209H224.568ZM234.555 107.505L237.327 104.019V103.305H231.027V104.201H236.039L233.323 107.603V108.345H234.023C235.843 108.345 236.669 109.115 236.669 110.291C236.669 111.509 235.773 112.265 234.149 112.265C232.875 112.265 231.741 111.789 231.111 111.131L230.621 111.929C231.377 112.699 232.735 113.189 234.149 113.189C236.515 113.189 237.705 111.929 237.705 110.291C237.705 108.723 236.655 107.617 234.555 107.505Z" fill="#94070A"/>
<rect y="122.13" width="280.297" height="2.00212" fill="black"/>
</svg>
