<svg width="182" height="183" viewBox="0 0 182 183" fill="none" xmlns="http://www.w3.org/2000/svg">
<path d="M28.0023 139.482C27.1223 139.629 26.5223 140.229 26.2023 141.282C26.0023 141.962 25.929 143.742 25.9823 146.622C25.9823 146.476 26.0357 147.656 26.1423 150.162C26.2757 151.762 26.489 152.809 26.7823 153.302C27.169 153.942 27.7623 154.269 28.5623 154.282C29.3757 154.296 29.989 153.996 30.4023 153.382C30.6823 152.956 30.809 152.689 30.7823 152.582C30.7823 152.489 30.7223 152.376 30.6023 152.242C30.4557 152.069 30.2957 152.009 30.1223 152.062C29.829 152.156 29.649 152.349 29.5823 152.642C29.529 152.909 29.269 153.082 28.8023 153.162C28.269 153.269 27.9023 152.429 27.7023 150.642C27.5157 148.976 27.4557 146.622 27.5223 143.582C27.549 142.742 27.5957 142.169 27.6623 141.862C27.809 141.169 28.1023 140.889 28.5423 141.022C28.8623 141.116 29.1557 141.462 29.4223 142.062C29.5423 142.302 29.7623 142.316 30.0823 142.102C30.4157 141.889 30.509 141.576 30.3623 141.162C30.1623 140.496 29.8957 140.069 29.5623 139.882C29.0557 139.536 28.5357 139.402 28.0023 139.482ZM34.0273 144.142C34.0273 144.076 34.374 144.009 35.0673 143.942C35.8273 143.862 36.3073 143.716 36.5073 143.502C37.1073 142.876 37.3673 142.069 37.2873 141.082C37.2073 140.189 37.0273 139.642 36.7473 139.442C36.3207 139.136 35.5473 138.936 34.4273 138.842C33.3873 138.749 32.7473 138.769 32.5073 138.902C32.3607 138.929 32.2873 139.802 32.2873 141.522V153.262C32.3407 153.849 32.494 154.169 32.7473 154.222C33.254 154.396 33.554 154.149 33.6473 153.482C33.674 153.282 33.6873 152.969 33.6873 152.542C33.6873 152.089 33.694 151.789 33.7073 151.642C34.1607 146.642 34.2673 144.142 34.0273 144.142ZM33.6473 142.562C33.5007 141.029 33.474 140.222 33.5673 140.142C33.514 139.982 33.874 139.916 34.6473 139.942C35.4207 139.969 35.9007 140.109 36.0873 140.362C36.234 140.536 36.294 140.882 36.2673 141.402C36.2407 141.909 36.1607 142.236 36.0273 142.382C35.8273 142.609 35.374 142.736 34.6673 142.762C33.9873 142.789 33.6473 142.722 33.6473 142.562ZM39.629 141.122C39.8557 140.962 40.2957 140.869 40.949 140.842C41.4957 140.816 41.8557 140.656 42.029 140.362C42.1757 140.096 42.1624 139.876 41.989 139.702C41.8024 139.542 41.529 139.489 41.169 139.542C39.6624 139.796 38.869 139.942 38.789 139.982C38.349 140.209 38.169 140.802 38.249 141.762C38.3824 143.016 38.4557 143.889 38.469 144.382C38.6024 147.489 38.7824 150.409 39.009 153.142C39.009 153.822 39.2157 154.162 39.629 154.162C40.5224 154.096 41.409 154.016 42.289 153.922C42.4224 153.922 42.5357 153.782 42.629 153.502C42.7224 153.236 42.7024 153.062 42.569 152.982C42.0357 152.716 41.349 152.696 40.509 152.922C40.4157 152.269 40.3357 151.356 40.269 150.182C40.189 148.836 40.1224 147.909 40.069 147.402C40.5757 147.229 40.8424 147.022 40.869 146.782C40.9357 146.422 40.6224 146.176 39.929 146.042C39.9424 145.496 39.8957 144.669 39.789 143.562C39.6824 142.469 39.629 141.656 39.629 141.122ZM48.9286 153.182C48.9152 152.996 48.9019 152.716 48.8886 152.342C48.8619 151.902 48.8486 151.576 48.8486 151.362C48.8486 147.842 48.8819 145.622 48.9486 144.702L49.0086 143.402C49.0352 142.709 49.0486 142.142 49.0486 141.702C49.0352 140.276 48.8352 139.562 48.4486 139.562L47.1286 139.442C46.3019 139.362 45.6619 139.336 45.2086 139.362C44.7686 139.362 44.6086 139.689 44.7286 140.342C44.7686 140.462 45.0352 140.562 45.5286 140.642C45.4886 141.042 45.4552 141.542 45.4286 142.142L45.3486 144.562C45.3219 145.576 45.2886 146.336 45.2486 146.842L45.2286 148.782C45.2152 149.529 45.1886 150.162 45.1486 150.682C45.0952 151.589 44.8886 152.682 44.5286 153.962L45.8286 153.142C46.2152 152.716 46.4152 151.962 46.4286 150.882C46.4552 150.149 46.4952 148.569 46.5486 146.142C46.6019 144.289 46.6486 142.896 46.6886 141.962L46.7686 140.762C47.3152 140.829 47.5819 140.909 47.5686 141.002C47.6486 142.176 47.6419 143.989 47.5486 146.442C47.4552 149.282 47.4619 151.322 47.5686 152.562C47.5819 152.829 47.6019 153.062 47.6286 153.262L48.9286 153.182ZM45.1686 153.842C45.7019 153.816 46.1886 153.822 46.6286 153.862C47.0819 153.889 47.6352 153.936 48.2886 154.002C48.0886 154.842 48.1352 155.529 48.4286 156.062C48.5219 156.196 48.7019 156.209 48.9686 156.102C49.2352 155.996 49.3686 155.876 49.3686 155.742C49.4219 154.862 49.4619 153.969 49.4886 153.062C49.4619 152.649 49.1086 152.462 48.4286 152.502L45.7486 152.442C44.7886 152.402 44.2086 152.609 44.0086 153.062C43.9686 153.142 43.8552 153.942 43.6686 155.462C43.6286 155.822 43.6952 156.089 43.8686 156.262C44.0552 156.436 44.2752 156.442 44.5286 156.282C44.8086 156.096 44.9486 155.729 44.9486 155.182C44.9619 154.529 45.0352 154.082 45.1686 153.842ZM54.6762 139.302C54.4762 139.302 54.3029 139.476 54.1562 139.822C54.0496 140.102 54.0296 141.089 54.0962 142.782C54.1496 144.422 54.1429 145.289 54.0762 145.382C54.0496 145.409 53.7762 145.436 53.2562 145.462C52.7096 145.502 52.4362 145.489 52.4362 145.422C52.3696 145.356 52.3429 144.376 52.3562 142.482C52.3696 140.629 52.2762 139.656 52.0762 139.562C51.8229 139.469 51.6096 139.496 51.4362 139.642C51.3029 139.762 51.2162 139.929 51.1762 140.142C51.1629 140.222 51.1562 140.889 51.1562 142.142L51.1362 150.082C51.1362 150.309 51.1229 150.742 51.0962 151.382C51.0829 151.969 51.0762 152.409 51.0762 152.702C51.1029 153.662 51.2496 154.136 51.5162 154.122C51.9429 154.149 52.1896 154.109 52.2562 154.002C52.4162 153.709 52.4629 152.989 52.3962 151.842C52.2229 148.576 52.2496 146.942 52.4762 146.942C53.4362 146.729 53.9696 146.716 54.0762 146.902C54.1962 148.729 54.2496 150.616 54.2362 152.562C54.2362 153.256 54.2962 153.722 54.4162 153.962C54.6162 154.109 54.8496 154.142 55.1162 154.062C55.3696 153.929 55.4962 153.676 55.4962 153.302C55.4829 149.102 55.3696 144.502 55.1562 139.502C55.1562 139.369 54.9962 139.302 54.6762 139.302ZM59.105 145.282C58.385 146.376 57.9716 147.216 57.865 147.802C57.6916 148.749 57.6183 150.169 57.645 152.062C57.645 153.076 57.6583 153.596 57.685 153.622C57.8183 153.876 58.005 154.022 58.245 154.062C58.5116 154.116 58.725 153.969 58.885 153.622C58.8583 153.702 58.9183 152.542 59.065 150.142C59.065 148.436 59.365 147.182 59.965 146.382C60.3383 145.849 60.7583 145.616 61.225 145.682C61.2116 146.482 61.225 147.609 61.265 149.062C61.305 150.729 61.325 151.836 61.325 152.382C61.325 153.209 61.525 153.756 61.925 154.022C62.2983 154.289 62.605 154.182 62.845 153.702C62.8716 152.596 62.8516 151.102 62.785 149.222C62.705 147.089 62.665 145.642 62.665 144.882C62.665 144.576 62.6783 144.029 62.705 143.242C62.7316 142.429 62.745 141.836 62.745 141.462C62.7583 140.129 62.6383 139.489 62.385 139.542C62.2116 139.289 61.505 139.242 60.265 139.402C58.9316 139.589 58.0583 140.009 57.645 140.662C57.2583 141.289 57.1116 141.969 57.205 142.702C57.2983 143.382 57.565 143.936 58.005 144.362L59.105 145.282ZM61.305 143.762C61.305 143.922 60.965 143.969 60.285 143.902C59.5783 143.849 59.125 143.709 58.925 143.482C58.7783 143.322 58.6716 143.002 58.605 142.522C58.5383 142.016 58.5783 141.676 58.725 141.502C58.9116 141.249 59.4183 141.022 60.245 140.822C61.0583 140.636 61.4383 140.622 61.385 140.782C61.5183 140.889 61.4916 141.882 61.305 143.762ZM66.7167 145.282C65.9967 146.376 65.5834 147.216 65.4767 147.802C65.3034 148.749 65.23 150.169 65.2567 152.062C65.2567 153.076 65.27 153.596 65.2967 153.622C65.43 153.876 65.6167 154.022 65.8567 154.062C66.1234 154.116 66.3367 153.969 66.4967 153.622C66.47 153.702 66.53 152.542 66.6767 150.142C66.6767 148.436 66.9767 147.182 67.5767 146.382C67.95 145.849 68.37 145.616 68.8367 145.682C68.8234 146.482 68.8367 147.609 68.8767 149.062C68.9167 150.729 68.9367 151.836 68.9367 152.382C68.9367 153.209 69.1367 153.756 69.5367 154.022C69.91 154.289 70.2167 154.182 70.4567 153.702C70.4834 152.596 70.4634 151.102 70.3967 149.222C70.3167 147.089 70.2767 145.642 70.2767 144.882C70.2767 144.576 70.29 144.029 70.3167 143.242C70.3434 142.429 70.3567 141.836 70.3567 141.462C70.37 140.129 70.25 139.489 69.9967 139.542C69.8234 139.289 69.1167 139.242 67.8767 139.402C66.5434 139.589 65.67 140.009 65.2567 140.662C64.87 141.289 64.7234 141.969 64.8167 142.702C64.91 143.382 65.1767 143.936 65.6167 144.362L66.7167 145.282ZM68.9167 143.762C68.9167 143.922 68.5767 143.969 67.8967 143.902C67.19 143.849 66.7367 143.709 66.5367 143.482C66.39 143.322 66.2834 143.002 66.2167 142.522C66.15 142.016 66.19 141.676 66.3367 141.502C66.5234 141.249 67.03 141.022 67.8567 140.822C68.67 140.636 69.05 140.622 68.9967 140.782C69.13 140.889 69.1034 141.882 68.9167 143.762ZM82.3778 153.182C82.3645 152.996 82.3511 152.716 82.3378 152.342C82.3111 151.902 82.2978 151.576 82.2978 151.362C82.2978 147.842 82.3311 145.622 82.3978 144.702L82.4578 143.402C82.4845 142.709 82.4978 142.142 82.4978 141.702C82.4845 140.276 82.2845 139.562 81.8978 139.562L80.5778 139.442C79.7511 139.362 79.1111 139.336 78.6578 139.362C78.2178 139.362 78.0578 139.689 78.1778 140.342C78.2178 140.462 78.4845 140.562 78.9778 140.642C78.9378 141.042 78.9045 141.542 78.8778 142.142L78.7978 144.562C78.7711 145.576 78.7378 146.336 78.6978 146.842L78.6778 148.782C78.6645 149.529 78.6378 150.162 78.5978 150.682C78.5445 151.589 78.3378 152.682 77.9778 153.962L79.2778 153.142C79.6645 152.716 79.8645 151.962 79.8778 150.882C79.9045 150.149 79.9445 148.569 79.9978 146.142C80.0511 144.289 80.0978 142.896 80.1378 141.962L80.2178 140.762C80.7645 140.829 81.0311 140.909 81.0178 141.002C81.0978 142.176 81.0911 143.989 80.9978 146.442C80.9045 149.282 80.9111 151.322 81.0178 152.562C81.0311 152.829 81.0511 153.062 81.0778 153.262L82.3778 153.182ZM78.6178 153.842C79.1511 153.816 79.6378 153.822 80.0778 153.862C80.5311 153.889 81.0845 153.936 81.7378 154.002C81.5378 154.842 81.5845 155.529 81.8778 156.062C81.9711 156.196 82.1511 156.209 82.4178 156.102C82.6845 155.996 82.8178 155.876 82.8178 155.742C82.8711 154.862 82.9111 153.969 82.9378 153.062C82.9111 152.649 82.5578 152.462 81.8778 152.502L79.1978 152.442C78.2378 152.402 77.6578 152.609 77.4578 153.062C77.4178 153.142 77.3045 153.942 77.1178 155.462C77.0778 155.822 77.1445 156.089 77.3178 156.262C77.5045 156.436 77.7245 156.442 77.9778 156.282C78.2578 156.096 78.3978 155.729 78.3978 155.182C78.4111 154.529 78.4845 154.082 78.6178 153.842ZM84.3655 153.822C84.5655 153.916 84.7921 153.976 85.0455 154.002C85.1121 154.016 85.1988 154.022 85.3055 154.022C85.8655 153.956 86.2521 153.549 86.4655 152.802C86.6388 152.269 86.7121 151.429 86.6855 150.282C86.6588 149.549 86.6121 148.169 86.5455 146.142C86.4921 144.289 86.4588 142.896 86.4455 141.962V140.762C87.1255 140.829 87.4655 140.909 87.4655 141.002C87.6121 142.176 87.7121 143.989 87.7655 146.442C87.6855 148.882 87.6988 150.836 87.8055 152.302C87.9255 153.756 88.2988 154.309 88.9255 153.962C89.1388 153.922 89.2121 153.522 89.1455 152.762C88.9455 148.309 88.8521 145.622 88.8655 144.702L88.8455 143.402C88.8321 142.709 88.8121 142.142 88.7855 141.702C88.8255 140.276 88.6521 139.562 88.2655 139.562L86.7255 139.442C85.8988 139.362 85.2588 139.336 84.8055 139.362C84.3655 139.362 84.2255 139.689 84.3855 140.342C84.4255 140.462 84.6988 140.562 85.2055 140.642C85.1921 141.042 85.1855 141.542 85.1855 142.142L85.2655 144.562C85.2921 145.576 85.2988 146.336 85.2855 146.842L85.3455 148.182C85.3855 148.929 85.3988 149.562 85.3855 150.082C85.3855 151.602 85.2788 152.442 85.0655 152.602L84.8455 152.582C84.3655 152.462 84.0788 152.609 83.9855 153.022C83.8921 153.436 84.0188 153.702 84.3655 153.822ZM92.3672 153.962C92.9005 152.696 93.5005 150.136 94.1672 146.282L93.8272 152.862C93.8138 153.289 93.8605 153.649 93.9672 153.942C94.1005 154.276 94.2938 154.402 94.5472 154.322C94.9605 154.429 95.1738 154.102 95.1872 153.342C95.1738 152.956 95.2005 152.176 95.2672 151.002C95.3205 149.949 95.3338 149.122 95.3072 148.522C95.2938 147.989 95.2938 146.509 95.3072 144.082C95.3205 142.336 95.2538 140.969 95.1072 139.982C95.0538 139.676 94.8805 139.576 94.5872 139.682C94.2805 139.789 94.0872 140.129 94.0072 140.702C94.0205 140.662 93.9605 141.022 93.8272 141.782C93.7205 142.382 93.6672 142.776 93.6672 142.962C93.6405 144.336 93.2472 146.069 92.4872 148.162C92.2605 148.962 92.1672 149.316 92.2072 149.222L92.2672 142.502C92.2938 141.476 92.2872 140.822 92.2472 140.542C92.1405 139.849 91.8672 139.496 91.4272 139.482C91.1472 139.482 90.9872 139.696 90.9472 140.122L90.9672 141.382L90.9272 142.982C90.8872 143.849 90.8805 145.189 90.9072 147.002C90.9338 149.056 90.9405 150.389 90.9272 151.002C90.9005 152.549 90.9472 153.589 91.0672 154.122C91.1872 154.336 91.3672 154.442 91.6072 154.442C91.8872 154.456 92.1405 154.296 92.3672 153.962ZM102.031 140.882C102.245 140.882 102.298 140.662 102.191 140.222C102.098 139.769 101.858 139.509 101.471 139.442C100.005 139.376 99.1312 139.349 98.8512 139.362C97.5312 139.416 96.8579 139.682 96.8312 140.162C96.8046 140.562 97.0579 140.842 97.5912 141.002C98.4712 141.216 98.9112 141.242 98.9112 141.082C98.7379 143.789 98.6512 146.569 98.6512 149.422L98.6712 150.282C98.6979 150.656 98.7046 150.962 98.6912 151.202C98.6246 152.909 98.8046 153.856 99.2312 154.042C99.7379 154.282 100.038 154.089 100.131 153.462C100.158 153.249 100.165 152.956 100.151 152.582V151.742C100.205 150.796 100.218 148.922 100.191 146.122C100.178 143.802 100.258 142.082 100.431 140.962C100.431 140.856 100.638 140.829 101.051 140.882C101.545 140.949 101.871 140.949 102.031 140.882ZM104.652 141.122C104.879 140.962 105.319 140.869 105.972 140.842C106.519 140.816 106.879 140.656 107.052 140.362C107.199 140.096 107.186 139.876 107.012 139.702C106.826 139.542 106.552 139.489 106.192 139.542C104.686 139.796 103.892 139.942 103.812 139.982C103.372 140.209 103.192 140.802 103.272 141.762C103.406 143.016 103.479 143.889 103.492 144.382C103.626 147.489 103.806 150.409 104.032 153.142C104.032 153.822 104.239 154.162 104.652 154.162C105.546 154.096 106.432 154.016 107.312 153.922C107.446 153.922 107.559 153.782 107.652 153.502C107.746 153.236 107.726 153.062 107.592 152.982C107.059 152.716 106.372 152.696 105.532 152.922C105.439 152.269 105.359 151.356 105.292 150.182C105.212 148.836 105.146 147.909 105.092 147.402C105.599 147.229 105.866 147.022 105.892 146.782C105.959 146.422 105.646 146.176 104.952 146.042C104.966 145.496 104.919 144.669 104.812 143.562C104.706 142.469 104.652 141.656 104.652 141.122ZM108.992 153.822C109.192 153.916 109.419 153.976 109.672 154.002C109.739 154.016 109.825 154.022 109.932 154.022C110.492 153.956 110.879 153.549 111.092 152.802C111.265 152.269 111.339 151.429 111.312 150.282C111.285 149.549 111.239 148.169 111.172 146.142C111.119 144.289 111.085 142.896 111.072 141.962V140.762C111.752 140.829 112.092 140.909 112.092 141.002C112.239 142.176 112.339 143.989 112.392 146.442C112.312 148.882 112.325 150.836 112.432 152.302C112.552 153.756 112.925 154.309 113.552 153.962C113.765 153.922 113.839 153.522 113.772 152.762C113.572 148.309 113.479 145.622 113.492 144.702L113.472 143.402C113.459 142.709 113.439 142.142 113.412 141.702C113.452 140.276 113.279 139.562 112.892 139.562L111.352 139.442C110.525 139.362 109.885 139.336 109.432 139.362C108.992 139.362 108.852 139.689 109.012 140.342C109.052 140.462 109.325 140.562 109.832 140.642C109.819 141.042 109.812 141.542 109.812 142.142L109.892 144.562C109.919 145.576 109.925 146.336 109.912 146.842L109.972 148.182C110.012 148.929 110.025 149.562 110.012 150.082C110.012 151.602 109.905 152.442 109.692 152.602L109.472 152.582C108.992 152.462 108.705 152.609 108.612 153.022C108.519 153.436 108.645 153.702 108.992 153.822ZM118.994 147.342C119.247 148.822 119.247 150.276 118.994 151.702C118.94 151.969 118.794 152.249 118.554 152.542C118.274 152.862 118.014 152.989 117.774 152.922C117.614 152.856 117.514 152.256 117.474 151.122L117.394 148.122C117.38 147.229 117.36 146.596 117.334 146.222C117.334 146.169 117.367 146.129 117.434 146.102C118.287 145.689 118.807 146.102 118.994 147.342ZM116.094 139.022C115.747 139.129 115.58 139.429 115.594 139.922C115.594 140.082 115.634 140.702 115.714 141.782C115.794 142.702 115.834 143.289 115.834 143.542L115.874 145.222C115.9 145.942 115.914 146.442 115.914 146.722C116.034 149.936 116.1 151.629 116.114 151.802C116.14 152.909 116.3 153.569 116.594 153.782C116.834 153.956 117.194 154.076 117.674 154.142C118.18 154.209 118.58 154.169 118.874 154.022C119.66 153.702 120.18 152.636 120.434 150.822C120.567 149.569 120.494 148.162 120.214 146.602C119.694 144.962 118.727 144.442 117.314 145.042C117.314 144.749 117.28 143.662 117.214 141.782C117.187 141.422 117.167 140.876 117.154 140.142C117.14 139.409 116.987 139.042 116.694 139.042H116.434L116.094 139.022ZM125.749 139.302C125.549 139.302 125.376 139.476 125.229 139.822C125.122 140.102 125.102 141.089 125.169 142.782C125.222 144.422 125.216 145.289 125.149 145.382C125.122 145.409 124.849 145.436 124.329 145.462C123.782 145.502 123.509 145.489 123.509 145.422C123.442 145.356 123.416 144.376 123.429 142.482C123.442 140.629 123.349 139.656 123.149 139.562C122.896 139.469 122.682 139.496 122.509 139.642C122.376 139.762 122.289 139.929 122.249 140.142C122.236 140.222 122.229 140.889 122.229 142.142L122.209 150.082C122.209 150.309 122.196 150.742 122.169 151.382C122.156 151.969 122.149 152.409 122.149 152.702C122.176 153.662 122.322 154.136 122.589 154.122C123.016 154.149 123.262 154.109 123.329 154.002C123.489 153.709 123.536 152.989 123.469 151.842C123.296 148.576 123.322 146.942 123.549 146.942C124.509 146.729 125.042 146.716 125.149 146.902C125.269 148.729 125.322 150.616 125.309 152.562C125.309 153.256 125.369 153.722 125.489 153.962C125.689 154.109 125.922 154.142 126.189 154.062C126.442 153.929 126.569 153.676 126.569 153.302C126.556 149.102 126.442 144.502 126.229 139.502C126.229 139.369 126.069 139.302 125.749 139.302ZM132.538 142.342C132.538 141.436 132.418 140.789 132.178 140.402C131.631 139.602 130.818 139.296 129.738 139.482C129.311 139.562 128.944 139.869 128.638 140.402C128.384 140.856 128.258 141.896 128.258 143.522V146.022C128.231 146.542 128.204 147.402 128.178 148.602C128.164 149.642 128.144 150.416 128.118 150.922C128.091 151.202 128.111 151.569 128.178 152.022C128.204 152.329 128.351 152.696 128.618 153.122C129.044 153.869 129.704 154.196 130.598 154.102C131.064 154.062 131.471 153.769 131.818 153.222C132.098 152.782 132.264 151.989 132.318 150.842C132.318 150.469 132.344 150.002 132.398 149.442L132.498 148.182C132.564 147.329 132.591 146.416 132.578 145.442L132.538 142.342ZM131.058 141.062C131.204 141.396 131.304 141.809 131.358 142.302C131.611 145.222 131.524 147.822 131.098 150.102C131.071 150.236 131.051 150.469 131.038 150.802C131.024 151.229 131.011 151.516 130.998 151.662C130.944 152.342 130.758 152.682 130.438 152.682C129.758 152.669 129.378 152.302 129.298 151.582C129.271 151.342 129.271 150.989 129.298 150.522C129.338 149.909 129.358 149.516 129.358 149.342L129.398 146.662C129.411 145.502 129.404 144.569 129.378 143.862C129.338 142.796 129.338 142.149 129.378 141.922C129.458 141.309 129.704 140.922 130.118 140.762C130.278 140.682 130.464 140.682 130.678 140.762C130.851 140.842 130.978 140.942 131.058 141.062ZM136.523 139.482C135.643 139.629 135.043 140.229 134.723 141.282C134.523 141.962 134.449 143.742 134.503 146.622C134.503 146.476 134.556 147.656 134.663 150.162C134.796 151.762 135.009 152.809 135.303 153.302C135.689 153.942 136.283 154.269 137.083 154.282C137.896 154.296 138.509 153.996 138.923 153.382C139.203 152.956 139.329 152.689 139.303 152.582C139.303 152.489 139.243 152.376 139.123 152.242C138.976 152.069 138.816 152.009 138.643 152.062C138.349 152.156 138.169 152.349 138.103 152.642C138.049 152.909 137.789 153.082 137.323 153.162C136.789 153.269 136.423 152.429 136.223 150.642C136.036 148.976 135.976 146.622 136.043 143.582C136.069 142.742 136.116 142.169 136.183 141.862C136.329 141.169 136.623 140.889 137.063 141.022C137.383 141.116 137.676 141.462 137.943 142.062C138.063 142.302 138.283 142.316 138.603 142.102C138.936 141.889 139.029 141.576 138.883 141.162C138.683 140.496 138.416 140.069 138.083 139.882C137.576 139.536 137.056 139.402 136.523 139.482ZM145.548 140.882C145.761 140.882 145.814 140.662 145.708 140.222C145.614 139.769 145.374 139.509 144.988 139.442C143.521 139.376 142.648 139.349 142.368 139.362C141.048 139.416 140.374 139.682 140.348 140.162C140.321 140.562 140.574 140.842 141.108 141.002C141.988 141.216 142.428 141.242 142.428 141.082C142.254 143.789 142.168 146.569 142.168 149.422L142.188 150.282C142.214 150.656 142.221 150.962 142.208 151.202C142.141 152.909 142.321 153.856 142.748 154.042C143.254 154.282 143.554 154.089 143.648 153.462C143.674 153.249 143.681 152.956 143.668 152.582V151.742C143.721 150.796 143.734 148.922 143.708 146.122C143.694 143.802 143.774 142.082 143.948 140.962C143.948 140.856 144.154 140.829 144.568 140.882C145.061 140.949 145.388 140.949 145.548 140.882ZM150.529 147.342C150.782 148.822 150.782 150.276 150.529 151.702C150.476 151.969 150.329 152.249 150.089 152.542C149.809 152.862 149.549 152.989 149.309 152.922C149.149 152.856 149.049 152.256 149.009 151.122L148.929 148.122C148.916 147.229 148.896 146.596 148.869 146.222C148.869 146.169 148.902 146.129 148.969 146.102C149.822 145.689 150.342 146.102 150.529 147.342ZM147.629 139.022C147.282 139.129 147.116 139.429 147.129 139.922C147.129 140.082 147.169 140.702 147.249 141.782C147.329 142.702 147.369 143.289 147.369 143.542L147.409 145.222C147.436 145.942 147.449 146.442 147.449 146.722C147.569 149.936 147.636 151.629 147.649 151.802C147.676 152.909 147.836 153.569 148.129 153.782C148.369 153.956 148.729 154.076 149.209 154.142C149.716 154.209 150.116 154.169 150.409 154.022C151.196 153.702 151.716 152.636 151.969 150.822C152.102 149.569 152.029 148.162 151.749 146.602C151.229 144.962 150.262 144.442 148.849 145.042C148.849 144.749 148.816 143.662 148.749 141.782C148.722 141.422 148.702 140.876 148.689 140.142C148.676 139.409 148.522 139.042 148.229 139.042H147.969L147.629 139.022ZM73.3937 163.482C72.5137 163.629 71.9137 164.229 71.5937 165.282C71.3937 165.962 71.3204 167.742 71.3737 170.622C71.3737 170.476 71.4271 171.656 71.5337 174.162C71.6671 175.762 71.8804 176.809 72.1737 177.302C72.5604 177.942 73.1537 178.269 73.9537 178.282C74.7671 178.296 75.3804 177.996 75.7937 177.382C76.0737 176.956 76.2004 176.689 76.1737 176.582C76.1737 176.489 76.1137 176.376 75.9937 176.242C75.8471 176.069 75.6871 176.009 75.5137 176.062C75.2204 176.156 75.0404 176.349 74.9737 176.642C74.9204 176.909 74.6604 177.082 74.1937 177.162C73.6604 177.269 73.2937 176.429 73.0937 174.642C72.9071 172.976 72.8471 170.622 72.9137 167.582C72.9404 166.742 72.9871 166.169 73.0537 165.862C73.2004 165.169 73.4937 164.889 73.9337 165.022C74.2537 165.116 74.5471 165.462 74.8137 166.062C74.9337 166.302 75.1537 166.316 75.4737 166.102C75.8071 165.889 75.9004 165.576 75.7537 165.162C75.5537 164.496 75.2871 164.069 74.9537 163.882C74.4471 163.536 73.9271 163.402 73.3937 163.482ZM78.6587 165.122C78.8854 164.962 79.3254 164.869 79.9787 164.842C80.5254 164.816 80.8854 164.656 81.0587 164.362C81.2054 164.096 81.1921 163.876 81.0187 163.702C80.8321 163.542 80.5587 163.489 80.1987 163.542C78.6921 163.796 77.8987 163.942 77.8187 163.982C77.3787 164.209 77.1987 164.802 77.2787 165.762C77.4121 167.016 77.4854 167.889 77.4987 168.382C77.6321 171.489 77.8121 174.409 78.0387 177.142C78.0387 177.822 78.2454 178.162 78.6587 178.162C79.5521 178.096 80.4387 178.016 81.3187 177.922C81.4521 177.922 81.5654 177.782 81.6587 177.502C81.7521 177.236 81.7321 177.062 81.5987 176.982C81.0654 176.716 80.3787 176.696 79.5387 176.922C79.4454 176.269 79.3654 175.356 79.2987 174.182C79.2187 172.836 79.1521 171.909 79.0987 171.402C79.6054 171.229 79.8721 171.022 79.8987 170.782C79.9654 170.422 79.6521 170.176 78.9587 170.042C78.9721 169.496 78.9254 168.669 78.8187 167.562C78.7121 166.469 78.6587 165.656 78.6587 165.122ZM85.6983 163.602C85.3516 163.362 85.0516 163.582 84.7983 164.262C84.6783 164.596 84.5383 165.209 84.3783 166.102L83.7383 168.922C83.3516 170.616 83.1383 171.616 83.0983 171.922C83.0583 172.229 82.9583 172.842 82.7983 173.762C82.6649 174.536 82.5849 175.129 82.5583 175.542C82.4649 176.836 82.5249 177.649 82.7383 177.982C82.9249 178.209 83.2383 178.229 83.6783 178.042C83.7316 178.042 83.8716 177.056 84.0983 175.082C84.2316 173.922 84.4116 172.962 84.6383 172.202C84.7049 172.189 84.9183 172.182 85.2783 172.182C85.5449 172.182 85.7383 172.162 85.8583 172.122C85.8316 172.042 86.0783 173.182 86.5983 175.542C86.8783 176.796 87.0316 177.449 87.0583 177.502C87.2849 178.022 87.6916 178.102 88.2783 177.742C88.3983 177.382 88.2316 176.309 87.7783 174.522C87.4849 173.309 87.1916 171.749 86.8983 169.842L86.1983 165.282C86.0249 164.269 85.8583 163.709 85.6983 163.602ZM85.1183 169.062C85.1983 168.689 85.2516 168.509 85.2783 168.522C85.4649 168.602 85.5583 169.282 85.5583 170.562C85.4916 170.602 85.2449 170.622 84.8183 170.622C84.9649 169.809 85.0649 169.289 85.1183 169.062ZM93.1786 163.302C92.9786 163.302 92.8052 163.476 92.6586 163.822C92.5519 164.102 92.5319 165.089 92.5986 166.782C92.6519 168.422 92.6452 169.289 92.5786 169.382C92.5519 169.409 92.2786 169.436 91.7586 169.462C91.2119 169.502 90.9386 169.489 90.9386 169.422C90.8719 169.356 90.8452 168.376 90.8586 166.482C90.8719 164.629 90.7786 163.656 90.5786 163.562C90.3252 163.469 90.1119 163.496 89.9386 163.642C89.8052 163.762 89.7186 163.929 89.6786 164.142C89.6652 164.222 89.6586 164.889 89.6586 166.142L89.6386 174.082C89.6386 174.309 89.6252 174.742 89.5986 175.382C89.5852 175.969 89.5786 176.409 89.5786 176.702C89.6052 177.662 89.7519 178.136 90.0186 178.122C90.4452 178.149 90.6919 178.109 90.7586 178.002C90.9186 177.709 90.9652 176.989 90.8986 175.842C90.7252 172.576 90.7519 170.942 90.9786 170.942C91.9386 170.729 92.4719 170.716 92.5786 170.902C92.6986 172.729 92.7519 174.616 92.7386 176.562C92.7386 177.256 92.7986 177.722 92.9186 177.962C93.1186 178.109 93.3519 178.142 93.6186 178.062C93.8719 177.929 93.9986 177.676 93.9986 177.302C93.9852 173.102 93.8719 168.502 93.6586 163.502C93.6586 163.369 93.4986 163.302 93.1786 163.302ZM97.7273 163.482C96.8473 163.629 96.2473 164.229 95.9273 165.282C95.7273 165.962 95.654 167.742 95.7073 170.622C95.7073 170.476 95.7607 171.656 95.8673 174.162C96.0007 175.762 96.214 176.809 96.5073 177.302C96.894 177.942 97.4873 178.269 98.2873 178.282C99.1007 178.296 99.714 177.996 100.127 177.382C100.407 176.956 100.534 176.689 100.507 176.582C100.507 176.489 100.447 176.376 100.327 176.242C100.181 176.069 100.021 176.009 99.8473 176.062C99.554 176.156 99.374 176.349 99.3073 176.642C99.254 176.909 98.994 177.082 98.5273 177.162C97.994 177.269 97.6273 176.429 97.4273 174.642C97.2407 172.976 97.1807 170.622 97.2473 167.582C97.274 166.742 97.3207 166.169 97.3873 165.862C97.534 165.169 97.8273 164.889 98.2673 165.022C98.5873 165.116 98.8807 165.462 99.1473 166.062C99.2673 166.302 99.4873 166.316 99.8073 166.102C100.141 165.889 100.234 165.576 100.087 165.162C99.8873 164.496 99.6207 164.069 99.2873 163.882C98.7807 163.536 98.2607 163.402 97.7273 163.482ZM104.412 163.602C104.066 163.362 103.766 163.582 103.512 164.262C103.392 164.596 103.252 165.209 103.092 166.102L102.452 168.922C102.066 170.616 101.852 171.616 101.812 171.922C101.772 172.229 101.672 172.842 101.512 173.762C101.379 174.536 101.299 175.129 101.272 175.542C101.179 176.836 101.239 177.649 101.452 177.982C101.639 178.209 101.952 178.229 102.392 178.042C102.446 178.042 102.586 177.056 102.812 175.082C102.946 173.922 103.126 172.962 103.352 172.202C103.419 172.189 103.632 172.182 103.992 172.182C104.259 172.182 104.452 172.162 104.572 172.122C104.546 172.042 104.792 173.182 105.312 175.542C105.592 176.796 105.746 177.449 105.772 177.502C105.999 178.022 106.406 178.102 106.992 177.742C107.112 177.382 106.946 176.309 106.492 174.522C106.199 173.309 105.906 171.749 105.612 169.842L104.912 165.282C104.739 164.269 104.572 163.709 104.412 163.602ZM103.832 169.062C103.912 168.689 103.966 168.509 103.992 168.522C104.179 168.602 104.272 169.282 104.272 170.562C104.206 170.602 103.959 170.622 103.532 170.622C103.679 169.809 103.779 169.289 103.832 169.062Z" fill="black"/>
<rect x="11.861" width="68.0722" height="124.132" fill="#94070A"/>
<rect x="99.9543" y="27.0287" width="68.0722" height="97.103" fill="white"/>
<path d="M21.9516 113.189C24.2196 113.189 25.8716 111.327 25.8716 108.205C25.8716 105.083 24.2196 103.221 21.9516 103.221C19.6836 103.221 18.0456 105.083 18.0456 108.205C18.0456 111.327 19.6836 113.189 21.9516 113.189ZM21.9516 112.265C20.2436 112.265 19.0676 110.823 19.0676 108.205C19.0676 105.587 20.2436 104.145 21.9516 104.145C23.6596 104.145 24.8356 105.587 24.8356 108.205C24.8356 110.823 23.6596 112.265 21.9516 112.265ZM31.2211 113.189C33.4891 113.189 35.1411 111.327 35.1411 108.205C35.1411 105.083 33.4891 103.221 31.2211 103.221C28.9531 103.221 27.3151 105.083 27.3151 108.205C27.3151 111.327 28.9531 113.189 31.2211 113.189ZM31.2211 112.265C29.5131 112.265 28.3371 110.823 28.3371 108.205C28.3371 105.587 29.5131 104.145 31.2211 104.145C32.9291 104.145 34.1051 105.587 34.1051 108.205C34.1051 110.823 32.9291 112.265 31.2211 112.265ZM37.3406 107.211C37.7466 107.211 38.0966 106.875 38.0966 106.441C38.0966 106.007 37.7466 105.685 37.3406 105.685C36.9346 105.685 36.5986 106.007 36.5986 106.441C36.5986 106.875 36.9346 107.211 37.3406 107.211ZM37.3406 113.175C37.7466 113.175 38.0966 112.839 38.0966 112.405C38.0966 111.971 37.7466 111.649 37.3406 111.649C36.9346 111.649 36.5986 111.971 36.5986 112.405C36.5986 112.839 36.9346 113.175 37.3406 113.175ZM43.4574 113.189C45.7254 113.189 47.3774 111.327 47.3774 108.205C47.3774 105.083 45.7254 103.221 43.4574 103.221C41.1894 103.221 39.5514 105.083 39.5514 108.205C39.5514 111.327 41.1894 113.189 43.4574 113.189ZM43.4574 112.265C41.7494 112.265 40.5734 110.823 40.5734 108.205C40.5734 105.587 41.7494 104.145 43.4574 104.145C45.1654 104.145 46.3414 105.587 46.3414 108.205C46.3414 110.823 45.1654 112.265 43.4574 112.265ZM50.0956 112.209L53.4276 108.933C54.7436 107.645 55.0376 106.805 55.0376 105.867C55.0376 104.229 53.7776 103.221 51.7896 103.221C50.2916 103.221 49.0736 103.725 48.3176 104.621L49.0316 105.237C49.6756 104.495 50.5576 104.145 51.7056 104.145C53.2036 104.145 54.0016 104.845 54.0016 105.979C54.0016 106.651 53.7916 107.309 52.6856 108.401L48.6116 112.391V113.105H55.4856V112.209H50.0956ZM57.5066 107.211C57.9126 107.211 58.2626 106.875 58.2626 106.441C58.2626 106.007 57.9126 105.685 57.5066 105.685C57.1006 105.685 56.7646 106.007 56.7646 106.441C56.7646 106.875 57.1006 107.211 57.5066 107.211ZM57.5066 113.175C57.9126 113.175 58.2626 112.839 58.2626 112.405C58.2626 111.971 57.9126 111.649 57.5066 111.649C57.1006 111.649 56.7646 111.971 56.7646 112.405C56.7646 112.839 57.1006 113.175 57.5066 113.175ZM61.0194 112.209L64.3514 108.933C65.6674 107.645 65.9614 106.805 65.9614 105.867C65.9614 104.229 64.7014 103.221 62.7134 103.221C61.2154 103.221 59.9974 103.725 59.2414 104.621L59.9554 105.237C60.5994 104.495 61.4814 104.145 62.6294 104.145C64.1274 104.145 64.9254 104.845 64.9254 105.979C64.9254 106.651 64.7154 107.309 63.6094 108.401L59.5354 112.391V113.105H66.4094V112.209H61.0194ZM70.7265 103.221C68.8225 103.221 67.3805 104.397 67.3805 106.231C67.3805 108.023 68.7385 109.171 70.6845 109.171C72.0425 109.171 73.1905 108.569 73.6805 107.491C73.7085 107.785 73.7225 108.065 73.7225 108.289C73.7225 110.949 72.3645 112.307 70.2505 112.307C69.5225 112.307 68.8505 112.181 68.3465 111.845L67.9405 112.657C68.5565 113.035 69.3825 113.189 70.2645 113.189C72.9245 113.189 74.7445 111.453 74.7445 108.121C74.7445 105.027 73.3305 103.221 70.7265 103.221ZM70.8385 108.317C69.3265 108.317 68.3745 107.491 68.3745 106.203C68.3745 104.901 69.3545 104.075 70.7685 104.075C72.4625 104.075 73.3585 105.097 73.3585 106.175C73.3585 107.393 72.3365 108.317 70.8385 108.317Z" fill="white"/>
<path d="M108.846 113.189C111.114 113.189 112.766 111.327 112.766 108.205C112.766 105.083 111.114 103.221 108.846 103.221C106.578 103.221 104.94 105.083 104.94 108.205C104.94 111.327 106.578 113.189 108.846 113.189ZM108.846 112.265C107.138 112.265 105.962 110.823 105.962 108.205C105.962 105.587 107.138 104.145 108.846 104.145C110.554 104.145 111.73 105.587 111.73 108.205C111.73 110.823 110.554 112.265 108.846 112.265ZM118.115 113.189C120.383 113.189 122.035 111.327 122.035 108.205C122.035 105.083 120.383 103.221 118.115 103.221C115.847 103.221 114.209 105.083 114.209 108.205C114.209 111.327 115.847 113.189 118.115 113.189ZM118.115 112.265C116.407 112.265 115.231 110.823 115.231 108.205C115.231 105.587 116.407 104.145 118.115 104.145C119.823 104.145 120.999 105.587 120.999 108.205C120.999 110.823 119.823 112.265 118.115 112.265ZM124.235 107.211C124.641 107.211 124.991 106.875 124.991 106.441C124.991 106.007 124.641 105.685 124.235 105.685C123.829 105.685 123.493 106.007 123.493 106.441C123.493 106.875 123.829 107.211 124.235 107.211ZM124.235 113.175C124.641 113.175 124.991 112.839 124.991 112.405C124.991 111.971 124.641 111.649 124.235 111.649C123.829 111.649 123.493 111.971 123.493 112.405C123.493 112.839 123.829 113.175 124.235 113.175ZM130.352 113.189C132.62 113.189 134.272 111.327 134.272 108.205C134.272 105.083 132.62 103.221 130.352 103.221C128.084 103.221 126.446 105.083 126.446 108.205C126.446 111.327 128.084 113.189 130.352 113.189ZM130.352 112.265C128.644 112.265 127.468 110.823 127.468 108.205C127.468 105.587 128.644 104.145 130.352 104.145C132.06 104.145 133.236 105.587 133.236 108.205C133.236 110.823 132.06 112.265 130.352 112.265ZM136.99 112.209L140.322 108.933C141.638 107.645 141.932 106.805 141.932 105.867C141.932 104.229 140.672 103.221 138.684 103.221C137.186 103.221 135.968 103.725 135.212 104.621L135.926 105.237C136.57 104.495 137.452 104.145 138.6 104.145C140.098 104.145 140.896 104.845 140.896 105.979C140.896 106.651 140.686 107.309 139.58 108.401L135.506 112.391V113.105H142.38V112.209H136.99ZM144.401 107.211C144.807 107.211 145.157 106.875 145.157 106.441C145.157 106.007 144.807 105.685 144.401 105.685C143.995 105.685 143.659 106.007 143.659 106.441C143.659 106.875 143.995 107.211 144.401 107.211ZM144.401 113.175C144.807 113.175 145.157 112.839 145.157 112.405C145.157 111.971 144.807 111.649 144.401 111.649C143.995 111.649 143.659 111.971 143.659 112.405C143.659 112.839 143.995 113.175 144.401 113.175ZM147.914 112.209L151.246 108.933C152.562 107.645 152.856 106.805 152.856 105.867C152.856 104.229 151.596 103.221 149.608 103.221C148.11 103.221 146.892 103.725 146.136 104.621L146.85 105.237C147.494 104.495 148.376 104.145 149.524 104.145C151.022 104.145 151.82 104.845 151.82 105.979C151.82 106.651 151.61 107.309 150.504 108.401L146.43 112.391V113.105H153.304V112.209H147.914ZM160.183 107.967C161.191 107.575 161.751 106.833 161.751 105.811C161.751 104.215 160.365 103.221 158.293 103.221C156.221 103.221 154.863 104.215 154.863 105.811C154.863 106.833 155.409 107.575 156.403 107.967C155.185 108.373 154.513 109.199 154.513 110.375C154.513 112.111 155.941 113.189 158.293 113.189C160.631 113.189 162.101 112.111 162.101 110.375C162.101 109.213 161.415 108.373 160.183 107.967ZM155.871 105.839C155.871 104.747 156.809 104.075 158.293 104.075C159.763 104.075 160.729 104.747 160.729 105.853C160.729 106.917 159.819 107.603 158.293 107.603C156.767 107.603 155.871 106.917 155.871 105.839ZM158.293 112.335C156.557 112.335 155.535 111.579 155.535 110.361C155.535 109.157 156.557 108.401 158.293 108.401C160.029 108.401 161.065 109.157 161.065 110.361C161.065 111.579 160.029 112.335 158.293 112.335Z" fill="#94070A"/>
<rect x="0.849487" y="122.13" width="180.191" height="2.00212" fill="black"/>
</svg>
