<svg width="359" height="42" viewBox="0 0 359 42" fill="none" xmlns="http://www.w3.org/2000/svg">
<rect x="0.150513" y="0.189331" width="358.38" height="41.0435" fill="#94070A"/>
<path d="M169.623 29.3008H171.527C170.199 26.9648 169.639 24.5488 169.639 21.8128C169.639 19.0768 170.199 16.6608 171.527 14.3248H169.623C168.375 16.2288 167.671 18.8688 167.671 21.8128C167.671 24.7568 168.375 27.3648 169.623 29.3008ZM172.158 14.9968V16.7408H174.526V26.1968H176.606V14.9968H172.158ZM183.5 26.3568C186.172 26.3568 188.188 24.2768 188.188 20.5968C188.188 16.9168 186.172 14.8368 183.5 14.8368C180.844 14.8368 178.828 16.9168 178.828 20.5968C178.828 24.2768 180.844 26.3568 183.5 26.3568ZM183.5 24.5488C181.98 24.5488 180.924 23.3008 180.924 20.5968C180.924 17.8928 181.98 16.6448 183.5 16.6448C185.036 16.6448 186.092 17.8928 186.092 20.5968C186.092 23.3008 185.036 24.5488 183.5 24.5488ZM197.791 14.8368C195.503 14.8368 193.695 16.2448 193.695 18.4688C193.695 20.5648 195.343 21.9088 197.551 21.9088C198.799 21.9088 199.871 21.5248 200.543 20.7408V20.7568C200.543 23.3008 199.215 24.6128 197.103 24.6128C196.319 24.6128 195.583 24.4688 194.975 24.0688L194.207 25.6368C194.959 26.1168 196.031 26.3568 197.151 26.3568C200.399 26.3568 202.639 24.2448 202.639 20.4048C202.639 16.8048 200.847 14.8368 197.791 14.8368ZM197.951 20.2768C196.591 20.2768 195.711 19.5408 195.711 18.3728C195.711 17.2048 196.607 16.4688 197.903 16.4688C199.391 16.4688 200.223 17.3008 200.223 18.3568C200.223 19.4608 199.295 20.2768 197.951 20.2768ZM203.392 14.9968V16.7408H205.76V26.1968H207.84V14.9968H203.392ZM214.734 26.3568C217.406 26.3568 219.422 24.2768 219.422 20.5968C219.422 16.9168 217.406 14.8368 214.734 14.8368C212.078 14.8368 210.062 16.9168 210.062 20.5968C210.062 24.2768 212.078 26.3568 214.734 26.3568ZM214.734 24.5488C213.214 24.5488 212.158 23.3008 212.158 20.5968C212.158 17.8928 213.214 16.6448 214.734 16.6448C216.27 16.6448 217.326 17.8928 217.326 20.5968C217.326 23.3008 216.27 24.5488 214.734 24.5488ZM230.018 19.6208L232.738 16.3888V14.9968H225.106V16.7408H230.194L227.65 19.7648V21.1888H228.674C230.37 21.1888 231.106 21.8448 231.106 22.8528C231.106 23.8928 230.226 24.5488 228.738 24.5488C227.474 24.5488 226.258 24.1168 225.458 23.4448L224.562 25.0608C225.602 25.8768 227.186 26.3568 228.77 26.3568C231.778 26.3568 233.202 24.7248 233.202 22.8368C233.202 21.1568 232.13 19.8928 230.018 19.6208ZM244.546 21.8928H242.562V19.6368H240.61V21.8928H236.946L242.146 14.9968H239.922L234.402 22.2128V23.6528H240.546V26.1968H242.562V23.6528H244.546V21.8928ZM248.207 24.4368L251.199 21.5888C252.751 20.1328 253.055 19.1408 253.055 18.0528C253.055 16.0688 251.487 14.8368 249.055 14.8368C247.215 14.8368 245.663 15.5248 244.799 16.6928L246.255 17.8128C246.879 17.0128 247.791 16.6448 248.879 16.6448C250.255 16.6448 250.959 17.2368 250.959 18.2608C250.959 18.8848 250.767 19.5408 249.679 20.5808L245.231 24.8048V26.1968H253.487V24.4368H248.207ZM256.239 29.3008C257.503 27.3648 258.191 24.7568 258.191 21.8128C258.191 18.8688 257.503 16.2288 256.239 14.3248H254.335C255.663 16.6608 256.239 19.0768 256.239 21.8128C256.239 24.5488 255.663 26.9648 254.335 29.3008H256.239Z" fill="white"/>
<rect x="0.150513" y="0.189331" width="147.156" height="41.0435" fill="white"/>
</svg>
