<svg width="281" height="159" viewBox="0 0 281 159" fill="none" xmlns="http://www.w3.org/2000/svg">
<path d="M127.529 142.342C127.529 141.436 127.409 140.789 127.169 140.402C126.623 139.602 125.809 139.296 124.729 139.482C124.303 139.562 123.936 139.869 123.629 140.402C123.376 140.856 123.249 141.896 123.249 143.522V146.022C123.223 146.542 123.196 147.402 123.169 148.602C123.156 149.642 123.136 150.416 123.109 150.922C123.083 151.202 123.103 151.569 123.169 152.022C123.196 152.329 123.343 152.696 123.609 153.122C124.036 153.869 124.696 154.196 125.589 154.102C126.056 154.062 126.463 153.769 126.809 153.222C127.089 152.782 127.256 151.989 127.309 150.842C127.309 150.469 127.336 150.002 127.389 149.442L127.489 148.182C127.556 147.329 127.583 146.416 127.569 145.442L127.529 142.342ZM126.049 141.062C126.196 141.396 126.296 141.809 126.349 142.302C126.603 145.222 126.516 147.822 126.089 150.102C126.063 150.236 126.043 150.469 126.029 150.802C126.016 151.229 126.003 151.516 125.989 151.662C125.936 152.342 125.749 152.682 125.429 152.682C124.749 152.669 124.369 152.302 124.289 151.582C124.263 151.342 124.263 150.989 124.289 150.522C124.329 149.909 124.349 149.516 124.349 149.342L124.389 146.662C124.403 145.502 124.396 144.569 124.369 143.862C124.329 142.796 124.329 142.149 124.369 141.922C124.449 141.309 124.696 140.922 125.109 140.762C125.269 140.682 125.456 140.682 125.669 140.762C125.843 140.842 125.969 140.942 126.049 141.062ZM132.574 143.962C132.534 143.882 132.048 142.702 131.114 140.422C130.794 139.662 130.608 139.269 130.554 139.242C130.328 139.109 130.108 139.122 129.894 139.282C129.694 139.429 129.594 139.609 129.594 139.822C129.581 140.062 129.721 140.616 130.014 141.482C131.188 144.349 131.768 145.869 131.754 146.042C131.754 146.869 131.081 148.916 129.734 152.182C129.708 152.262 129.648 152.382 129.554 152.542C129.461 152.702 129.401 152.822 129.374 152.902C129.254 153.169 129.268 153.389 129.414 153.562C129.441 153.589 129.474 153.636 129.514 153.702C129.554 153.769 129.601 153.836 129.654 153.902C129.654 154.009 129.781 154.022 130.034 153.942C130.461 153.729 130.808 153.302 131.074 152.662C131.141 152.476 131.241 152.189 131.374 151.802C131.494 151.389 131.588 151.096 131.654 150.922L131.874 150.322C131.981 150.069 132.054 149.876 132.094 149.742C132.401 148.769 132.554 148.262 132.554 148.222C132.728 148.636 132.908 149.262 133.094 150.102C133.348 151.249 133.494 151.909 133.534 152.082C133.908 153.269 134.254 153.962 134.574 154.162C134.734 154.229 134.901 154.222 135.074 154.142C135.288 154.062 135.421 154.029 135.474 154.042C135.634 153.776 135.581 153.289 135.314 152.582C134.008 148.969 133.354 146.756 133.354 145.942C133.368 145.862 133.754 144.796 134.514 142.742C135.208 140.849 135.494 139.782 135.374 139.542C135.254 139.276 135.141 139.116 135.034 139.062C134.848 138.956 134.714 138.902 134.634 138.902C134.514 138.916 134.381 139.022 134.234 139.222C134.314 139.089 133.761 140.669 132.574 143.962ZM140.66 144.422C141.26 144.009 141.673 143.462 141.9 142.782C142.14 142.062 142.107 141.356 141.8 140.662C141.667 140.369 141.387 140.022 140.96 139.622C140.373 139.129 139.647 138.936 138.78 139.042C137.873 139.162 137.387 139.529 137.32 140.142C137.28 140.529 137.287 141.076 137.34 141.782C137.42 142.702 137.46 143.289 137.46 143.542L137.5 145.222C137.513 145.942 137.527 146.442 137.54 146.722C137.66 149.936 137.727 151.629 137.74 151.802C137.767 152.909 137.927 153.569 138.22 153.782C138.46 153.956 138.813 154.076 139.28 154.142C139.8 154.209 140.207 154.169 140.5 154.022C141.287 153.702 141.807 152.636 142.06 150.822C142.193 149.569 142.047 148.182 141.62 146.662C141.46 145.996 141.14 145.249 140.66 144.422ZM139.04 145.022C139.813 145.116 140.34 145.889 140.62 147.342C140.873 148.822 140.873 150.276 140.62 151.702C140.567 151.969 140.42 152.249 140.18 152.542C139.9 152.862 139.64 152.989 139.4 152.922C139.24 152.856 139.14 152.256 139.1 151.122L139.02 148.122C138.993 146.909 138.967 145.916 138.94 145.142C138.94 145.089 138.973 145.049 139.04 145.022ZM138.94 143.502C138.927 143.209 138.893 142.636 138.84 141.782C138.787 141.076 138.767 140.529 138.78 140.142C139.26 140.049 139.687 140.129 140.06 140.382C140.433 140.622 140.653 140.949 140.72 141.362C140.84 141.976 140.72 142.496 140.36 142.922C140.013 143.349 139.54 143.542 138.94 143.502ZM146.397 139.602C146.05 139.362 145.75 139.582 145.497 140.262C145.377 140.596 145.237 141.209 145.077 142.102L144.437 144.922C144.05 146.616 143.837 147.616 143.797 147.922C143.757 148.229 143.657 148.842 143.497 149.762C143.364 150.536 143.284 151.129 143.257 151.542C143.164 152.836 143.224 153.649 143.437 153.982C143.624 154.209 143.937 154.229 144.377 154.042C144.43 154.042 144.57 153.056 144.797 151.082C144.93 149.922 145.11 148.962 145.337 148.202C145.404 148.189 145.617 148.182 145.977 148.182C146.244 148.182 146.437 148.162 146.557 148.122C146.53 148.042 146.777 149.182 147.297 151.542C147.577 152.796 147.73 153.449 147.757 153.502C147.984 154.022 148.39 154.102 148.977 153.742C149.097 153.382 148.93 152.309 148.477 150.522C148.184 149.309 147.89 147.749 147.597 145.842L146.897 141.282C146.724 140.269 146.557 139.709 146.397 139.602ZM145.817 145.062C145.897 144.689 145.95 144.509 145.977 144.522C146.164 144.602 146.257 145.282 146.257 146.562C146.19 146.602 145.944 146.622 145.517 146.622C145.664 145.809 145.764 145.289 145.817 145.062ZM155.157 140.882C155.371 140.882 155.424 140.662 155.317 140.222C155.224 139.769 154.984 139.509 154.597 139.442C153.131 139.376 152.257 139.349 151.977 139.362C150.657 139.416 149.984 139.682 149.957 140.162C149.931 140.562 150.184 140.842 150.717 141.002C151.597 141.216 152.037 141.242 152.037 141.082C151.864 143.789 151.777 146.569 151.777 149.422L151.797 150.282C151.824 150.656 151.831 150.962 151.817 151.202C151.751 152.909 151.931 153.856 152.357 154.042C152.864 154.282 153.164 154.089 153.257 153.462C153.284 153.249 153.291 152.956 153.277 152.582V151.742C153.331 150.796 153.344 148.922 153.317 146.122C153.304 143.802 153.384 142.082 153.557 140.962C153.557 140.856 153.764 140.829 154.177 140.882C154.671 140.949 154.997 140.949 155.157 140.882Z" fill="black"/>
<rect x="12.3845" y="27.0287" width="118.125" height="97.103" fill="#94070A"/>
<rect x="150.531" width="118.125" height="124.132" fill="white"/>
<path d="M57.274 109.633H55.314V107.365H54.334V109.633H50.078L55.09 103.305H53.97L48.776 109.801V110.529H54.306V113.105H55.314V110.529H57.274V109.633ZM61.3268 107.505L64.0988 104.019V103.305H57.7988V104.201H62.8108L60.0948 107.603V108.345H60.7948C62.6148 108.345 63.4408 109.115 63.4408 110.291C63.4408 111.509 62.5448 112.265 60.9208 112.265C59.6468 112.265 58.5128 111.789 57.8828 111.131L57.3928 111.929C58.1488 112.699 59.5068 113.189 60.9208 113.189C63.2868 113.189 64.4768 111.929 64.4768 110.291C64.4768 108.723 63.4268 107.617 61.3268 107.505ZM65.2951 103.305V104.201H67.6051V113.105H68.6131V103.305H65.2951ZM74.0178 103.305V104.201H76.3278V113.105H77.3358V103.305H74.0178ZM83.0104 107.505L85.7824 104.019V103.305H79.4824V104.201H84.4944L81.7784 107.603V108.345H82.4784C84.2984 108.345 85.1244 109.115 85.1244 110.291C85.1244 111.509 84.2284 112.265 82.6044 112.265C81.3304 112.265 80.1964 111.789 79.5664 111.131L79.0764 111.929C79.8324 112.699 81.1904 113.189 82.6044 113.189C84.9704 113.189 86.1604 111.929 86.1604 110.291C86.1604 108.723 85.1104 107.617 83.0104 107.505ZM91.6407 107.239C90.2827 107.239 89.1347 107.841 88.6447 108.919C88.6167 108.625 88.6027 108.345 88.6027 108.121C88.6027 105.461 89.9607 104.103 92.0747 104.103C92.8027 104.103 93.4747 104.229 93.9787 104.565L94.3847 103.753C93.7687 103.375 92.9427 103.221 92.0607 103.221C89.4007 103.221 87.5807 104.957 87.5807 108.289C87.5807 111.383 88.9947 113.189 91.5987 113.189C93.5027 113.189 94.9447 112.013 94.9447 110.179C94.9447 108.387 93.5867 107.239 91.6407 107.239ZM91.5567 112.335C89.8627 112.335 88.9667 111.313 88.9667 110.235C88.9667 109.017 89.9887 108.093 91.4867 108.093C92.9987 108.093 93.9507 108.919 93.9507 110.207C93.9507 111.509 92.9707 112.335 91.5567 112.335Z" fill="white"/>
<path d="M191.903 109.633H189.943V107.365H188.963V109.633H184.707L189.719 103.305H188.599L183.405 109.801V110.529H188.935V113.105H189.943V110.529H191.903V109.633ZM198.58 107.967C199.588 107.575 200.148 106.833 200.148 105.811C200.148 104.215 198.762 103.221 196.69 103.221C194.618 103.221 193.26 104.215 193.26 105.811C193.26 106.833 193.806 107.575 194.8 107.967C193.582 108.373 192.91 109.199 192.91 110.375C192.91 112.111 194.338 113.189 196.69 113.189C199.028 113.189 200.498 112.111 200.498 110.375C200.498 109.213 199.812 108.373 198.58 107.967ZM194.268 105.839C194.268 104.747 195.206 104.075 196.69 104.075C198.16 104.075 199.126 104.747 199.126 105.853C199.126 106.917 198.216 107.603 196.69 107.603C195.164 107.603 194.268 106.917 194.268 105.839ZM196.69 112.335C194.954 112.335 193.932 111.579 193.932 110.361C193.932 109.157 194.954 108.401 196.69 108.401C198.426 108.401 199.462 109.157 199.462 110.361C199.462 111.579 198.426 112.335 196.69 112.335ZM204.945 103.221C203.041 103.221 201.599 104.397 201.599 106.231C201.599 108.023 202.957 109.171 204.903 109.171C206.261 109.171 207.409 108.569 207.899 107.491C207.927 107.785 207.941 108.065 207.941 108.289C207.941 110.949 206.583 112.307 204.469 112.307C203.741 112.307 203.069 112.181 202.565 111.845L202.159 112.657C202.775 113.035 203.601 113.189 204.483 113.189C207.143 113.189 208.963 111.453 208.963 108.121C208.963 105.027 207.549 103.221 204.945 103.221ZM205.057 108.317C203.545 108.317 202.593 107.491 202.593 106.203C202.593 104.901 203.573 104.075 204.987 104.075C206.681 104.075 207.577 105.097 207.577 106.175C207.577 107.393 206.555 108.317 205.057 108.317ZM215.391 112.209L218.723 108.933C220.039 107.645 220.333 106.805 220.333 105.867C220.333 104.229 219.073 103.221 217.085 103.221C215.587 103.221 214.369 103.725 213.613 104.621L214.327 105.237C214.971 104.495 215.853 104.145 217.001 104.145C218.499 104.145 219.297 104.845 219.297 105.979C219.297 106.651 219.087 107.309 217.981 108.401L213.907 112.391V113.105H220.781V112.209H215.391ZM224.622 107.323H223.362L223.698 104.201H228.178V103.305H222.816L222.312 108.219H224.398C226.89 108.219 227.674 109.003 227.674 110.263C227.674 111.453 226.792 112.265 225.126 112.265C223.866 112.265 222.746 111.789 222.116 111.131L221.626 111.929C222.382 112.699 223.726 113.189 225.14 113.189C227.534 113.189 228.696 111.887 228.696 110.221C228.696 108.485 227.576 107.323 224.622 107.323ZM232.483 107.323H231.223L231.559 104.201H236.039V103.305H230.677L230.173 108.219H232.259C234.751 108.219 235.535 109.003 235.535 110.263C235.535 111.453 234.653 112.265 232.987 112.265C231.727 112.265 230.607 111.789 229.977 111.131L229.487 111.929C230.243 112.699 231.587 113.189 233.001 113.189C235.395 113.189 236.557 111.887 236.557 110.221C236.557 108.485 235.437 107.323 232.483 107.323Z" fill="#94070A"/>
<rect x="0.371704" y="122.13" width="280.297" height="2.00212" fill="black"/>
</svg>
