<svg width="420" height="42" viewBox="0 0 420 42" fill="none" xmlns="http://www.w3.org/2000/svg">
<rect x="0.150513" y="0.35498" width="419.445" height="41.0435" fill="#94070A"/>
<path d="M169.623 29.4663H171.527C170.199 27.1303 169.639 24.7143 169.639 21.9783C169.639 19.2423 170.199 16.8263 171.527 14.4903H169.623C168.375 16.3943 167.671 19.0343 167.671 21.9783C167.671 24.9223 168.375 27.5303 169.623 29.4663ZM172.158 15.1623V16.9063H174.526V26.3623H176.606V15.1623H172.158ZM187.922 26.5223C190.594 26.5223 192.61 24.4423 192.61 20.7623C192.61 17.0823 190.594 15.0023 187.922 15.0023C185.266 15.0023 183.25 17.0823 183.25 20.7623C183.25 24.4423 185.266 26.5223 187.922 26.5223ZM187.922 24.7143C186.402 24.7143 185.346 23.4663 185.346 20.7623C185.346 18.0583 186.402 16.8103 187.922 16.8103C189.458 16.8103 190.514 18.0583 190.514 20.7623C190.514 23.4663 189.458 24.7143 187.922 24.7143ZM198.687 26.5223C201.359 26.5223 203.375 24.4423 203.375 20.7623C203.375 17.0823 201.359 15.0023 198.687 15.0023C196.031 15.0023 194.015 17.0823 194.015 20.7623C194.015 24.4423 196.031 26.5223 198.687 26.5223ZM198.687 24.7143C197.167 24.7143 196.111 23.4663 196.111 20.7623C196.111 18.0583 197.167 16.8103 198.687 16.8103C200.223 16.8103 201.279 18.0583 201.279 20.7623C201.279 23.4663 200.223 24.7143 198.687 24.7143ZM208.285 19.4983H207.213L207.453 16.9063H212.269V15.1623H205.693L205.117 21.2583H207.821C210.141 21.2583 210.829 21.9303 210.829 23.0023C210.829 24.0583 209.949 24.7143 208.461 24.7143C207.197 24.7143 205.981 24.2823 205.165 23.6103L204.285 25.2263C205.309 26.0423 206.909 26.5223 208.493 26.5223C211.501 26.5223 212.925 24.8903 212.925 22.9223C212.925 20.9383 211.597 19.4983 208.285 19.4983ZM217.97 15.1623V16.9063H220.338V26.3623H222.418V15.1623H217.97ZM228.416 15.0023C226.128 15.0023 224.32 16.4103 224.32 18.6343C224.32 20.7303 225.968 22.0743 228.176 22.0743C229.424 22.0743 230.496 21.6903 231.168 20.9063V20.9223C231.168 23.4663 229.84 24.7783 227.728 24.7783C226.944 24.7783 226.208 24.6343 225.6 24.2343L224.832 25.8023C225.584 26.2823 226.656 26.5223 227.776 26.5223C231.024 26.5223 233.264 24.4103 233.264 20.5703C233.264 16.9703 231.472 15.0023 228.416 15.0023ZM228.576 20.4423C227.216 20.4423 226.336 19.7063 226.336 18.5383C226.336 17.3703 227.232 16.6343 228.528 16.6343C230.016 16.6343 230.848 17.4663 230.848 18.5223C230.848 19.6263 229.92 20.4423 228.576 20.4423ZM234.017 15.1623V16.9063H236.385V26.3623H238.465V15.1623H234.017ZM242.239 29.4663C243.503 27.5303 244.191 24.9223 244.191 21.9783C244.191 19.0343 243.503 16.3943 242.239 14.4903H240.335C241.663 16.8263 242.239 19.2423 242.239 21.9783C242.239 24.7143 241.663 27.1303 240.335 29.4663H242.239Z" fill="white"/>
<rect x="0.150513" y="0.35498" width="147.156" height="41.0435" fill="white"/>
</svg>
