<svg width="759" height="42" viewBox="0 0 759 42" fill="none" xmlns="http://www.w3.org/2000/svg">
<rect x="0.150513" y="0.272095" width="758.805" height="41.0435" fill="#94070A"/>
<path d="M169.623 29.3835H171.527C170.199 27.0475 169.639 24.6315 169.639 21.8955C169.639 19.1595 170.199 16.7435 171.527 14.4075H169.623C168.375 16.3115 167.671 18.9515 167.671 21.8955C167.671 24.8395 168.375 27.4475 169.623 29.3835ZM172.158 15.0795V16.8235H174.526V26.2795H176.606V15.0795H172.158ZM182.604 14.9195C180.316 14.9195 178.508 16.3275 178.508 18.5515C178.508 20.6475 180.156 21.9915 182.364 21.9915C183.612 21.9915 184.684 21.6075 185.356 20.8235V20.8395C185.356 23.3835 184.028 24.6955 181.916 24.6955C181.132 24.6955 180.396 24.5515 179.788 24.1515L179.02 25.7195C179.772 26.1995 180.844 26.4395 181.964 26.4395C185.212 26.4395 187.452 24.3275 187.452 20.4875C187.452 16.8875 185.66 14.9195 182.604 14.9195ZM182.764 20.3595C181.404 20.3595 180.524 19.6235 180.524 18.4555C180.524 17.2875 181.42 16.5515 182.716 16.5515C184.204 16.5515 185.036 17.3835 185.036 18.4395C185.036 19.5435 184.108 20.3595 182.764 20.3595ZM198.843 21.9755H196.859V19.7195H194.907V21.9755H191.243L196.443 15.0795H194.219L188.699 22.2955V23.7355H194.843V26.2795H196.859V23.7355H198.843V21.9755ZM207.644 19.4155H206.572L206.812 16.8235H211.628V15.0795H205.052L204.476 21.1755H207.18C209.5 21.1755 210.188 21.8475 210.188 22.9195C210.188 23.9755 209.308 24.6315 207.82 24.6315C206.556 24.6315 205.34 24.1995 204.524 23.5275L203.644 25.1435C204.668 25.9595 206.268 26.4395 207.852 26.4395C210.86 26.4395 212.284 24.8075 212.284 22.8395C212.284 20.8555 210.956 19.4155 207.644 19.4155ZM217.26 14.9195C214.972 14.9195 213.164 16.3275 213.164 18.5515C213.164 20.6475 214.812 21.9915 217.02 21.9915C218.268 21.9915 219.34 21.6075 220.012 20.8235V20.8395C220.012 23.3835 218.684 24.6955 216.572 24.6955C215.788 24.6955 215.052 24.5515 214.444 24.1515L213.676 25.7195C214.428 26.1995 215.5 26.4395 216.62 26.4395C219.868 26.4395 222.108 24.3275 222.108 20.4875C222.108 16.8875 220.316 14.9195 217.26 14.9195ZM217.42 20.3595C216.06 20.3595 215.18 19.6235 215.18 18.4555C215.18 17.2875 216.076 16.5515 217.372 16.5515C218.86 16.5515 219.692 17.3835 219.692 18.4395C219.692 19.5435 218.764 20.3595 217.42 20.3595ZM228.127 19.7035L230.847 16.4715V15.0795H223.215V16.8235H228.303L225.759 19.8475V21.2715H226.783C228.479 21.2715 229.215 21.9275 229.215 22.9355C229.215 23.9755 228.335 24.6315 226.847 24.6315C225.583 24.6315 224.367 24.1995 223.567 23.5275L222.671 25.1435C223.711 25.9595 225.295 26.4395 226.879 26.4395C229.887 26.4395 231.311 24.8075 231.311 22.9195C231.311 21.2395 230.239 19.9755 228.127 19.7035ZM234.223 29.3835C235.487 27.4475 236.175 24.8395 236.175 21.8955C236.175 18.9515 235.487 16.3115 234.223 14.4075H232.319C233.647 16.7435 234.223 19.1595 234.223 21.8955C234.223 24.6315 233.647 27.0475 232.319 29.3835H234.223Z" fill="white"/>
<rect x="0.150513" y="0.272095" width="147.156" height="41.0435" fill="white"/>
</svg>
