<svg width="181" height="159" viewBox="0 0 181 159" fill="none" xmlns="http://www.w3.org/2000/svg">
<path d="M54.3924 141.002C54.4057 141.482 54.379 142.596 54.3124 144.342C54.2724 145.276 54.3057 146.809 54.4124 148.942C54.5057 150.996 54.5257 152.529 54.4724 153.542C54.4724 153.782 54.5524 153.942 54.7124 154.022C55.0324 154.182 55.279 154.156 55.4524 153.942C55.7324 153.662 55.859 152.989 55.8324 151.922L55.7324 146.882C55.679 144.669 55.6524 143.022 55.6524 141.942L55.6724 141.182C55.7924 140.076 55.639 139.522 55.2124 139.522C54.7457 139.509 54.1057 139.536 53.2924 139.602L51.9724 139.722C51.5857 139.722 51.3857 140.436 51.3724 141.862C51.359 142.302 51.3724 142.869 51.4124 143.562L51.4724 144.862C51.539 145.782 51.5724 147.802 51.5724 150.922C51.5724 151.136 51.559 151.469 51.5324 151.922C51.4924 152.416 51.4724 152.756 51.4724 152.942C51.4457 153.689 51.5457 154.082 51.7724 154.122C52.4124 154.469 52.7724 153.802 52.8524 152.122C52.9457 150.896 52.9457 149.056 52.8524 146.602C52.759 144.149 52.759 142.336 52.8524 141.162C52.8257 141.042 53.259 140.996 54.1524 141.022C54.2324 141.009 54.3124 141.002 54.3924 141.002ZM61.9332 142.342C61.9332 141.436 61.8132 140.789 61.5732 140.402C61.0265 139.602 60.2132 139.296 59.1332 139.482C58.7065 139.562 58.3398 139.869 58.0332 140.402C57.7798 140.856 57.6532 141.896 57.6532 143.522V146.022C57.6265 146.542 57.5998 147.402 57.5732 148.602C57.5598 149.642 57.5398 150.416 57.5132 150.922C57.4865 151.202 57.5065 151.569 57.5732 152.022C57.5998 152.329 57.7465 152.696 58.0132 153.122C58.4398 153.869 59.0998 154.196 59.9932 154.102C60.4598 154.062 60.8665 153.769 61.2132 153.222C61.4932 152.782 61.6598 151.989 61.7132 150.842C61.7132 150.469 61.7398 150.002 61.7932 149.442L61.8932 148.182C61.9598 147.329 61.9865 146.416 61.9732 145.442L61.9332 142.342ZM60.4532 141.062C60.5998 141.396 60.6998 141.809 60.7532 142.302C61.0065 145.222 60.9198 147.822 60.4932 150.102C60.4665 150.236 60.4465 150.469 60.4332 150.802C60.4198 151.229 60.4065 151.516 60.3932 151.662C60.3398 152.342 60.1532 152.682 59.8332 152.682C59.1532 152.669 58.7732 152.302 58.6932 151.582C58.6665 151.342 58.6665 150.989 58.6932 150.522C58.7332 149.909 58.7532 149.516 58.7532 149.342L58.7932 146.662C58.8065 145.502 58.7998 144.569 58.7732 143.862C58.7332 142.796 58.7332 142.149 58.7732 141.922C58.8532 141.309 59.0998 140.922 59.5132 140.762C59.6732 140.682 59.8598 140.682 60.0732 140.762C60.2465 140.842 60.3732 140.942 60.4532 141.062ZM63.6782 153.822C63.8782 153.916 64.1048 153.976 64.3582 154.002C64.4248 154.016 64.5115 154.022 64.6182 154.022C65.1782 153.956 65.5648 153.549 65.7782 152.802C65.9515 152.269 66.0248 151.429 65.9982 150.282C65.9715 149.549 65.9248 148.169 65.8582 146.142C65.8048 144.289 65.7715 142.896 65.7582 141.962V140.762C66.4382 140.829 66.7782 140.909 66.7782 141.002C66.9248 142.176 67.0248 143.989 67.0782 146.442C66.9982 148.882 67.0115 150.836 67.1182 152.302C67.2382 153.756 67.6115 154.309 68.2382 153.962C68.4515 153.922 68.5248 153.522 68.4582 152.762C68.2582 148.309 68.1648 145.622 68.1782 144.702L68.1582 143.402C68.1448 142.709 68.1248 142.142 68.0982 141.702C68.1382 140.276 67.9648 139.562 67.5782 139.562L66.0382 139.442C65.2115 139.362 64.5715 139.336 64.1182 139.362C63.6782 139.362 63.5382 139.689 63.6982 140.342C63.7382 140.462 64.0115 140.562 64.5182 140.642C64.5048 141.042 64.4982 141.542 64.4982 142.142L64.5782 144.562C64.6048 145.576 64.6115 146.336 64.5982 146.842L64.6582 148.182C64.6982 148.929 64.7115 149.562 64.6982 150.082C64.6982 151.602 64.5915 152.442 64.3782 152.602L64.1582 152.582C63.6782 152.462 63.3915 152.609 63.2982 153.022C63.2048 153.436 63.3315 153.702 63.6782 153.822ZM73.6799 147.342C73.9332 148.822 73.9332 150.276 73.6799 151.702C73.6265 151.969 73.4799 152.249 73.2399 152.542C72.9599 152.862 72.6999 152.989 72.4599 152.922C72.2999 152.856 72.1999 152.256 72.1599 151.122L72.0799 148.122C72.0665 147.229 72.0465 146.596 72.0199 146.222C72.0199 146.169 72.0532 146.129 72.1199 146.102C72.9732 145.689 73.4932 146.102 73.6799 147.342ZM70.7799 139.022C70.4332 139.129 70.2665 139.429 70.2799 139.922C70.2799 140.082 70.3199 140.702 70.3999 141.782C70.4799 142.702 70.5199 143.289 70.5199 143.542L70.5599 145.222C70.5865 145.942 70.5999 146.442 70.5999 146.722C70.7199 149.936 70.7865 151.629 70.7999 151.802C70.8265 152.909 70.9865 153.569 71.2799 153.782C71.5199 153.956 71.8799 154.076 72.3599 154.142C72.8665 154.209 73.2665 154.169 73.5599 154.022C74.3465 153.702 74.8665 152.636 75.1199 150.822C75.2532 149.569 75.1799 148.162 74.8999 146.602C74.3799 144.962 73.4132 144.442 71.9999 145.042C71.9999 144.749 71.9665 143.662 71.8999 141.782C71.8732 141.422 71.8532 140.876 71.8399 140.142C71.8265 139.409 71.6732 139.042 71.3799 139.042H71.1199L70.7799 139.022ZM79.415 139.242C78.135 139.442 77.295 140.336 76.895 141.922L76.715 142.482C76.6884 142.949 76.835 143.276 77.155 143.462C77.5284 143.689 77.8084 143.589 77.995 143.162C78.0617 143.029 78.1284 142.829 78.195 142.562C78.2617 142.282 78.315 142.102 78.355 142.022C78.7284 141.236 79.1484 140.842 79.615 140.842C80.1217 140.842 80.455 141.089 80.615 141.582C80.775 142.236 80.655 143.122 80.255 144.242C80.055 144.856 79.675 145.356 79.115 145.742C78.4217 146.196 78.0617 146.442 78.035 146.482C77.9017 146.789 77.915 147.096 78.075 147.402C78.2217 147.642 78.4084 147.809 78.635 147.902C78.835 147.982 79.175 147.976 79.655 147.882C80.095 147.776 80.375 147.776 80.495 147.882C80.695 148.029 80.8217 148.449 80.875 149.142C80.955 149.676 80.975 150.196 80.935 150.702C80.8417 151.676 80.6417 152.236 80.335 152.382C79.9084 152.569 79.5817 152.596 79.355 152.462C79.275 152.409 79.1684 152.316 79.035 152.182L78.615 151.762C78.4017 151.576 78.175 151.542 77.935 151.662C77.6817 151.796 77.535 152.069 77.495 152.482C77.4684 152.802 77.5484 153.042 77.735 153.202C78.3617 153.816 79.135 154.089 80.055 154.022C80.7084 153.956 81.235 153.722 81.635 153.322C82.0084 152.882 82.2484 152.296 82.355 151.562C82.635 149.909 82.4417 148.449 81.775 147.182C81.7484 147.129 81.6084 146.976 81.355 146.722C81.1284 146.496 81.015 146.309 81.015 146.162C81.015 146.016 81.1217 145.782 81.335 145.462C81.5884 145.102 81.7284 144.842 81.755 144.682C81.995 143.536 82.115 142.982 82.115 143.022C82.2084 141.702 81.9884 140.756 81.455 140.182C80.7884 139.462 80.1084 139.149 79.415 139.242ZM88.6105 142.342C88.6105 141.436 88.4905 140.789 88.2505 140.402C87.7038 139.602 86.8905 139.296 85.8105 139.482C85.3838 139.562 85.0172 139.869 84.7105 140.402C84.4572 140.856 84.3305 141.896 84.3305 143.522V146.022C84.3038 146.542 84.2772 147.402 84.2505 148.602C84.2372 149.642 84.2172 150.416 84.1905 150.922C84.1638 151.202 84.1838 151.569 84.2505 152.022C84.2772 152.329 84.4238 152.696 84.6905 153.122C85.1172 153.869 85.7772 154.196 86.6705 154.102C87.1372 154.062 87.5438 153.769 87.8905 153.222C88.1705 152.782 88.3372 151.989 88.3905 150.842C88.3905 150.469 88.4172 150.002 88.4705 149.442L88.5705 148.182C88.6372 147.329 88.6638 146.416 88.6505 145.442L88.6105 142.342ZM87.1305 141.062C87.2772 141.396 87.3772 141.809 87.4305 142.302C87.6838 145.222 87.5972 147.822 87.1705 150.102C87.1438 150.236 87.1238 150.469 87.1105 150.802C87.0972 151.229 87.0838 151.516 87.0705 151.662C87.0172 152.342 86.8305 152.682 86.5105 152.682C85.8305 152.669 85.4505 152.302 85.3705 151.582C85.3438 151.342 85.3438 150.989 85.3705 150.522C85.4105 149.909 85.4305 149.516 85.4305 149.342L85.4705 146.662C85.4838 145.502 85.4772 144.569 85.4505 143.862C85.4105 142.796 85.4105 142.149 85.4505 141.922C85.5305 141.309 85.7772 140.922 86.1905 140.762C86.3505 140.682 86.5372 140.682 86.7505 140.762C86.9238 140.842 87.0505 140.942 87.1305 141.062ZM93.8755 144.422C94.4755 144.009 94.8888 143.462 95.1155 142.782C95.3555 142.062 95.3222 141.356 95.0155 140.662C94.8822 140.369 94.6022 140.022 94.1755 139.622C93.5888 139.129 92.8622 138.936 91.9955 139.042C91.0888 139.162 90.6022 139.529 90.5355 140.142C90.4955 140.529 90.5022 141.076 90.5555 141.782C90.6355 142.702 90.6755 143.289 90.6755 143.542L90.7155 145.222C90.7288 145.942 90.7422 146.442 90.7555 146.722C90.8755 149.936 90.9422 151.629 90.9555 151.802C90.9822 152.909 91.1422 153.569 91.4355 153.782C91.6755 153.956 92.0288 154.076 92.4955 154.142C93.0155 154.209 93.4222 154.169 93.7155 154.022C94.5022 153.702 95.0222 152.636 95.2755 150.822C95.4088 149.569 95.2622 148.182 94.8355 146.662C94.6755 145.996 94.3555 145.249 93.8755 144.422ZM92.2555 145.022C93.0288 145.116 93.5555 145.889 93.8355 147.342C94.0888 148.822 94.0888 150.276 93.8355 151.702C93.7822 151.969 93.6355 152.249 93.3955 152.542C93.1155 152.862 92.8555 152.989 92.6155 152.922C92.4555 152.856 92.3555 152.256 92.3155 151.122L92.2355 148.122C92.2088 146.909 92.1822 145.916 92.1555 145.142C92.1555 145.089 92.1888 145.049 92.2555 145.022ZM92.1555 143.502C92.1422 143.209 92.1088 142.636 92.0555 141.782C92.0022 141.076 91.9822 140.529 91.9955 140.142C92.4755 140.049 92.9022 140.129 93.2755 140.382C93.6488 140.622 93.8688 140.949 93.9355 141.362C94.0555 141.976 93.9355 142.496 93.5755 142.922C93.2288 143.349 92.7555 143.542 92.1555 143.502ZM99.6125 139.602C99.2659 139.362 98.9659 139.582 98.7125 140.262C98.5925 140.596 98.4525 141.209 98.2925 142.102L97.6525 144.922C97.2659 146.616 97.0525 147.616 97.0125 147.922C96.9725 148.229 96.8725 148.842 96.7125 149.762C96.5792 150.536 96.4992 151.129 96.4725 151.542C96.3792 152.836 96.4392 153.649 96.6525 153.982C96.8392 154.209 97.1525 154.229 97.5925 154.042C97.6459 154.042 97.7859 153.056 98.0125 151.082C98.1459 149.922 98.3259 148.962 98.5525 148.202C98.6192 148.189 98.8325 148.182 99.1925 148.182C99.4592 148.182 99.6525 148.162 99.7725 148.122C99.7459 148.042 99.9925 149.182 100.513 151.542C100.793 152.796 100.946 153.449 100.973 153.502C101.199 154.022 101.606 154.102 102.193 153.742C102.313 153.382 102.146 152.309 101.693 150.522C101.399 149.309 101.106 147.749 100.813 145.842L100.113 141.282C99.9392 140.269 99.7725 139.709 99.6125 139.602ZM99.0325 145.062C99.1125 144.689 99.1659 144.509 99.1925 144.522C99.3792 144.602 99.4725 145.282 99.4725 146.562C99.4059 146.602 99.1592 146.622 98.7325 146.622C98.8792 145.809 98.9792 145.289 99.0325 145.062ZM108.373 140.882C108.586 140.882 108.64 140.662 108.533 140.222C108.44 139.769 108.2 139.509 107.813 139.442C106.346 139.376 105.473 139.349 105.193 139.362C103.873 139.416 103.2 139.682 103.173 140.162C103.146 140.562 103.4 140.842 103.933 141.002C104.813 141.216 105.253 141.242 105.253 141.082C105.08 143.789 104.993 146.569 104.993 149.422L105.013 150.282C105.04 150.656 105.046 150.962 105.033 151.202C104.966 152.909 105.146 153.856 105.573 154.042C106.08 154.282 106.38 154.089 106.473 153.462C106.5 153.249 106.506 152.956 106.493 152.582V151.742C106.546 150.796 106.56 148.922 106.533 146.122C106.52 143.802 106.6 142.082 106.773 140.962C106.773 140.856 106.98 140.829 107.393 140.882C107.886 140.949 108.213 140.949 108.373 140.882ZM110.994 141.122C111.221 140.962 111.661 140.869 112.314 140.842C112.861 140.816 113.221 140.656 113.394 140.362C113.541 140.096 113.527 139.876 113.354 139.702C113.167 139.542 112.894 139.489 112.534 139.542C111.027 139.796 110.234 139.942 110.154 139.982C109.714 140.209 109.534 140.802 109.614 141.762C109.747 143.016 109.821 143.889 109.834 144.382C109.967 147.489 110.147 150.409 110.374 153.142C110.374 153.822 110.581 154.162 110.994 154.162C111.887 154.096 112.774 154.016 113.654 153.922C113.787 153.922 113.901 153.782 113.994 153.502C114.087 153.236 114.067 153.062 113.934 152.982C113.401 152.716 112.714 152.696 111.874 152.922C111.781 152.269 111.701 151.356 111.634 150.182C111.554 148.836 111.487 147.909 111.434 147.402C111.941 147.229 112.207 147.022 112.234 146.782C112.301 146.422 111.987 146.176 111.294 146.042C111.307 145.496 111.261 144.669 111.154 143.562C111.047 142.469 110.994 141.656 110.994 141.122ZM115.334 153.822C115.534 153.916 115.76 153.976 116.014 154.002C116.08 154.016 116.167 154.022 116.274 154.022C116.834 153.956 117.22 153.549 117.434 152.802C117.607 152.269 117.68 151.429 117.654 150.282C117.627 149.549 117.58 148.169 117.514 146.142C117.46 144.289 117.427 142.896 117.414 141.962V140.762C118.094 140.829 118.434 140.909 118.434 141.002C118.58 142.176 118.68 143.989 118.734 146.442C118.654 148.882 118.667 150.836 118.774 152.302C118.894 153.756 119.267 154.309 119.894 153.962C120.107 153.922 120.18 153.522 120.114 152.762C119.914 148.309 119.82 145.622 119.834 144.702L119.814 143.402C119.8 142.709 119.78 142.142 119.754 141.702C119.794 140.276 119.62 139.562 119.234 139.562L117.694 139.442C116.867 139.362 116.227 139.336 115.774 139.362C115.334 139.362 115.194 139.689 115.354 140.342C115.394 140.462 115.667 140.562 116.174 140.642C116.16 141.042 116.154 141.542 116.154 142.142L116.234 144.562C116.26 145.576 116.267 146.336 116.254 146.842L116.314 148.182C116.354 148.929 116.367 149.562 116.354 150.082C116.354 151.602 116.247 152.442 116.034 152.602L115.814 152.582C115.334 152.462 115.047 152.609 114.954 153.022C114.86 153.436 114.987 153.702 115.334 153.822ZM123.335 153.962C123.869 152.696 124.469 150.136 125.135 146.282L124.795 152.862C124.782 153.289 124.829 153.649 124.935 153.942C125.069 154.276 125.262 154.402 125.515 154.322C125.929 154.429 126.142 154.102 126.155 153.342C126.142 152.956 126.169 152.176 126.235 151.002C126.289 149.949 126.302 149.122 126.275 148.522C126.262 147.989 126.262 146.509 126.275 144.082C126.289 142.336 126.222 140.969 126.075 139.982C126.022 139.676 125.849 139.576 125.555 139.682C125.249 139.789 125.055 140.129 124.975 140.702C124.989 140.662 124.929 141.022 124.795 141.782C124.689 142.382 124.635 142.776 124.635 142.962C124.609 144.336 124.215 146.069 123.455 148.162C123.229 148.962 123.135 149.316 123.175 149.222L123.235 142.502C123.262 141.476 123.255 140.822 123.215 140.542C123.109 139.849 122.835 139.496 122.395 139.482C122.115 139.482 121.955 139.696 121.915 140.122L121.935 141.382L121.895 142.982C121.855 143.849 121.849 145.189 121.875 147.002C121.902 149.056 121.909 150.389 121.895 151.002C121.869 152.549 121.915 153.589 122.035 154.122C122.155 154.336 122.335 154.442 122.575 154.442C122.855 154.456 123.109 154.296 123.335 153.962Z" fill="black"/>
<rect x="11.2239" width="68.0722" height="124.132" fill="#94070A"/>
<rect x="99.3174" y="27.0287" width="68.0722" height="97.103" fill="white"/>
<path d="M27.4051 107.505L30.1771 104.019V103.305H23.8771V104.201H28.8891L26.1731 107.603V108.345H26.8731C28.6931 108.345 29.5191 109.115 29.5191 110.291C29.5191 111.509 28.6231 112.265 26.9991 112.265C25.7251 112.265 24.5911 111.789 23.9611 111.131L23.4711 111.929C24.2271 112.699 25.5851 113.189 26.9991 113.189C29.3651 113.189 30.5551 111.929 30.5551 110.291C30.5551 108.723 29.5051 107.617 27.4051 107.505ZM31.5177 103.305V106.035H32.5117V104.201H37.5517L33.5197 113.105H34.6117L38.7137 104.019V103.305H31.5177ZM47.7659 107.239C46.4079 107.239 45.2599 107.841 44.7699 108.919C44.7419 108.625 44.7279 108.345 44.7279 108.121C44.7279 105.461 46.0859 104.103 48.1999 104.103C48.9279 104.103 49.5999 104.229 50.1039 104.565L50.5099 103.753C49.8939 103.375 49.0679 103.221 48.1859 103.221C45.5259 103.221 43.7059 104.957 43.7059 108.289C43.7059 111.383 45.1199 113.189 47.7239 113.189C49.6279 113.189 51.0699 112.013 51.0699 110.179C51.0699 108.387 49.7119 107.239 47.7659 107.239ZM47.6819 112.335C45.9879 112.335 45.0919 111.313 45.0919 110.235C45.0919 109.017 46.1139 108.093 47.6119 108.093C49.1239 108.093 50.0759 108.919 50.0759 110.207C50.0759 111.509 49.0959 112.335 47.6819 112.335ZM56.2971 107.239C54.9391 107.239 53.7911 107.841 53.3011 108.919C53.2731 108.625 53.2591 108.345 53.2591 108.121C53.2591 105.461 54.6171 104.103 56.7311 104.103C57.4591 104.103 58.1311 104.229 58.6351 104.565L59.0411 103.753C58.4251 103.375 57.5991 103.221 56.7171 103.221C54.0571 103.221 52.2371 104.957 52.2371 108.289C52.2371 111.383 53.6511 113.189 56.2551 113.189C58.1591 113.189 59.6011 112.013 59.6011 110.179C59.6011 108.387 58.2431 107.239 56.2971 107.239ZM56.2131 112.335C54.5191 112.335 53.6231 111.313 53.6231 110.235C53.6231 109.017 54.6451 108.093 56.1431 108.093C57.6551 108.093 58.6071 108.919 58.6071 110.207C58.6071 111.509 57.6271 112.335 56.2131 112.335ZM60.379 103.305V106.035H61.373V104.201H66.413L62.381 113.105H63.473L67.575 104.019V103.305H60.379Z" fill="white"/>
<path d="M113.561 107.505L116.333 104.019V103.305H110.033V104.201H115.045L112.329 107.603V108.345H113.029C114.849 108.345 115.675 109.115 115.675 110.291C115.675 111.509 114.779 112.265 113.155 112.265C111.881 112.265 110.747 111.789 110.117 111.131L109.627 111.929C110.383 112.699 111.741 113.189 113.155 113.189C115.521 113.189 116.711 111.929 116.711 110.291C116.711 108.723 115.661 107.617 113.561 107.505ZM117.674 103.305V106.035H118.668V104.201H123.708L119.676 113.105H120.768L124.87 104.019V103.305H117.674ZM133.922 107.239C132.564 107.239 131.416 107.841 130.926 108.919C130.898 108.625 130.884 108.345 130.884 108.121C130.884 105.461 132.242 104.103 134.356 104.103C135.084 104.103 135.756 104.229 136.26 104.565L136.666 103.753C136.05 103.375 135.224 103.221 134.342 103.221C131.682 103.221 129.862 104.957 129.862 108.289C129.862 111.383 131.276 113.189 133.88 113.189C135.784 113.189 137.226 112.013 137.226 110.179C137.226 108.387 135.868 107.239 133.922 107.239ZM133.838 112.335C132.144 112.335 131.248 111.313 131.248 110.235C131.248 109.017 132.27 108.093 133.768 108.093C135.28 108.093 136.232 108.919 136.232 110.207C136.232 111.509 135.252 112.335 133.838 112.335ZM142.299 113.189C144.567 113.189 146.219 111.327 146.219 108.205C146.219 105.083 144.567 103.221 142.299 103.221C140.031 103.221 138.393 105.083 138.393 108.205C138.393 111.327 140.031 113.189 142.299 113.189ZM142.299 112.265C140.591 112.265 139.415 110.823 139.415 108.205C139.415 105.587 140.591 104.145 142.299 104.145C144.007 104.145 145.183 105.587 145.183 108.205C145.183 110.823 144.007 112.265 142.299 112.265ZM151.568 113.189C153.836 113.189 155.488 111.327 155.488 108.205C155.488 105.083 153.836 103.221 151.568 103.221C149.3 103.221 147.662 105.083 147.662 108.205C147.662 111.327 149.3 113.189 151.568 113.189ZM151.568 112.265C149.86 112.265 148.684 110.823 148.684 108.205C148.684 105.587 149.86 104.145 151.568 104.145C153.276 104.145 154.452 105.587 154.452 108.205C154.452 110.823 153.276 112.265 151.568 112.265Z" fill="#94070A"/>
<rect x="0.211914" y="122.13" width="180.191" height="2.00212" fill="black"/>
</svg>
