<svg width="181" height="159" viewBox="0 0 181 159" fill="none" xmlns="http://www.w3.org/2000/svg">
<path d="M71.2256 139.482C70.3456 139.629 69.7456 140.229 69.4256 141.282C69.2256 141.962 69.1522 143.742 69.2056 146.622C69.2056 146.476 69.2589 147.656 69.3656 150.162C69.4989 151.762 69.7122 152.809 70.0056 153.302C70.3922 153.942 70.9856 154.269 71.7856 154.282C72.5989 154.296 73.2122 153.996 73.6256 153.382C73.9056 152.956 74.0322 152.689 74.0056 152.582C74.0056 152.489 73.9456 152.376 73.8256 152.242C73.6789 152.069 73.5189 152.009 73.3456 152.062C73.0522 152.156 72.8722 152.349 72.8056 152.642C72.7522 152.909 72.4922 153.082 72.0256 153.162C71.4922 153.269 71.1256 152.429 70.9256 150.642C70.7389 148.976 70.6789 146.622 70.7456 143.582C70.7722 142.742 70.8189 142.169 70.8856 141.862C71.0322 141.169 71.3256 140.889 71.7656 141.022C72.0856 141.116 72.3789 141.462 72.6456 142.062C72.7656 142.302 72.9856 142.316 73.3056 142.102C73.6389 141.889 73.7322 141.576 73.5856 141.162C73.3856 140.496 73.1189 140.069 72.7856 139.882C72.2789 139.536 71.7589 139.402 71.2256 139.482ZM76.4906 141.122C76.7172 140.962 77.1572 140.869 77.8106 140.842C78.3572 140.816 78.7172 140.656 78.8906 140.362C79.0372 140.096 79.0239 139.876 78.8506 139.702C78.6639 139.542 78.3906 139.489 78.0306 139.542C76.5239 139.796 75.7306 139.942 75.6506 139.982C75.2106 140.209 75.0306 140.802 75.1106 141.762C75.2439 143.016 75.3172 143.889 75.3306 144.382C75.4639 147.489 75.6439 150.409 75.8706 153.142C75.8706 153.822 76.0772 154.162 76.4906 154.162C77.3839 154.096 78.2706 154.016 79.1506 153.922C79.2839 153.922 79.3972 153.782 79.4906 153.502C79.5839 153.236 79.5639 153.062 79.4306 152.982C78.8972 152.716 78.2106 152.696 77.3706 152.922C77.2772 152.269 77.1972 151.356 77.1306 150.182C77.0506 148.836 76.9839 147.909 76.9306 147.402C77.4372 147.229 77.7039 147.022 77.7306 146.782C77.7972 146.422 77.4839 146.176 76.7906 146.042C76.8039 145.496 76.7572 144.669 76.6506 143.562C76.5439 142.469 76.4906 141.656 76.4906 141.122ZM83.5301 139.602C83.1834 139.362 82.8834 139.582 82.6301 140.262C82.5101 140.596 82.3701 141.209 82.2101 142.102L81.5701 144.922C81.1834 146.616 80.9701 147.616 80.9301 147.922C80.8901 148.229 80.7901 148.842 80.6301 149.762C80.4968 150.536 80.4168 151.129 80.3901 151.542C80.2968 152.836 80.3568 153.649 80.5701 153.982C80.7568 154.209 81.0701 154.229 81.5101 154.042C81.5634 154.042 81.7034 153.056 81.9301 151.082C82.0634 149.922 82.2434 148.962 82.4701 148.202C82.5368 148.189 82.7501 148.182 83.1101 148.182C83.3768 148.182 83.5701 148.162 83.6901 148.122C83.6634 148.042 83.9101 149.182 84.4301 151.542C84.7101 152.796 84.8634 153.449 84.8901 153.502C85.1168 154.022 85.5234 154.102 86.1101 153.742C86.2301 153.382 86.0634 152.309 85.6101 150.522C85.3168 149.309 85.0234 147.749 84.7301 145.842L84.0301 141.282C83.8568 140.269 83.6901 139.709 83.5301 139.602ZM82.9501 145.062C83.0301 144.689 83.0834 144.509 83.1101 144.522C83.2968 144.602 83.3901 145.282 83.3901 146.562C83.3234 146.602 83.0768 146.622 82.6501 146.622C82.7968 145.809 82.8968 145.289 82.9501 145.062ZM91.0104 139.302C90.8104 139.302 90.6371 139.476 90.4904 139.822C90.3837 140.102 90.3637 141.089 90.4304 142.782C90.4837 144.422 90.4771 145.289 90.4104 145.382C90.3837 145.409 90.1104 145.436 89.5904 145.462C89.0437 145.502 88.7704 145.489 88.7704 145.422C88.7037 145.356 88.6771 144.376 88.6904 142.482C88.7037 140.629 88.6104 139.656 88.4104 139.562C88.1571 139.469 87.9437 139.496 87.7704 139.642C87.6371 139.762 87.5504 139.929 87.5104 140.142C87.4971 140.222 87.4904 140.889 87.4904 142.142L87.4704 150.082C87.4704 150.309 87.4571 150.742 87.4304 151.382C87.4171 151.969 87.4104 152.409 87.4104 152.702C87.4371 153.662 87.5837 154.136 87.8504 154.122C88.2771 154.149 88.5237 154.109 88.5904 154.002C88.7504 153.709 88.7971 152.989 88.7304 151.842C88.5571 148.576 88.5837 146.942 88.8104 146.942C89.7704 146.729 90.3037 146.716 90.4104 146.902C90.5304 148.729 90.5837 150.616 90.5704 152.562C90.5704 153.256 90.6304 153.722 90.7504 153.962C90.9504 154.109 91.1837 154.142 91.4504 154.062C91.7037 153.929 91.8304 153.676 91.8304 153.302C91.8171 149.102 91.7037 144.502 91.4904 139.502C91.4904 139.369 91.3304 139.302 91.0104 139.302ZM95.5592 139.482C94.6792 139.629 94.0792 140.229 93.7592 141.282C93.5592 141.962 93.4858 143.742 93.5392 146.622C93.5392 146.476 93.5925 147.656 93.6992 150.162C93.8325 151.762 94.0458 152.809 94.3392 153.302C94.7258 153.942 95.3192 154.269 96.1192 154.282C96.9325 154.296 97.5458 153.996 97.9592 153.382C98.2392 152.956 98.3658 152.689 98.3392 152.582C98.3392 152.489 98.2792 152.376 98.1592 152.242C98.0125 152.069 97.8525 152.009 97.6792 152.062C97.3858 152.156 97.2058 152.349 97.1392 152.642C97.0858 152.909 96.8258 153.082 96.3592 153.162C95.8258 153.269 95.4592 152.429 95.2592 150.642C95.0725 148.976 95.0125 146.622 95.0792 143.582C95.1058 142.742 95.1525 142.169 95.2192 141.862C95.3658 141.169 95.6592 140.889 96.0992 141.022C96.4192 141.116 96.7125 141.462 96.9792 142.062C97.0992 142.302 97.3192 142.316 97.6392 142.102C97.9725 141.889 98.0658 141.576 97.9192 141.162C97.7192 140.496 97.4525 140.069 97.1192 139.882C96.6125 139.536 96.0925 139.402 95.5592 139.482ZM103.144 147.342C103.397 148.822 103.397 150.276 103.144 151.702C103.091 151.969 102.944 152.249 102.704 152.542C102.424 152.862 102.164 152.989 101.924 152.922C101.764 152.856 101.664 152.256 101.624 151.122L101.544 148.122C101.531 147.229 101.511 146.596 101.484 146.222C101.484 146.169 101.517 146.129 101.584 146.102C102.437 145.689 102.957 146.102 103.144 147.342ZM100.244 139.022C99.8975 139.129 99.7308 139.429 99.7442 139.922C99.7442 140.082 99.7842 140.702 99.8642 141.782C99.9442 142.702 99.9842 143.289 99.9842 143.542L100.024 145.222C100.051 145.942 100.064 146.442 100.064 146.722C100.184 149.936 100.251 151.629 100.264 151.802C100.291 152.909 100.451 153.569 100.744 153.782C100.984 153.956 101.344 154.076 101.824 154.142C102.331 154.209 102.731 154.169 103.024 154.022C103.811 153.702 104.331 152.636 104.584 150.822C104.717 149.569 104.644 148.162 104.364 146.602C103.844 144.962 102.877 144.442 101.464 145.042C101.464 144.749 101.431 143.662 101.364 141.782C101.337 141.422 101.317 140.876 101.304 140.142C101.291 139.409 101.137 139.042 100.844 139.042H100.584L100.244 139.022ZM106.744 153.522C106.637 152.456 106.591 150.836 106.604 148.662C106.617 146.436 106.584 144.829 106.504 143.842C106.304 141.042 106.211 139.676 106.224 139.742C106.104 139.009 105.871 138.729 105.524 138.902C105.204 139.036 105.031 139.342 105.004 139.822C104.991 139.969 104.997 140.202 105.024 140.522L105.064 141.322C105.117 142.456 105.164 144.182 105.204 146.502L105.304 151.802C105.331 152.922 105.491 153.636 105.784 153.942C105.971 154.156 106.217 154.182 106.524 154.022C106.684 153.929 106.757 153.762 106.744 153.522Z" fill="black"/>
<rect x="11.0115" y="0.00012207" width="68.0722" height="124.132" fill="#94070A"/>
<rect x="99.1049" y="27.0288" width="68.0722" height="97.103" fill="white"/>
<path d="M31.4066 109.633H29.4466V107.365H28.4666V109.633H24.2106L29.2226 103.305H28.1026L22.9086 109.801V110.529H28.4386V113.105H29.4466V110.529H31.4066V109.633ZM34.8538 107.323H33.5938L33.9298 104.201H38.4098V103.305H33.0478L32.5438 108.219H34.6298C37.1218 108.219 37.9058 109.003 37.9058 110.263C37.9058 111.453 37.0238 112.265 35.3578 112.265C34.0978 112.265 32.9778 111.789 32.3478 111.131L31.8578 111.929C32.6138 112.699 33.9578 113.189 35.3718 113.189C37.7658 113.189 38.9278 111.887 38.9278 110.221C38.9278 108.485 37.8078 107.323 34.8538 107.323ZM43.5916 103.305V106.035H44.5856V104.201H49.6256L45.5936 113.105H46.6856L50.7876 104.019V103.305H43.5916ZM55.3246 107.505L58.0966 104.019V103.305H51.7966V104.201H56.8086L54.0926 107.603V108.345H54.7926C56.6126 108.345 57.4386 109.115 57.4386 110.291C57.4386 111.509 56.5426 112.265 54.9186 112.265C53.6446 112.265 52.5106 111.789 51.8806 111.131L51.3906 111.929C52.1466 112.699 53.5046 113.189 54.9186 113.189C57.2846 113.189 58.4746 111.929 58.4746 110.291C58.4746 108.723 57.4246 107.617 55.3246 107.505ZM62.947 103.221C61.043 103.221 59.601 104.397 59.601 106.231C59.601 108.023 60.959 109.171 62.905 109.171C64.263 109.171 65.411 108.569 65.901 107.491C65.929 107.785 65.943 108.065 65.943 108.289C65.943 110.949 64.585 112.307 62.471 112.307C61.743 112.307 61.071 112.181 60.567 111.845L60.161 112.657C60.777 113.035 61.603 113.189 62.485 113.189C65.145 113.189 66.965 111.453 66.965 108.121C66.965 105.027 65.551 103.221 62.947 103.221ZM63.059 108.317C61.547 108.317 60.595 107.491 60.595 106.203C60.595 104.901 61.575 104.075 62.989 104.075C64.683 104.075 65.579 105.097 65.579 106.175C65.579 107.393 64.557 108.317 63.059 108.317Z" fill="white"/>
<path d="M117.635 109.633H115.675V107.365H114.695V109.633H110.439L115.451 103.305H114.331L109.137 109.801V110.529H114.667V113.105H115.675V110.529H117.635V109.633ZM121.082 107.323H119.822L120.158 104.201H124.638V103.305H119.276L118.772 108.219H120.858C123.35 108.219 124.134 109.003 124.134 110.263C124.134 111.453 123.252 112.265 121.586 112.265C120.326 112.265 119.206 111.789 118.576 111.131L118.086 111.929C118.842 112.699 120.186 113.189 121.6 113.189C123.994 113.189 125.156 111.887 125.156 110.221C125.156 108.485 124.036 107.323 121.082 107.323ZM134.16 107.239C132.802 107.239 131.654 107.841 131.164 108.919C131.136 108.625 131.122 108.345 131.122 108.121C131.122 105.461 132.48 104.103 134.594 104.103C135.322 104.103 135.994 104.229 136.498 104.565L136.904 103.753C136.288 103.375 135.462 103.221 134.58 103.221C131.92 103.221 130.1 104.957 130.1 108.289C130.1 111.383 131.514 113.189 134.118 113.189C136.022 113.189 137.464 112.013 137.464 110.179C137.464 108.387 136.106 107.239 134.16 107.239ZM134.076 112.335C132.382 112.335 131.486 111.313 131.486 110.235C131.486 109.017 132.508 108.093 134.006 108.093C135.518 108.093 136.47 108.919 136.47 110.207C136.47 111.509 135.49 112.335 134.076 112.335ZM142.537 113.189C144.805 113.189 146.457 111.327 146.457 108.205C146.457 105.083 144.805 103.221 142.537 103.221C140.269 103.221 138.631 105.083 138.631 108.205C138.631 111.327 140.269 113.189 142.537 113.189ZM142.537 112.265C140.829 112.265 139.653 110.823 139.653 108.205C139.653 105.587 140.829 104.145 142.537 104.145C144.245 104.145 145.421 105.587 145.421 108.205C145.421 110.823 144.245 112.265 142.537 112.265ZM150.952 103.221C149.048 103.221 147.606 104.397 147.606 106.231C147.606 108.023 148.964 109.171 150.91 109.171C152.268 109.171 153.416 108.569 153.906 107.491C153.934 107.785 153.948 108.065 153.948 108.289C153.948 110.949 152.59 112.307 150.476 112.307C149.748 112.307 149.076 112.181 148.572 111.845L148.166 112.657C148.782 113.035 149.608 113.189 150.49 113.189C153.15 113.189 154.97 111.453 154.97 108.121C154.97 105.027 153.556 103.221 150.952 103.221ZM151.064 108.317C149.552 108.317 148.6 107.491 148.6 106.203C148.6 104.901 149.58 104.075 150.994 104.075C152.688 104.075 153.584 105.097 153.584 106.175C153.584 107.393 152.562 108.317 151.064 108.317Z" fill="#94070A"/>
<rect y="122.13" width="180.191" height="2.00212" fill="black"/>
</svg>
