<svg width="349" height="42" viewBox="0 0 349 42" fill="none" xmlns="http://www.w3.org/2000/svg">
<rect x="0.150513" y="0.106445" width="348.369" height="41.0435" fill="#94070A"/>
<path d="M169.623 29.2179H171.527C170.199 26.8819 169.639 24.4659 169.639 21.7299C169.639 18.9939 170.199 16.5779 171.527 14.2419H169.623C168.375 16.1459 167.671 18.7859 167.671 21.7299C167.671 24.6739 168.375 27.2819 169.623 29.2179ZM175.41 24.3539L178.402 21.5059C179.954 20.0499 180.258 19.0579 180.258 17.9699C180.258 15.9859 178.69 14.7539 176.258 14.7539C174.418 14.7539 172.866 15.4419 172.002 16.6099L173.458 17.7299C174.082 16.9299 174.994 16.5619 176.082 16.5619C177.458 16.5619 178.162 17.1539 178.162 18.1779C178.162 18.8019 177.97 19.4579 176.882 20.4979L172.434 24.7219V26.1139H180.69V24.3539H175.41ZM189.154 20.2259C190.066 19.7299 190.578 18.9299 190.578 17.8739C190.578 15.9539 188.882 14.7539 186.386 14.7539C183.906 14.7539 182.226 15.9539 182.226 17.8739C182.226 18.9299 182.722 19.7299 183.618 20.2259C182.466 20.7539 181.826 21.6659 181.826 22.8979C181.826 24.9779 183.602 26.2739 186.386 26.2739C189.17 26.2739 190.978 24.9779 190.978 22.8979C190.978 21.6659 190.322 20.7539 189.154 20.2259ZM186.386 16.3859C187.666 16.3859 188.53 16.9619 188.53 17.9699C188.53 18.9299 187.714 19.5379 186.386 19.5379C185.074 19.5379 184.274 18.9299 184.274 17.9699C184.274 16.9619 185.106 16.3859 186.386 16.3859ZM186.386 24.6419C184.85 24.6419 183.922 23.9699 183.922 22.8339C183.922 21.7299 184.85 21.0419 186.386 21.0419C187.922 21.0419 188.882 21.7299 188.882 22.8339C188.882 23.9699 187.922 24.6419 186.386 24.6419ZM196.494 14.9139V18.5779H198.43V16.6739H202.83L198.622 26.1139H200.846L205.198 16.3059V14.9139H196.494ZM209.707 19.2499H208.635L208.875 16.6579H213.691V14.9139H207.115L206.539 21.0099H209.243C211.563 21.0099 212.251 21.6819 212.251 22.7539C212.251 23.8099 211.371 24.4659 209.883 24.4659C208.619 24.4659 207.403 24.0339 206.587 23.3619L205.707 24.9779C206.731 25.7939 208.331 26.2739 209.915 26.2739C212.923 26.2739 214.347 24.6419 214.347 22.6739C214.347 20.6899 213.019 19.2499 209.707 19.2499ZM222.81 20.2259C223.722 19.7299 224.234 18.9299 224.234 17.8739C224.234 15.9539 222.538 14.7539 220.042 14.7539C217.562 14.7539 215.882 15.9539 215.882 17.8739C215.882 18.9299 216.378 19.7299 217.274 20.2259C216.122 20.7539 215.482 21.6659 215.482 22.8979C215.482 24.9779 217.258 26.2739 220.042 26.2739C222.826 26.2739 224.634 24.9779 224.634 22.8979C224.634 21.6659 223.978 20.7539 222.81 20.2259ZM220.042 16.3859C221.322 16.3859 222.186 16.9619 222.186 17.9699C222.186 18.9299 221.37 19.5379 220.042 19.5379C218.73 19.5379 217.93 18.9299 217.93 17.9699C217.93 16.9619 218.762 16.3859 220.042 16.3859ZM220.042 24.6419C218.506 24.6419 217.578 23.9699 217.578 22.8339C217.578 21.7299 218.506 21.0419 220.042 21.0419C221.578 21.0419 222.538 21.7299 222.538 22.8339C222.538 23.9699 221.578 24.6419 220.042 24.6419ZM237.67 20.2259C238.582 19.7299 239.094 18.9299 239.094 17.8739C239.094 15.9539 237.398 14.7539 234.902 14.7539C232.422 14.7539 230.742 15.9539 230.742 17.8739C230.742 18.9299 231.238 19.7299 232.134 20.2259C230.982 20.7539 230.342 21.6659 230.342 22.8979C230.342 24.9779 232.118 26.2739 234.902 26.2739C237.686 26.2739 239.494 24.9779 239.494 22.8979C239.494 21.6659 238.838 20.7539 237.67 20.2259ZM234.902 16.3859C236.182 16.3859 237.046 16.9619 237.046 17.9699C237.046 18.9299 236.23 19.5379 234.902 19.5379C233.59 19.5379 232.79 18.9299 232.79 17.9699C232.79 16.9619 233.622 16.3859 234.902 16.3859ZM234.902 24.6419C233.366 24.6419 232.438 23.9699 232.438 22.8339C232.438 21.7299 233.366 21.0419 234.902 21.0419C236.438 21.0419 237.398 21.7299 237.398 22.8339C237.398 23.9699 236.438 24.6419 234.902 24.6419ZM250.827 21.8099H248.843V19.5539H246.891V21.8099H243.227L248.427 14.9139H246.203L240.683 22.1299V23.5699H246.827V26.1139H248.843V23.5699H250.827V21.8099ZM255.16 19.2499H254.088L254.328 16.6579H259.144V14.9139H252.568L251.992 21.0099H254.696C257.016 21.0099 257.704 21.6819 257.704 22.7539C257.704 23.8099 256.824 24.4659 255.336 24.4659C254.072 24.4659 252.856 24.0339 252.04 23.3619L251.16 24.9779C252.184 25.7939 253.784 26.2739 255.368 26.2739C258.376 26.2739 259.8 24.6419 259.8 22.6739C259.8 20.6899 258.472 19.2499 255.16 19.2499ZM262.552 29.2179C263.816 27.2819 264.504 24.6739 264.504 21.7299C264.504 18.7859 263.816 16.1459 262.552 14.2419H260.648C261.976 16.5779 262.552 18.9939 262.552 21.7299C262.552 24.4659 261.976 26.8819 260.648 29.2179H262.552Z" fill="white"/>
<rect x="0.150513" y="0.106445" width="147.156" height="41.0435" fill="white"/>
</svg>
