<svg width="73" height="51" viewBox="0 0 73 51" fill="none" xmlns="http://www.w3.org/2000/svg">
<path d="M67.8191 35.8916C70.279 35.8916 72.2917 33.8792 72.2917 31.4197V4.58813C72.2917 2.12858 70.279 0.116211 67.8191 0.116211H26.0751C24.137 0.116211 22.497 1.35343 21.8858 3.08257H10.436C7.15612 3.09748 4.47257 5.81047 4.47257 9.11969V41.8392H0V44.9398C0 48.2341 2.66864 50.9023 5.96343 50.9023H65.5977C68.8925 50.9023 71.5612 48.2341 71.5612 44.9398V41.8392H67.0886V35.8916H67.8191ZM24.5842 4.58813C24.5842 3.76828 25.2551 3.09749 26.0751 3.09749H67.8191C68.6391 3.09749 69.31 3.76828 69.31 4.58813V31.4197C69.31 32.2395 68.6391 32.9103 67.8191 32.9103H26.0751C25.2551 32.9103 24.5842 32.2395 24.5842 31.4197V4.58813ZM10.436 6.06385H21.5876V9.04513H7.45429C7.51392 7.43524 8.8557 6.06385 10.436 6.06385ZM68.5795 44.9249C68.5795 46.5646 67.2377 47.9061 65.5977 47.9061H5.96343C4.32349 47.9061 2.98172 46.5646 2.98172 44.9249V44.8056H68.5795V44.9249ZM64.1069 41.8392H7.45429V12.0264H21.6025V31.4197C21.6025 33.8792 23.6152 35.8916 26.0751 35.8916H64.1069V41.8392Z" fill="#94070A"/>
<path d="M39.4932 7.85254V28.1401L55.7286 18.0038L39.4932 7.85254ZM42.4749 13.2337L50.0931 18.0038L42.4749 22.7738V13.2337Z" fill="#94070A"/>
</svg>
