<svg width="73" height="63" viewBox="0 0 73 63" fill="none" xmlns="http://www.w3.org/2000/svg">
<path d="M29.5411 9.14038H20.4458V18.2344H29.5411V9.14038ZM26.5929 15.2866H23.394V12.0882H26.5929V15.2866Z" fill="#94070A"/>
<path d="M29.5411 21.2117H20.4458V30.3057H29.5411V21.2117ZM26.5929 27.3579H23.394V24.1595H26.5929V27.3579Z" fill="#94070A"/>
<path d="M29.5411 33.2979H20.4458V42.3916H29.5411V33.2979ZM26.5929 39.4292H23.394V36.2308H26.5929V39.4292Z" fill="#94070A"/>
<path d="M66.3499 25.7956L67.2049 24.9407L67.8683 24.2775L69.2981 22.8478L70.5806 21.5655C72.9245 19.2073 72.8508 15.3014 70.4185 12.8547C69.2244 11.6461 67.5734 10.9534 65.8929 10.9534C64.3009 10.9534 62.812 11.5578 61.7064 12.6632L60.4093 13.9602L58.9793 15.3899L58.9646 15.4046V0.695068H11.7929V10.8945H10.3188C7.06101 10.8945 4.42234 13.5328 4.42234 16.7901V53.7555H0V56.7033C0 59.9606 2.63866 62.5989 5.89646 62.5989H64.861C68.1188 62.5989 70.7575 59.9606 70.7575 56.7033V53.7555H66.3352V25.7956H66.3499ZM63.4017 53.7702H58.9793V33.1651L62.93 29.215L63.4017 28.7434V53.7702ZM38.5776 41.5369L41.7322 44.691L37.4573 45.8112L38.5776 41.5369ZM44.592 43.3792L39.8895 38.6775L55.2351 23.3342L57.5937 25.6924L59.9522 28.0507L44.592 43.3792ZM65.1264 22.8625L62.0308 25.9577L59.6722 23.5995L57.3136 21.2412L60.4093 18.1461L62.7678 20.5043L65.1264 22.8625ZM62.5025 16.0679L63.7997 14.7708C64.9495 13.6212 67.087 13.7096 68.3253 14.9477C69.6225 16.2447 69.6962 18.2935 68.4874 19.502L67.2197 20.7843L64.861 18.4261L62.5025 16.0679ZM56.0311 3.65762V18.3672L54.0558 20.3422L36.4696 37.9258L33.3297 49.9381L45.3438 46.7987L56.0311 36.1129V53.7702H14.7559V3.65762H56.0311ZM10.3336 13.857H11.8077V16.8048H7.38533C7.38533 15.1835 8.71203 13.857 10.3336 13.857ZM7.38533 19.7526H11.8077V53.7702H7.38533V19.7526ZM64.8758 59.6658H5.91121C4.28969 59.6658 2.96298 58.3393 2.96298 56.718H67.824C67.824 58.3393 66.4973 59.6658 64.8758 59.6658Z" fill="#94070A"/>
<path d="M50.1348 9.14038H32.2686V12.0881H50.1348V9.14038Z" fill="#94070A"/>
<path d="M46.5084 21.2117H32.2686V24.1594H46.5084V21.2117Z" fill="#94070A"/>
<path d="M36.4102 33.2979H32.2686V36.2457H36.4102V33.2979Z" fill="#94070A"/>
</svg>
