<svg width="73" height="66" viewBox="0 0 73 66" fill="none" xmlns="http://www.w3.org/2000/svg">
<path d="M67.7735 56.5082V51.7798C70.364 51.1022 72.2917 48.7681 72.2917 45.9672V0.791504H21.0851V17.3559H10.5275C7.2141 17.371 4.51823 20.1117 4.51823 23.4547V56.5082H0V59.6404C0 62.9683 2.69588 65.6638 6.02431 65.6638H66.2674C69.5959 65.6638 72.2917 62.9683 72.2917 59.6404V56.5082H67.7735ZM24.0972 45.9672V3.80322H69.2796V45.9672C69.2796 47.6236 67.9241 48.9789 66.2674 48.9789H23.284C23.8111 48.0905 24.0972 47.0665 24.0972 45.9672ZM15.0608 26.3911H21.0851V45.9672C21.0851 47.6236 19.7296 48.9789 18.0729 48.9789C16.4163 48.9789 15.0608 47.6236 15.0608 45.9672V26.3911ZM10.5425 20.3676H21.0851V23.3793H7.53039C7.59063 21.753 8.9461 20.3676 10.5425 20.3676ZM7.53039 26.3911H12.0486V45.9672C12.0486 49.2951 14.7445 51.9906 18.0729 51.9906H64.7614V56.5082H7.53039V26.3911ZM69.2796 59.6253C69.2796 61.2818 67.9241 62.637 66.2674 62.637H6.02431C4.36763 62.637 3.01216 61.2818 3.01216 59.6253V59.5048H69.2796V59.6253Z" fill="#94070A"/>
<path d="M64.7611 8.3208H28.6152V11.3325H64.7611V8.3208Z" fill="#94070A"/>
<path d="M64.7611 14.3442H28.6152V17.356H64.7611V14.3442Z" fill="#94070A"/>
<path d="M64.761 23.3794H49.7002V26.3911H64.761V23.3794Z" fill="#94070A"/>
<path d="M64.761 38.438H49.7002V41.4497H64.761V38.438Z" fill="#94070A"/>
<path d="M64.761 30.9087H49.7002V33.9204H64.761V30.9087Z" fill="#94070A"/>
<path d="M28.6152 41.4497H46.6881V23.3794H28.6152V41.4497ZM31.6274 26.3911H43.676V38.438H31.6274V26.3911Z" fill="#94070A"/>
</svg>
