<svg width="640" height="92" viewBox="0 0 640 92" fill="none" xmlns="http://www.w3.org/2000/svg">
<path d="M0.342733 91.0812L45.7013 45.712L0 0H8.69684L54.3981 45.712L9.03958 91.0812H0.342733Z" fill="#DC0D15"/>
<path d="M14.3096 91.0812L59.6788 45.712L13.9775 0H22.6744L68.3757 45.712L23.0171 91.0812H14.3096Z" fill="#DC0D15"/>
<path d="M28.2861 91.0812L73.6554 45.712L27.9541 0H36.6509L82.3629 45.712L36.9937 91.0812H28.2861Z" fill="#DC0D15"/>
<path d="M42.2636 91.0812L87.6329 45.712L41.9209 0H50.6285L96.3297 45.712L50.9712 91.0812H42.2636Z" fill="#DC0D15"/>
<path d="M147.311 0L105.958 41.3529L103.324 38.7181L142.031 0H133.334L98.9645 34.359L96.3405 31.7242L128.054 0H119.357L91.9813 27.3758L89.3466 24.741L114.088 0H105.38L84.9874 20.3819L82.3634 17.7471L100.111 0H91.403L78.0043 13.3987L64.6055 0H55.9087L101.599 45.712L56.2407 91.0812H64.9483L110.307 45.712L156.008 0H147.311Z" fill="#DC0D15"/>
<path d="M209.035 11.3638H195.304L181.552 40.5924L167.8 11.3638H154.058L175.436 54.7088V80.5637H187.646V54.7302L209.035 11.3638Z" fill="black"/>
<path d="M212.098 45.9585C212.098 58.5432 222.294 68.7395 234.879 68.7395C247.464 68.7395 257.66 58.5432 257.66 45.9585C257.66 33.3631 247.464 23.1668 234.879 23.1668C222.294 23.1775 212.098 33.3738 212.098 45.9585ZM234.879 10.7534C254.318 10.7534 270.073 26.5084 270.073 45.9585C270.073 65.3979 254.308 81.1529 234.879 81.1529C215.44 81.1529 199.685 65.3979 199.685 45.9585C199.685 26.5191 215.44 10.7534 234.879 10.7534Z" fill="black"/>
<path d="M322.619 45.9585C322.619 58.5432 332.826 68.7395 345.421 68.7395C358.006 68.7395 368.213 58.5432 368.213 45.9585C368.213 33.3631 358.006 23.1668 345.421 23.1668C332.826 23.1775 322.619 33.3738 322.619 45.9585ZM345.421 10.7534C364.861 10.7534 380.616 26.5084 380.616 45.9585C380.616 65.3979 364.861 81.1529 345.421 81.1529C325.971 81.1529 310.216 65.3979 310.216 45.9585C310.216 26.5191 325.971 10.7534 345.421 10.7534Z" fill="black"/>
<path d="M321.88 10.7852H306.36L285.507 40.2388V10.7852H272.655V79.985H285.507V51.474L305.343 79.985H320.862L295.543 46.0652L321.88 10.7852Z" fill="black"/>
<path d="M420.148 11.3638V40.5389H396.553V11.3638H383.197V80.5637H396.553V53.0058H420.148V80.5637H433.504V11.3638H420.148Z" fill="black"/>
<path d="M459.401 52.6202L467.456 30.8139L475.51 52.6202H459.401ZM485.835 80.5637H499.191L473.625 11.3638H472.35H461.79H461.286L435.731 80.5637H449.087L455.224 63.9411H479.708L485.835 80.5637Z" fill="black"/>
<path d="M600.211 52.6202L608.265 30.8139L616.319 52.6202H600.211ZM626.644 80.5637H640L614.434 11.3638H613.16H602.599H602.096L576.53 80.5637H589.886L596.034 63.9411H620.507L626.644 80.5637Z" fill="black"/>
<path d="M569.408 11.3638H560.379H556.716L537.351 62.763L517.987 11.3638H514.335H505.306H501.739V80.5637H514.335V35.3229L531.375 80.5637H532.135H542.567H543.338L560.379 35.3229V80.5637H572.963V11.3638H569.408Z" fill="black"/>
</svg>
