<svg width="25" height="38" viewBox="0 0 25 38" fill="none" xmlns="http://www.w3.org/2000/svg">
<path d="M11.9803 33.9955C8.99924 37.2302 6.55731 38.0865 4.6545 36.5642C2.37114 34.7883 2.68827 31.7438 5.60591 27.4308C6.49388 26.1623 7.82585 24.4497 9.6018 22.2932L12.8366 18.2973L8.49149 14.3327L4.4956 10.9077C1.6414 8.18032 0.404576 6.11895 0.785136 4.72356C1.54626 1.67908 2.81479 0.156831 4.59074 0.156831C6.49355 0.156831 6.88894 -0.175133 11.2654 3.18649L17.9741 9.73471C19.7501 11.1301 21.0186 12.2083 21.7797 12.9695C24.19 15.2528 24.8242 17.4728 23.6826 19.6293L20.8283 22.2932C19.8135 23.308 18.989 24.2594 18.3547 25.1474C15.4371 29.5873 13.3123 32.5366 11.9803 33.9955Z" fill="#94070A"/>
</svg>
