<svg width="24" height="38" viewBox="0 0 24 38" fill="none" xmlns="http://www.w3.org/2000/svg">
<path d="M12.4292 33.9955C15.4102 37.2303 17.8522 38.0866 19.755 36.5643C22.0383 34.7884 21.7212 31.7439 18.8036 27.4308C17.9156 26.1623 16.5836 24.4498 14.8077 22.2933L11.5729 18.2974L15.918 14.3328L19.9139 10.9077C22.7681 8.18038 24.0049 6.11901 23.6243 4.72362C22.8632 1.67914 21.5947 0.156892 19.8187 0.156892C17.9159 0.156892 17.5205 -0.175072 13.1441 3.18655L6.43535 9.73477C4.6594 11.1302 3.39086 12.2084 2.62974 12.9695C0.219518 15.2529 -0.41475 17.4728 0.726931 19.6294L3.58114 22.2933C4.59597 23.3081 5.42051 24.2595 6.05478 25.1475C8.97242 29.5874 11.0972 32.5367 12.4292 33.9955Z" fill="#94070A"/>
</svg>
